<svg width="61" height="80" viewBox="0 0 61 80" xmlns="http://www.w3.org/2000/svg"><title>Group 14</title><g fill="none" fill-rule="evenodd"><path fill="#FFB832" d="M28.667 0l1.736 50.438L53.578 4.305z"/><g fill-rule="nonzero" fill="#4A4A4A"><path d="M30.5 20C13.958 20 .5 33.458.5 50s13.458 30 30 30 30-13.458 30-30-13.458-30-30-30zm0 55c-13.785 0-25-11.215-25-25s11.215-25 25-25 25 11.215 25 25-11.215 25-25 25z"/><path d="M28.833 68.333h3.333v3.333h-3.333zm0-40h3.333v3.333h-3.333zm-20 20h3.333v3.333H8.833zm40 0h3.333v3.333h-3.333zm-6.176-7.276l-8.913 5.146a4.973 4.973 0 0 0-6.488 0l-11.8-6.813-1.666 2.887 11.797 6.811c-.054.296-.087.6-.087.912 0 2.757 2.243 5 5 5s5-2.243 5-5c0-.312-.033-.616-.087-.912l8.91-5.145-1.666-2.886zM32.167 50a1.67 1.67 0 0 1-1.667 1.667c-.92 0-1.667-.748-1.667-1.667s.748-1.667 1.667-1.667c.92 0 1.667.748 1.667 1.667z"/></g></g></svg>