<svg width="83" height="57" viewBox="0 0 83 57" xmlns="http://www.w3.org/2000/svg" xmlns:xlink="http://www.w3.org/1999/xlink"><title>Group 9</title><defs><path id="a" d="M82.467 0v56.961H0V0h82.467z"/><path id="c" d="M0 0h29.955v31.998H0V0z"/></defs><g fill="none" fill-rule="evenodd"><mask id="b" fill="#fff"><use xlink:href="#a"/></mask><path d="M69.975 50.004c-7.814 4.519-17.847 1.827-22.36-5.999a16.303 16.303 0 0 1-1.637-12.437 16.28 16.28 0 0 1 7.628-9.952 16.404 16.404 0 0 1 2.125-1.032c-2.957 5.098-3.166 11.595-.048 17.003 3.973 6.89 12.079 9.929 19.394 7.79a16.398 16.398 0 0 1-5.102 4.627zm-56.009.982c-5.077 0-9.207-4.136-9.207-9.22 0-5.74 5.28-10.32 11.217-8.99A2.38 2.38 0 0 0 18.81 31c1.774-7.496 8.632-12.732 16.675-12.732 3.858 0 7.534 1.227 10.532 3.476a21.067 21.067 0 0 0-4.637 8.59 21.04 21.04 0 0 0 2.112 16.053 21.08 21.08 0 0 0 3.58 4.599H13.966zM53.32 4.765c7.8 0 14.145 6.062 14.145 13.515a2.381 2.381 0 0 0 2.38 2.383 5.57 5.57 0 0 1 5.56 5.566 5.568 5.568 0 0 1-5.56 5.565h-11.36c-1.069-4.779.822-9.925 5.07-12.775a2.385 2.385 0 0 0-1.267-4.362 21 21 0 0 0-11.061 2.83c-.559.323-1.095.676-1.617 1.043a22.02 22.02 0 0 0-9.682-4.581c1.916-5.47 7.229-9.184 13.392-9.184zm27.966 33.083a2.379 2.379 0 0 0-2.795.29 12.233 12.233 0 0 1-2.082 1.52c-5.322 3.076-12.018 1.641-15.678-3.098h9.114c5.69 0 10.319-4.634 10.319-10.331 0-4.923-3.457-9.053-8.068-10.084C71 7.067 62.995 0 53.318 0c-8.629 0-16.017 5.528-18.234 13.518-9.328.161-17.358 5.888-20.293 14.29C6.745 27.315 0 33.782 0 41.768c0 7.711 6.265 13.984 13.967 13.984h40.05c.197 0 .385-.03.57-.076a21.248 21.248 0 0 0 7.241 1.285c3.582 0 7.21-.912 10.53-2.83A21.216 21.216 0 0 0 82.41 40.426a2.386 2.386 0 0 0-1.125-2.578z" fill="#4A4A4A" mask="url(#b)"/><g transform="translate(46 21)"><mask id="d" fill="#fff"><use xlink:href="#c"/></mask><path d="M24.803 29.78c-7.89 4.573-18.022 1.849-22.58-6.073A16.536 16.536 0 0 1 .57 11.118 16.473 16.473 0 0 1 8.272 1.045C8.965.643 9.684.295 10.42 0c-2.987 5.16-3.197 11.737-.05 17.21 4.013 6.974 12.198 10.05 19.586 7.885a16.573 16.573 0 0 1-5.152 4.684" fill="#FFB832" mask="url(#d)"/></g></g></svg>