<svg width="18" height="18" viewBox="0 0 18 18" xmlns="http://www.w3.org/2000/svg"><title>Group</title><g fill="#4483E5" fill-rule="evenodd"><path d="M.175 9C.175 4.134 4.134.175 9 .175S17.825 4.134 17.825 9 13.866 17.825 9 17.825.175 13.866.175 9zm15.647.967h-2.275V8.033h2.275a6.905 6.905 0 0 0-5.855-5.855v2.275H8.033V2.178a6.905 6.905 0 0 0-5.855 5.855h2.275v1.934H2.178a6.905 6.905 0 0 0 5.855 5.855v-2.275h1.934v2.275a6.905 6.905 0 0 0 5.855-5.855z"/><circle cx="9" cy="9" r="2.564"/></g></svg>