<svg width="106" height="62" viewBox="0 0 106 62" xmlns="http://www.w3.org/2000/svg"><title>Group 13</title><g fill="none" fill-rule="evenodd"><circle fill="#FFB832" cx="53.049" cy="29.51" r="28.798"/><path d="M31.757 18.674c6.818 3.914 11.475 11.136 11.77 19.46h2.552a7.678 7.678 0 0 1 2.309-4.536L35.36 11.944l-3.603 6.73zM51.33 31.832a7.708 7.708 0 0 1 6.017.513l11.601-21.673H38.6l12.731 21.16z"/><path d="M83.757 18.47c-2.422 0-4.744.413-6.921 1.146L69.868 3.402h9.78a4.24 4.24 0 0 1 4.241 4.23c0 .875-.565 1.632-1.405 1.884l-2.763.826.913 3.039 2.763-.827a5.109 5.109 0 0 0 3.672-4.922c0-4.08-3.33-7.402-7.421-7.402h-9.95a3.065 3.065 0 0 0-2.82 4.268l2.72 6.332H36.989l-3.514-5.84h4.824V1.815H22.397V4.99h7.37l4.222 7.02-4.279 7.994a21.646 21.646 0 0 0-7.976-1.532C9.75 18.469 0 28.194 0 40.147c0 11.952 9.75 21.678 21.735 21.678 11.185 0 20.42-8.475 21.6-19.324h2.73a7.166 7.166 0 0 0 6.815 4.96c3.946 0 7.157-3.201 7.157-7.137 0-1.573-.52-3.024-1.387-4.204l12.102-22.61 3.154 7.34c-7.04 3.592-11.883 10.885-11.883 19.298 0 11.952 9.75 21.678 21.735 21.678 11.984-.003 21.734-9.727 21.734-21.679 0-11.953-9.75-21.678-21.735-21.678zm-52.724 5.69c5.314 3.087 8.946 8.72 9.216 15.219H27.034a5.382 5.382 0 0 0-2.272-3.505l6.271-11.715zM23.95 40.321a2.214 2.214 0 0 1-4.428 0 2.214 2.214 0 0 1 4.428 0zm-2.214 18.33c-10.23 0-18.554-8.302-18.554-18.505s8.323-18.505 18.554-18.505a18.5 18.5 0 0 1 6.465 1.182l-6.487 12.12c-2.965.014-5.373 2.42-5.373 5.38 0 2.967 2.42 5.38 5.395 5.38A5.397 5.397 0 0 0 26.66 42.5h13.462c-1.165 9.093-8.958 16.15-18.386 16.15zm24.057-19.274H43.43c-.273-7.708-4.584-14.395-10.899-18.019l3.336-6.232 12.063 20.05a7.122 7.122 0 0 0-2.138 4.2zm7.086 4.91a3.976 3.976 0 0 1-3.975-3.966 3.976 3.976 0 0 1 3.975-3.965 3.976 3.976 0 0 1 3.976 3.965 3.975 3.975 0 0 1-3.976 3.966zm3.347-10.27a7.129 7.129 0 0 0-5.571-.475L38.868 13.95h28.1L56.224 34.018zm27.532 24.634c-10.23 0-18.554-8.302-18.554-18.505 0-7.109 4.045-13.284 9.955-16.383l5.3 12.333c-1.266.986-2.096 2.505-2.096 4.227 0 2.967 2.42 5.38 5.395 5.38 2.975 0 5.395-2.413 5.395-5.38 0-2.968-2.42-5.382-5.395-5.382-.11 0-.213.026-.322.033L78.09 22.532a18.513 18.513 0 0 1 5.668-.89c10.23 0 18.554 8.3 18.554 18.504 0 10.203-8.324 18.505-18.554 18.505zm0-20.538c1.221 0 2.215.991 2.215 2.208a2.214 2.214 0 0 1-4.43 0c0-1.217.994-2.208 2.215-2.208z" fill="#4A4A4A" fill-rule="nonzero"/></g></svg>