<svg width="18" height="16" viewBox="0 0 18 16" xmlns="http://www.w3.org/2000/svg"><title>icon-toolbox</title><path d="M2 14v-4h3a1 1 0 1 0 2 0h4a1 1 0 1 0 2 0h3v4H2zm0-7.149L3.48 5h11.04L16 6.851V8h-3a1 1 0 1 0-2 0H7a1 1 0 1 0-2 0H2V6.851zM8 2h2c.552 0 1 .449 1 1H7c0-.551.448-1 1-1zm9.781 3.875l-2-2.5A1 1 0 0 0 15 3h-2c0-1.654-1.346-3-3-3H8C6.346 0 5 1.346 5 3H3a1 1 0 0 0-.781.375l-2 2.5A1.001 1.001 0 0 0 0 6.5V15a1 1 0 0 0 1 1h16a1 1 0 0 0 1-1V6.5c0-.227-.077-.447-.219-.625z" fill="#838383" fill-rule="evenodd"/></svg>