<svg width="140" height="140" viewBox="0 0 140 140" xmlns="http://www.w3.org/2000/svg" xmlns:xlink="http://www.w3.org/1999/xlink"><title>Group 23</title><defs><circle id="b" cx="60" cy="60" r="60"/><filter x="-14.2%" y="-10.8%" width="128.3%" height="128.3%" filterUnits="objectBoundingBox" id="a"><feOffset dy="4" in="SourceAlpha" result="shadowOffsetOuter1"/><feGaussianBlur stdDeviation="5" in="shadowOffsetOuter1" result="shadowBlurOuter1"/><feColorMatrix values="0 0 0 0 0 0 0 0 0 0 0 0 0 0 0 0 0 0 0.2 0" in="shadowBlurOuter1"/></filter><path id="c" d="M0 87.633h77.323V0H0z"/></defs><g fill="none" fill-rule="evenodd"><g transform="translate(10 6)"><use fill="#000" filter="url(#a)" xlink:href="#b"/><use fill="#FFB832" xlink:href="#b"/></g><path stroke="#FFF" stroke-width="2" d="M38.444 107.989h64.436V24.222H38.444z"/><path fill="#E4E5E7" d="M41.988 104.767h57.348V27.444H41.988z"/><path fill="#11BACC" d="M92.57 49.996v19.331h16.753V53.595h-3.598v-3.599z"/><path fill="#1FCCE8" d="M105.725 53.595h3.599l-3.6-3.599z"/><path fill="#FFF" d="M60.996 62.187h19.331V35.124h-19.33z"/><g transform="translate(32 21)"><path d="M27.385 48.327h8.496m-8.496 3.222h22.553M27.385 54.77h22.553m-22.553 3.223h6.082m-6.082 3.221h22.553m-22.553 3.222h22.553m-22.553 3.222h12.163M27.385 70.88h22.553m-22.553 3.222h7.652" stroke="#373737" stroke-width="2"/><mask id="d" fill="#fff"><use xlink:href="#c"/></mask><path fill="#1FCCE8" mask="url(#d)" d="M28.996 9.665h19.331V0h-19.33z"/><path d="M27.386 6.444h22.552m17.895 34.09l1.99 1.99 3.862-3.862" stroke="#000" stroke-width="2" mask="url(#d)"/><path fill="#11BACC" mask="url(#d)" d="M13.155 61.214H0v19.331h16.753V64.813h-3.598z"/><path fill="#1FCCE8" mask="url(#d)" d="M13.155 61.214v3.6h3.598z"/><path stroke="#000" stroke-width="2" mask="url(#d)" d="M7.263 72.752l1.99 1.99 3.862-3.862"/></g><path d="M61 59a3.808 3.808 0 0 1 3.807-3.81h11.42A3.808 3.808 0 0 1 80.036 59m-3.808-14.286a5.712 5.712 0 0 1-5.71 5.715 5.712 5.712 0 0 1-5.711-5.715A5.712 5.712 0 0 1 70.517 39a5.712 5.712 0 0 1 5.71 5.714z" stroke-linecap="round" stroke-width="2" stroke="#4A4A4A" stroke-linejoin="round"/></g></svg>