<svg width="68" height="68" viewBox="0 0 68 68" xmlns="http://www.w3.org/2000/svg" xmlns:xlink="http://www.w3.org/1999/xlink"><title>Group 19</title><defs><ellipse id="b" cx="30" cy="29.614" rx="30" ry="29.614"/><filter x="-11.7%" y="-8.4%" width="123.3%" height="123.6%" filterUnits="objectBoundingBox" id="a"><feOffset dy="2" in="SourceAlpha" result="shadowOffsetOuter1"/><feGaussianBlur stdDeviation="2" in="shadowOffsetOuter1" result="shadowBlurOuter1"/><feColorMatrix values="0 0 0 0 0 0 0 0 0 0 0 0 0 0 0 0 0 0 0.2 0" in="shadowBlurOuter1"/></filter></defs><g fill="none" fill-rule="evenodd"><g transform="translate(4 2.18)"><use fill="#000" filter="url(#a)" xlink:href="#b"/><use fill="#FCBD1B" xlink:href="#b"/></g><path d="M35.42 31.637c0 .423-.35.769-.778.769h-1.557a.778.778 0 0 1-.779-.769v-4.611c0-.423.354-.769.779-.769h1.557c.428 0 .779.346.779.769v4.611zm0 4.611c0 .423-.35.77-.778.77h-1.557a.778.778 0 0 1-.779-.77v-1.537c0-.422.354-.768.779-.768h1.557c.428 0 .779.346.779.768v1.537zm10.128 2.508L34.636 19.904c-.422-.732-1.12-.732-1.545 0L22.178 38.756c-.421.734-.07 1.335.785 1.335h21.8c.858 0 1.21-.6.785-1.335z" fill="#FFF"/></g></svg>