<?xml version="1.0" encoding="UTF-8"?>
<svg width="58px" height="58px" viewBox="0 0 58 58" version="1.1" xmlns="http://www.w3.org/2000/svg" xmlns:xlink="http://www.w3.org/1999/xlink">
    <!-- Generator: Sketch 46.2 (44496) - http://www.bohemiancoding.com/sketch -->
    <title>Group 17</title>
    <desc>Created with Sketch.</desc>
    <defs></defs>
    <g id="LOGIN" stroke="none" stroke-width="1" fill="none" fill-rule="evenodd">
        <g id="14_CXP_casi_finalizamos_exito" transform="translate(-131.000000, -172.000000)" fill-rule="nonzero">
            <g id="Group-17" transform="translate(131.000000, 172.000000)">
                <path d="M29,0.2 C44.8811417,0.2 57.8,13.1188583 57.8,29 C57.8,44.8811417 44.8811417,57.8 29,57.8 C13.1188583,57.8 0.2,44.8811417 0.2,29 C0.2,13.1188583 13.1188583,0.2 29,0.2 Z" id="Shape-Copy-143" fill="#7AB546"></path>
                <path d="M41.4856709,17.9552089 C42.2878391,16.8936564 43.7988095,16.683551 44.8443128,17.4856588 C45.9047727,18.2822033 46.1170107,19.7856796 45.3191708,20.8478595 L29.0209539,42.4507886 C28.6287236,42.9673846 28.042931,43.3026655 27.3686228,43.3871822 C27.2372178,43.3981338 27.2372178,43.3981338 27.1052183,43.4003375 C26.5551905,43.4003375 26.0173576,43.2089691 25.585252,42.8584741 L13.0807694,32.6436797 C12.0551911,31.8050058 11.9040366,30.2949436 12.7435777,29.2624399 C13.5868608,28.2381129 15.0899179,28.0888417 16.1188299,28.9254379 L26.6920929,37.5634947 L41.4856709,17.9552089 Z" id="Shape-Copy-169" fill="#FFFFFF"></path>
            </g>
        </g>
    </g>
</svg>