<?xml version="1.0" encoding="UTF-8"?>
<svg width="72px" height="56px" viewBox="0 0 72 56" version="1.1" xmlns="http://www.w3.org/2000/svg" xmlns:xlink="http://www.w3.org/1999/xlink">
    <!-- Generator: Sketch 46.2 (44496) - http://www.bohemiancoding.com/sketch -->
    <title>Group 22</title>
    <desc>Created with Sketch.</desc>
    <defs></defs>
    <g id="LOGIN-MOBILE" stroke="none" stroke-width="1" fill="none" fill-rule="evenodd">
        <g id="18_CXP_olvido_contraseña_mobile" transform="translate(-124.000000, -113.000000)">
            <g id="Group-22" transform="translate(124.000000, 113.000000)">
                <path d="M0,41.25 L60,41.25 L60,0 L0,0 L0,41.25 Z M8.22,3.75 L51.36375,3.75 L29.79,25.32 L8.22,3.75 Z M32.44875,27.975 L56.25,4.17 L56.25,33.5625 L45.19125,22.5 L42.54,25.15125 L54.885,37.5 L5.115,37.5 L17.46375,25.15125 L14.80875,22.5 L3.75,33.5625 L3.75,4.57875 L27.14625,27.975 L29.79,30.62625 L32.44875,27.975 Z" id="Page-1" fill="#373737"></path>
                <g id="Group-9" transform="translate(42.000000, 26.000000)">
                    <path d="M15,30 C23.2842712,30 30,23.2842712 30,15 C30,6.71572875 23.2842712,0 15,0 C6.71572875,0 0,6.71572875 0,15 C0,23.2842712 6.71572875,30 15,30 L15,30 Z" id="Icon" fill="#81BD60"></path>
                    <path d="M13.7131324,18.2505622 L8.92431938,13.4617491 C8.74258657,13.2800163 8.446397,13.2806228 8.26333874,13.4636811 C8.07900423,13.6480156 8.07941551,13.9426705 8.26140677,14.1246617 L13.3160954,19.1793504 C13.3330292,19.2048145 13.3527198,19.2289843 13.3751714,19.2514359 C13.5595059,19.4357704 13.8546567,19.4348632 14.0372597,19.2522601 L21.5519178,11.7376021 C21.7336621,11.5558578 21.7341518,11.258572 21.5510935,11.0755137 C21.366759,10.8911792 21.0716082,10.8920864 20.8890052,11.0746895 L13.7131324,18.2505622 L13.7131324,18.2505622 Z" id="Path" fill="#FFFFFF"></path>
                </g>
            </g>
        </g>
    </g>
</svg>