<?xml version="1.0" encoding="UTF-8" standalone="no"?>
<svg width="34px" height="45px" viewBox="0 0 34 45" version="1.1" xmlns="http://www.w3.org/2000/svg" xmlns:xlink="http://www.w3.org/1999/xlink">
    <!-- Generator: Sketch 43.1 (39012) - http://www.bohemiancoding.com/sketch -->
    <title>Page 1</title>
    <desc>Created with Sketch.</desc>
    <defs>
        <polygon id="path-1" points="33.4672274 44.9153882 33.4672274 0.0523590226 1.69172932e-05 0.0523590226 1.69172932e-05 44.9153882 33.4672274 44.9153882"></polygon>
        <polygon id="path-3" points="0 44.947641 33.4672274 44.947641 33.4672274 0.0845864662 0 0.0845864662"></polygon>
    </defs>
    <g id="Home-desktop" stroke="none" stroke-width="1" fill="none" fill-rule="evenodd">
        <g id="01_home_desktop" transform="translate(-209.000000, -441.000000)">
            <g id="Page-1" transform="translate(209.000000, 441.000000)">
                <g id="Group-3" transform="translate(0.000000, 0.032227)">
                    <mask id="mask-2" fill="white">
                        <use xlink:href="#path-1"></use>
                    </mask>
                    <g id="Clip-2"></g>
                    <path d="M31.2679962,0.0523336466 L2.19926504,0.0523336466 C0.984603383,0.0523336466 1.69172932e-05,1.0370047 1.69172932e-05,2.25158177 L1.69172932e-05,42.71614 C1.69172932e-05,43.9308017 0.984603383,44.9153882 2.19926504,44.9153882 L31.2679962,44.9153882 C32.4825733,44.9153882 33.4672444,43.9308017 33.4672444,42.71614 L33.4672444,2.25158177 C33.4672444,1.0370047 32.4825733,0.0523336466 31.2679962,0.0523336466 L31.2679962,0.0523336466 Z M2.19926504,42.71614 L31.2679962,42.71614 L31.2679962,2.25158177 L2.19926504,2.25158177 L2.19926504,42.71614 Z" id="Fill-1" fill="#4A4A4A" mask="url(#mask-2)"></path>
                </g>
                <mask id="mask-4" fill="white">
                    <use xlink:href="#path-3"></use>
                </mask>
                <g id="Clip-5"></g>
                <polygon id="Fill-4" fill="#4A4A4A" mask="url(#mask-4)" points="8.68829887 13.2453102 9.40009398 13.2453102 9.40009398 12.5686184 8.68829887 12.5686184"></polygon>
                <path d="M6.74700564,13.4572331 L4.86005075,13.4572331 C4.55646992,13.4572331 4.31023872,13.2110865 4.31023872,12.9074211 L4.31023872,5.08494925 C4.31023872,4.78128383 4.55646992,4.53513722 4.86005075,4.53513722 L28.6603985,4.53513722 C28.9640639,4.53513722 29.2102105,4.78128383 29.2102105,5.08494925 L29.2102105,12.9069135 C29.2102105,13.2105789 28.9640639,13.4567256 28.6603985,13.4567256 L11.2766109,13.4567256 C10.9729455,13.4567256 10.7267989,13.2105789 10.7267989,12.9069135 C10.7267989,12.6032481 10.9729455,12.3571015 11.2766109,12.3571015 L28.1105865,12.3571015 L28.1105865,5.63476128 L5.40986278,5.63476128 L5.40986278,12.357609 L6.74700564,12.357609 C7.05067105,12.357609 7.29681767,12.6037556 7.29681767,12.9074211 C7.29681767,13.2110865 7.05067105,13.4572331 6.74700564,13.4572331" id="Fill-6" fill="#4A4A4A" mask="url(#mask-4)"></path>
                <polygon id="Fill-7" fill="#4A4A4A" mask="url(#mask-4)" points="6.59901316 20.4400658 9.32963346 20.4400658 9.32963346 18.0256297 6.59901316 18.0256297"></polygon>
                <polygon id="Fill-8" fill="#4A4A4A" mask="url(#mask-4)" points="12.3937782 20.4400658 15.1239756 20.4400658 15.1239756 18.0256297 12.3937782 18.0256297"></polygon>
                <polygon id="Fill-9" fill="#4A4A4A" mask="url(#mask-4)" points="18.1875282 20.4400658 20.9182331 20.4400658 20.9182331 18.0256297 18.1875282 18.0256297"></polygon>
                <polygon id="Fill-10" fill="#4A4A4A" mask="url(#mask-4)" points="23.9823778 20.4400658 26.7129981 20.4400658 26.7129981 18.0256297 23.9823778 18.0256297"></polygon>
                <polygon id="Fill-11" fill="#4A4A4A" mask="url(#mask-4)" points="6.59901316 25.6549906 9.32963346 25.6549906 9.32963346 23.2406391 6.59901316 23.2406391"></polygon>
                <polygon id="Fill-12" fill="#4A4A4A" mask="url(#mask-4)" points="12.3937782 25.6549906 15.1239756 25.6549906 15.1239756 23.2406391 12.3937782 23.2406391"></polygon>
                <polygon id="Fill-13" fill="#4A4A4A" mask="url(#mask-4)" points="18.1875282 25.6549906 20.9182331 25.6549906 20.9182331 23.2406391 18.1875282 23.2406391"></polygon>
                <polygon id="Fill-14" fill="#4A4A4A" mask="url(#mask-4)" points="23.9823778 25.6549906 26.7129981 25.6549906 26.7129981 23.2406391 23.9823778 23.2406391"></polygon>
                <polygon id="Fill-15" fill="#4A4A4A" mask="url(#mask-4)" points="6.59901316 30.8699154 9.32963346 30.8699154 9.32963346 28.4555639 6.59901316 28.4555639"></polygon>
                <polygon id="Fill-16" fill="#4A4A4A" mask="url(#mask-4)" points="12.3937782 30.8699154 15.1239756 30.8699154 15.1239756 28.4555639 12.3937782 28.4555639"></polygon>
                <polygon id="Fill-17" fill="#4A4A4A" mask="url(#mask-4)" points="18.1875282 30.8699154 20.9182331 30.8699154 20.9182331 28.4555639 18.1875282 28.4555639"></polygon>
                <polygon id="Fill-18" fill="#4A4A4A" mask="url(#mask-4)" points="23.9823778 30.8699154 26.7129981 30.8699154 26.7129981 28.4555639 23.9823778 28.4555639"></polygon>
                <polygon id="Fill-19" fill="#4A4A4A" mask="url(#mask-4)" points="6.59901316 36.085094 9.32963346 36.085094 9.32963346 33.6705733 6.59901316 33.6705733"></polygon>
                <polygon id="Fill-20" fill="#4A4A4A" mask="url(#mask-4)" points="12.3937782 36.085094 15.1239756 36.085094 15.1239756 33.6705733 12.3937782 33.6705733"></polygon>
                <polygon id="Fill-21" fill="#4A4A4A" mask="url(#mask-4)" points="18.1875282 36.085094 20.9182331 36.085094 20.9182331 33.6705733 18.1875282 33.6705733"></polygon>
                <polygon id="Fill-22" fill="#4A4A4A" mask="url(#mask-4)" points="23.9823778 36.085094 26.7129981 36.085094 26.7129981 33.6705733 23.9823778 33.6705733"></polygon>
                <path d="M24.1748797,7.8411485 L20.4114586,7.8411485 C20.2011767,7.8411485 20.0308195,7.67070677 20.0308195,7.4605094 C20.0308195,7.25031203 20.2011767,7.0798703 20.4114586,7.0798703 L24.1748797,7.0798703 C24.3850771,7.0798703 24.5555188,7.25031203 24.5555188,7.4605094 C24.5555188,7.67070677 24.3850771,7.8411485 24.1748797,7.8411485" id="Fill-23" fill="#4A4A4A" mask="url(#mask-4)"></path>
                <path d="M26.4397162,7.8411485 L26.0529868,7.8411485 C25.8427049,7.8411485 25.6723477,7.67070677 25.6723477,7.4605094 C25.6723477,7.25031203 25.8427049,7.0798703 26.0529868,7.0798703 L26.4397162,7.0798703 C26.6499135,7.0798703 26.8203553,7.25031203 26.8203553,7.4605094 C26.8203553,7.67070677 26.6499135,7.8411485 26.4397162,7.8411485" id="Fill-24" fill="#4A4A4A" mask="url(#mask-4)"></path>
            </g>
        </g>
    </g>
</svg>