<?xml version="1.0" encoding="UTF-8" standalone="no"?>
<svg width="45px" height="29px" viewBox="0 0 45 29" version="1.1" xmlns="http://www.w3.org/2000/svg" xmlns:xlink="http://www.w3.org/1999/xlink">
    <!-- Generator: Sketch 43.1 (39012) - http://www.bohemiancoding.com/sketch -->
    <title>Page 1</title>
    <desc>Created with Sketch.</desc>
    <defs></defs>
    <g id="Home-desktop" stroke="none" stroke-width="1" fill="none" fill-rule="evenodd">
        <g id="01_home_desktop" transform="translate(-204.000000, -676.000000)" fill="#4A4A4A">
            <g id="Page-1" transform="translate(204.000000, 676.000000)">
                <path d="M45,1.61011651 C45,0.707226606 44.2927982,2.47706422e-05 43.3899083,2.47706422e-05 L6.33302752,2.47706422e-05 C5.43022018,2.47706422e-05 4.72293578,0.707226606 4.72293578,1.61011651 L4.72293578,2.79910734 L6.2587156,2.79910734 L6.2587156,1.53580459 L43.4642202,1.53580459 L43.4642202,22.7394743 L42.2009174,22.7394743 L42.2009174,24.2752541 L43.3899083,24.2752541 C44.2927982,24.2752541 45,23.5680523 45,22.6651624 L45,1.61011651 Z" id="Fill-1"></path>
                <path d="M38.7413009,8.36426972 L38.7413009,10.8908752 L38.7413009,11.5406917 L38.7413009,21.4076642 L38.7413009,21.8394991 L38.7413009,24.3661046 L38.7413009,26.4716092 L36.2146128,26.4716092 L33.6880899,26.4716092 L32.5403835,26.4716092 L8.40964954,26.4716092 L7.57983303,26.4716092 L5.05322752,26.4716092 L2.52653945,26.4716092 L2.52653945,24.3661046 L2.52653945,21.8394991 L2.52653945,21.2218844 L2.52653945,12.5521596 L2.52653945,10.8908752 L2.52653945,6.25876514 L7.57983303,6.25876514 L11.113778,6.25876514 L33.510567,6.25876514 L34.1091083,6.25876514 L36.6357963,6.25876514 L38.7413009,6.25876514 L38.7413009,8.36426972 Z M39.1624018,3.73215963 L2.1055211,3.73215963 C0.926521101,3.73215963 1.65137615e-05,4.65858165 1.65137615e-05,5.83766422 L1.65137615e-05,26.8926275 C1.65137615e-05,28.0717927 0.926521101,28.9981321 2.1055211,28.9981321 L39.1624018,28.9981321 C40.3414844,28.9981321 41.2679064,28.0717927 41.2679064,26.8926275 L41.2679064,5.83766422 C41.2679064,4.65858165 40.3414844,3.73215963 39.1624018,3.73215963 L39.1624018,3.73215963 Z" id="Fill-3"></path>
                <path d="M21.2957339,16.8868404 L21.2957339,18.7987211 C21.9576055,18.5780972 22.0310917,18.0634459 22.0310917,17.842822 C22.0310917,17.4015743 21.8840367,17.1074642 21.2957339,16.8868404" id="Fill-5"></path>
                <path d="M19.5309908,14.3866734 C19.5309908,14.7543523 19.6780459,14.9014073 20.1927798,15.1220312 L20.1927798,13.5042606 C19.8251835,13.6513156 19.5309908,14.0189945 19.5309908,14.3866734" id="Fill-7"></path>
                <path d="M21.2957339,19.9753018 L21.2957339,20.9312835 L20.1927798,20.9312835 L20.1927798,19.9753018 C19.3839358,19.8282468 18.6484954,19.4605679 18.133844,18.7986963 L17.986789,18.578155 L18.7220642,17.6221734 L18.9426881,17.9163661 C19.1632294,18.1369899 19.5309908,18.578155 20.119211,18.7252101 L20.119211,16.4455679 C19.2367982,16.1515404 18.2073303,15.7102927 18.2073303,14.3866321 C18.2073303,13.283678 18.9426881,12.4747514 20.119211,12.2541275 L20.119211,11.2982284 L21.2957339,11.2982284 L21.2957339,12.2541275 C22.0310917,12.4012651 22.6193945,12.768944 23.0606422,13.283678 L23.2076972,13.5042193 L22.3988532,14.4602009 L22.1782294,14.1660908 C21.9576055,13.8719807 21.6634954,13.6513569 21.2957339,13.5042193 L21.2957339,15.4896688 C22.1047431,15.7838615 23.2811835,16.2251092 23.2811835,17.769311 C23.2811835,18.6516413 22.7664495,19.7547606 21.2957339,19.9753018 M20.633945,8.63868716 C16.465211,8.63868716 13.0857523,12.0180633 13.0857523,16.1868798 C13.0857523,20.3555312 16.465211,23.7349899 20.633945,23.7349899 C24.8027615,23.7349899 28.1821376,20.3555312 28.1821376,16.1868798 C28.1821376,12.0180633 24.8027615,8.63868716 20.633945,8.63868716" id="Fill-9"></path>
            </g>
        </g>
    </g>
</svg>