<?xml version="1.0" encoding="UTF-8" standalone="no"?>
<svg width="40px" height="45px" viewBox="0 0 40 45" version="1.1" xmlns="http://www.w3.org/2000/svg" xmlns:xlink="http://www.w3.org/1999/xlink">
    <!-- Generator: Sketch 43.1 (39012) - http://www.bohemiancoding.com/sketch -->
    <title>Group 2</title>
    <desc>Created with Sketch.</desc>
    <defs>
        <polygon id="path-1" points="0 44.928075 39.2532035 44.928075 39.2532035 0 0 0"></polygon>
    </defs>
    <g id="Home-desktop" stroke="none" stroke-width="1" fill="none" fill-rule="evenodd">
        <g id="01_home_desktop" transform="translate(-206.000000, -595.000000)">
            <g id="Group-2" transform="translate(206.000000, 595.000000)">
                <g id="Page-1">
                    <mask id="mask-2" fill="white">
                        <use xlink:href="#path-1"></use>
                    </mask>
                    <g id="Clip-2"></g>
                    <path d="M6.74395535,12.672 L13.3149888,12.672 L13.3149888,7.1424 L6.74395535,7.1424 L6.74395535,12.672 Z M13.5455514,14.4 L6.45575213,14.4 C5.64878312,14.4 5.01473603,13.766475 5.01473603,12.960075 L5.01473603,6.854475 C5.01473603,6.048075 5.64878312,5.4144 6.45575213,5.4144 L13.603192,5.4144 C14.410161,5.4144 15.0442081,6.048075 15.0442081,6.854475 L15.0442081,12.960075 C14.9865675,13.766475 14.3525204,14.4 13.5455514,14.4 L13.5455514,14.4 Z" id="Fill-1" fill="#4A4A4A" mask="url(#mask-2)"></path>
                    <path d="M25.0160395,18.4320525 L5.87934569,18.4320525 C5.41822054,18.4320525 5.01473603,18.0288525 5.01473603,17.5680525 C5.01473603,17.1072525 5.41822054,16.7040525 5.87934569,16.7040525 L25.0160395,16.7040525 C25.4771647,16.7040525 25.8806492,17.1072525 25.8806492,17.5680525 C25.8806492,18.0288525 25.4771647,18.4320525 25.0160395,18.4320525" id="Fill-3" fill="#4A4A4A" mask="url(#mask-2)"></path>
                    <path d="M25.0160395,22.29126 L5.87934569,22.29126 C5.41822054,22.29126 5.01473603,21.88806 5.01473603,21.42726 C5.01473603,20.96646 5.41822054,20.56326 5.87934569,20.56326 L25.0160395,20.56326 C25.4771647,20.56326 25.8806492,20.96646 25.8806492,21.42726 C25.8806492,21.88806 25.4771647,22.29126 25.0160395,22.29126" id="Fill-4" fill="#4A4A4A" mask="url(#mask-2)"></path>
                    <path d="M25.0160395,26.20803 L5.87934569,26.20803 C5.41822054,26.20803 5.01473603,25.80483 5.01473603,25.34403 C5.01473603,24.88323 5.41822054,24.48003 5.87934569,24.48003 L25.0160395,24.48003 C25.4771647,24.48003 25.8806492,24.88323 25.8806492,25.34403 C25.8806492,25.80483 25.4771647,26.20803 25.0160395,26.20803" id="Fill-5" fill="#4A4A4A" mask="url(#mask-2)"></path>
                    <path d="M17.3497963,30.0672375 L5.87930817,30.0672375 C5.41818301,30.0672375 5.01469851,29.6640375 5.01469851,29.2032375 C5.01469851,28.7424375 5.41818301,28.3392375 5.87930817,28.3392375 L17.3497963,28.3392375 C17.8109965,28.3392375 18.214481,28.7424375 18.214481,29.2032375 C18.214481,29.6640375 17.8109965,30.0672375 17.3497963,30.0672375" id="Fill-6" fill="#4A4A4A" mask="url(#mask-2)"></path>
                    <path d="M36.6594346,42.393675 L10.8940667,42.393675 L10.8940667,40.032075 L32.7975115,40.032075 C33.6044805,40.032075 34.2385276,39.3984 34.2385276,38.592075 L34.2385276,10.656075 L36.6594346,10.656075 L36.6594346,42.393675 Z M6.74394034,38.304075 L6.74394034,36.000075 L28.6473851,36.000075 C29.4543541,36.000075 30.0884012,35.366475 30.0884012,34.560075 L30.0884012,6.566475 L32.5093082,6.566475 L32.5093082,38.304075 L6.74394034,38.304075 Z M2.59381397,34.272 L28.3591819,34.272 L28.3591819,2.5344 L2.59381397,2.5344 L2.59381397,34.272 Z M35.1031372,8.064 L35.1031372,6.336 C35.1031372,5.0688 34.0656056,4.032075 32.7975115,4.032075 L30.9530108,4.032075 L30.9530108,2.304075 C30.9530108,1.036875 29.9155543,0 28.6473851,0 L2.30561075,0 C1.03751658,0 -1.50105843e-05,1.036875 -1.50105843e-05,2.304075 L-1.50105843e-05,34.560075 C-1.50105843e-05,35.8272 1.03751658,36.864 2.30561075,36.864 L4.15011136,36.864 L4.15011136,38.592075 C4.15011136,39.859275 5.18764295,40.896 6.45573712,40.896 L8.30023773,40.896 L8.30023773,42.624 C8.30023773,43.891275 9.33776932,44.928075 10.6058635,44.928075 L36.9476378,44.928075 C38.215732,44.928075 39.2532636,43.891275 39.2532636,42.624 L39.2532636,10.368075 C39.2532636,9.100875 38.215732,8.064 36.9476378,8.064 L35.1031372,8.064 Z" id="Fill-7" fill="#4A4A4A" mask="url(#mask-2)"></path>
                </g>
            </g>
        </g>
    </g>
</svg>