<?xml version="1.0" encoding="UTF-8" standalone="no"?>
<svg width="25px" height="25px" viewBox="0 0 25 25" version="1.1" xmlns="http://www.w3.org/2000/svg" xmlns:xlink="http://www.w3.org/1999/xlink">
    <!-- Generator: Sketch 43.1 (39012) - http://www.bohemiancoding.com/sketch -->
    <title>Group 16</title>
    <desc>Created with Sketch.</desc>
    <defs></defs>
    <g id="Page-1" stroke="none" stroke-width="1" fill="none" fill-rule="evenodd">
        <g id="Header_Cliente-persona" transform="translate(-171.000000, -152.000000)">
            <g id="Group-16" transform="translate(171.000000, 152.000000)">
                <circle id="Oval" fill="#FCBD1B" cx="12.5" cy="12.5" r="12.5"></circle>
                <path d="M19.363901,8.0340876 C19.1267925,7.44316738 18.7158043,7.09343119 18.058069,7.08235707 C17.3725747,7.07076788 16.9074821,7.40672579 16.6372169,8.14714665 C15.8036742,10.4304758 14.9802843,12.7177968 14.149826,15.0021561 C14.0882677,15.1717446 14.0372476,15.3229193 13.9959946,15.4617321 C13.967593,15.5505826 13.9442034,15.6382742 13.9277536,15.7245493 C13.8659383,16.0071969 13.8642676,16.231641 13.9326371,16.4396027 C14.0249103,16.8414902 14.2767979,17.1659877 14.6655532,17.3519299 C14.678019,17.3628753 14.6888142,17.3729193 14.7015371,17.3841221 L14.7384207,17.3841221 C14.7515291,17.3895304 14.7636094,17.3960977 14.7771034,17.4012484 C15.1576337,17.5476586 15.5269833,17.5356831 15.8476261,17.3841221 L15.8581642,17.3841221 C15.8622767,17.3805166 15.8665177,17.3770399 15.8706301,17.3735631 C16.2147909,17.2024293 16.5006063,16.8678879 16.6787269,16.3871938 C17.5384864,14.065749 18.3887359,11.7408276 19.2293467,9.41255808 C19.3082544,9.19377981 19.3653147,9.00049778 19.399628,8.82562969 C19.4714673,8.56049464 19.4706963,8.2998665 19.363901,8.0340876" id="Fill-1" fill="#FFFFFF"></path>
                <path d="M14.3974084,10.8731573 C14.1602999,10.2822371 13.7493117,9.93250092 13.0915764,9.9214268 C12.4060821,9.9098376 11.9409895,10.2457955 11.6707243,10.9862164 C10.8371817,13.2696743 10.0137917,15.5568665 9.18333341,17.8412258 C9.12177514,18.0108144 9.07075503,18.161989 9.029502,18.3008018 C9.00110038,18.3896523 8.97771081,18.4773439 8.961261,18.563619 C8.89944571,18.8462666 8.89777502,19.0707107 8.96614454,19.2786724 C9.05841768,19.68056 9.31030536,20.0050575 9.69906059,20.1909997 C9.71152646,20.201945 9.72232164,20.211989 9.73504454,20.2231919 L9.77192809,20.2231919 C9.78503653,20.2286002 9.79711686,20.2351674 9.81061085,20.2403181 C10.1911412,20.3867283 10.5604908,20.3747528 10.8811335,20.2231919 L10.8916717,20.2231919 C10.8957841,20.2195863 10.9000251,20.2161096 10.9041375,20.2126328 C11.2482984,20.041499 11.5341138,19.7069576 11.7122343,19.2262635 C12.5719938,16.9048188 13.4222433,14.580026 14.2628542,12.2516278 C14.3417618,12.0328495 14.3988221,11.8395675 14.4331354,11.6646994 C14.5049748,11.3995644 14.5042037,11.1389362 14.3974084,10.8731573" id="Fill-4" fill="#FFFFFF"></path>
                <path d="M11.4825539,8.05860519 C11.2454453,7.46768496 10.8344572,7.11794878 10.1767219,7.10687466 C9.49122754,7.09528547 9.02613493,7.43124338 8.75586973,8.17166423 C7.92232712,10.4551221 7.09893713,12.7423144 6.26847886,15.0266737 C6.20692059,15.1962622 6.15590048,15.3474368 6.11464745,15.4862497 C6.08624583,15.5751002 6.06285626,15.6627917 6.04640645,15.7490669 C5.98459116,16.0317145 5.98292047,16.2561586 6.05128999,16.4641203 C6.14356313,16.8660078 6.39545081,17.1905053 6.78420604,17.3764475 C6.79667191,17.3873929 6.80746709,17.3974368 6.82018999,17.4086397 L6.85707354,17.4086397 C6.87018199,17.414048 6.88226231,17.4206152 6.8957563,17.425766 C7.27628662,17.5721762 7.64563621,17.5602007 7.96627895,17.4086397 L7.97681711,17.4086397 C7.98092956,17.4050342 7.98517053,17.4015575 7.98928298,17.3980807 C8.3334438,17.2269469 8.61925921,16.8924054 8.79737979,16.4117113 C9.65713928,14.0902666 10.5073887,11.7654739 11.3479996,9.43707567 C11.4269073,9.2182974 11.4839676,9.02501537 11.5182808,8.85014727 C11.5901202,8.58501222 11.5893491,8.32438408 11.4825539,8.05860519" id="Fill-6" fill="#FFFFFF"></path>
            </g>
        </g>
    </g>
</svg>