<?xml version="1.0" encoding="UTF-8"?>
<svg width="15px" height="16px" viewBox="0 0 15 16" version="1.1" xmlns="http://www.w3.org/2000/svg" xmlns:xlink="http://www.w3.org/1999/xlink">
    <!-- Generator: Sketch 48.2 (47327) - http://www.bohemiancoding.com/sketch -->
    <title>noun_1272062_cc</title>
    <desc>Created with Sketch.</desc>
    <defs></defs>
    <g id="07_sucursales_tablet_768" stroke="none" stroke-width="1" fill="none" fill-rule="evenodd" transform="translate(-32.000000, -534.000000)">
        <g id="Group-2" transform="translate(32.000000, 534.000000)" fill="#373737" fill-rule="nonzero">
            <g id="noun_1272062_cc">
                <path d="M13.5326316,0.109473684 L1.20421053,0.109473684 C0.803138078,0.10764704 0.432798009,0.324053646 0.23749769,0.67436812 C0.0421973709,1.02468259 0.0528341029,1.45348377 0.265263158,1.79368421 L4.70526316,9.07368421 L4.70526316,13.2252632 C4.7022131,14.3117855 5.36207181,15.2903118 6.37052632,15.6947368 C7.19145989,16.0265154 8.12360644,15.9285866 8.85766598,15.4334447 C9.59172552,14.9383027 10.0316923,14.110706 10.0315789,13.2252632 L10.0315789,9.07368421 L14.4673684,1.79368421 C14.6793922,1.45412388 14.6904123,1.02624062 14.4961488,0.67621635 C14.3018854,0.326192082 13.9329505,0.109183874 13.5326316,0.109473684 Z M8.48,8.4 C8.39547659,8.5321395 8.34954034,8.68526031 8.34736842,8.84210526 L8.34736842,13.2252632 C8.34721591,13.5505434 8.1855037,13.8545035 7.91583203,14.0363948 C7.64616036,14.218286 7.30375408,14.2543494 7.00210526,14.1326316 C6.63447426,13.9825464 6.39463552,13.6244538 6.39578947,13.2273684 L6.39578947,8.84210526 C6.39600107,8.68770654 6.35376002,8.53622141 6.27368421,8.40421053 L2.24210526,1.79368421 L12.4947368,1.79368421 L8.48,8.4 Z" id="Shape"></path>
            </g>
        </g>
    </g>
</svg>