<?xml version="1.0" encoding="UTF-8" standalone="no"?>
<svg width="28px" height="35px" viewBox="0 0 28 35" version="1.1" xmlns="http://www.w3.org/2000/svg" xmlns:xlink="http://www.w3.org/1999/xlink">
    <!-- Generator: Sketch 43.1 (39012) - http://www.bohemiancoding.com/sketch -->
    <title>Group 10</title>
    <desc>Created with Sketch.</desc>
    <defs></defs>
    <g id="Home-desktop" stroke="none" stroke-width="1" fill="none" fill-rule="evenodd">
        <g id="01_home_desktop_servicio_cliente" transform="translate(-501.000000, -1760.000000)">
            <g id="Group-10" transform="translate(501.000000, 1760.000000)">
                <path d="M20.0652048,0.616341463 L7.53597253,0.616341463 C3.66546003,0.616341463 0.527560976,3.75385493 0.527560976,7.62436744 L0.527560976,20.1532141 C0.527560976,24.0237266 3.66546003,27.1612401 7.53597253,27.1612401 L9.68021641,27.1612401 L13.8009742,34.7626829 L17.9213465,27.1612401 L20.0655904,27.1612401 C23.9364884,27.1612401 27.0740019,24.0237266 27.0740019,20.1532141 L27.0740019,7.62398185 C27.0732307,3.75346935 23.9361029,0.616341463 20.0652048,0.616341463 Z" id="Shape" fill="#4A4A4A" fill-rule="nonzero"></path>
                <g id="Group-9" transform="translate(7.682927, 8.536585)" fill="#FFFFFF">
                    <path d="M13.3053974,1.05111257 C13.0693268,0.462779237 12.6601379,0.114574109 12.005282,0.103548468 C11.3227885,0.0920100063 10.859732,0.426497186 10.5906499,1.16367667 C9.76075635,3.43701001 8.94097094,5.7143177 8.1141482,7.98867667 C8.05285942,8.15752283 8.00206266,8.30803565 7.96099023,8.44624078 C7.93271294,8.53470231 7.90942576,8.62201001 7.89304797,8.70790744 C7.83150328,8.9893177 7.82983991,9.21277924 7.89791012,9.41983052 C7.98977932,9.81995872 8.2405643,10.1430356 8.62761766,10.3281639 C8.64002896,10.3390613 8.65077689,10.3490613 8.66344409,10.3602151 L8.70016617,10.3602151 C8.71321723,10.3655997 8.72524467,10.3721382 8.73867958,10.3772664 C9.11754404,10.5230356 9.48527672,10.5111126 9.80451577,10.3602151 L9.8150078,10.3602151 C9.81910224,10.3566254 9.82332464,10.3531639 9.82741909,10.3497023 C10.1700733,10.1793177 10.4546375,9.84624078 10.6319783,9.36765103 C11.487974,7.05636898 12.3345012,4.74162539 13.1714321,2.42354847 C13.2499944,2.20572795 13.3068049,2.01329206 13.3409679,1.83918949 C13.4124928,1.57521513 13.4117251,1.31572795 13.3053974,1.05111257" id="Fill-1"></path>
                    <path d="M8.36064681,3.8777536 C8.12457625,3.28942026 7.71538728,2.94121513 7.06053138,2.93018949 C6.37803796,2.91865103 5.9149814,3.25313821 5.64589934,3.9903177 C4.81600576,6.26377924 3.99622035,8.54095872 3.16939761,10.8153177 C3.10810883,10.9841639 3.05731208,11.1346767 3.01623964,11.2728818 C2.98796235,11.3613433 2.96467518,11.448651 2.94829738,11.5345485 C2.8867527,11.8159587 2.88508933,12.0394203 2.95315954,12.2464715 C3.04502873,12.6465997 3.29581372,12.9696767 3.68286707,13.1548049 C3.69527837,13.1657023 3.7060263,13.1757023 3.7186935,13.1868562 L3.75541559,13.1868562 C3.76846664,13.1922408 3.78049409,13.1987792 3.793929,13.2039074 C4.17279346,13.3496767 4.54052613,13.3377536 4.85976518,13.1868562 L4.87025721,13.1868562 C4.87435166,13.1832664 4.87857406,13.1798049 4.88266851,13.1763433 C5.22532269,13.0059587 5.50988687,12.6728818 5.68722768,12.1942921 C6.54322337,9.88301001 7.38975065,7.56839462 8.22668156,5.25018949 C8.3052438,5.03236898 8.36205427,4.83993308 8.39621733,4.66583052 C8.46774223,4.40185616 8.46697452,4.14236898 8.36064681,3.8777536" id="Fill-4"></path>
                    <path d="M5.45855272,1.07552283 C5.22248216,0.487189493 4.81329319,0.138984365 4.1584373,0.127958724 C3.47594387,0.116420263 3.01288731,0.450907442 2.74380526,1.18808693 C1.91391168,3.46154847 1.09412627,5.73872795 0.267303527,8.01308693 C0.206014747,8.18193308 0.155217993,8.3324459 0.114145554,8.47065103 C0.0858682672,8.55911257 0.0625810899,8.64642026 0.046203295,8.7323177 C-0.0153413876,9.01372795 -0.0170047574,9.23718949 0.0510654529,9.44424078 C0.142934646,9.84436898 0.393719632,10.1674459 0.780772989,10.3525741 C0.793184287,10.3634715 0.803932215,10.3734715 0.816599416,10.3846254 L0.853321503,10.3846254 C0.866372558,10.39001 0.878400001,10.3965485 0.891834911,10.4016767 C1.27069937,10.5474459 1.63843205,10.5355228 1.9576711,10.3846254 L1.96816312,10.3846254 C1.97225757,10.3810356 1.97647997,10.3775741 1.98057442,10.3741126 C2.3232286,10.203728 2.60779279,9.87065103 2.7851336,9.39206129 C3.64112929,7.08077924 4.48765656,4.76616385 5.32458748,2.44795872 C5.40314971,2.23013821 5.45996019,2.03770231 5.49412325,1.86359975 C5.56564815,1.59962539 5.56488044,1.34013821 5.45855272,1.07552283" id="Fill-6"></path>
                </g>
            </g>
        </g>
    </g>
</svg>