<?xml version="1.0" encoding="UTF-8" standalone="no"?>
<svg width="42px" height="45px" viewBox="0 0 42 45" version="1.1" xmlns="http://www.w3.org/2000/svg" xmlns:xlink="http://www.w3.org/1999/xlink">
    <!-- Generator: Sketch 43.1 (39012) - http://www.bohemiancoding.com/sketch -->
    <title>Page 1</title>
    <desc>Created with Sketch.</desc>
    <defs></defs>
    <g id="Home-desktop" stroke="none" stroke-width="1" fill="none" fill-rule="evenodd">
        <g id="01_home_desktop" transform="translate(-204.000000, -521.000000)" fill="#4A4A4A">
            <g id="Page-1" transform="translate(204.000000, 521.000000)">
                <g id="Group-3" transform="translate(0.000000, 0.060571)">
                    <path d="M1.9957337,10.4683777 L1.9957337,35.2580788 L8.9805163,38.048731 L8.9805163,30.4559592 L12.9718207,31.9527799 L12.9718207,39.6390571 L19.9565217,42.4299538 L19.9565217,17.6557418 L12.9718207,14.8649266 L12.9718207,22.4733505 L8.9805163,20.9766114 L8.9805163,13.2590299 L1.9957337,10.4682962 L1.9957337,10.4683777 Z M39.9130435,10.4683777 L21.9522554,17.6558234 L21.9522554,42.4299538 L39.9130435,35.2580788 L39.9130435,10.4683777 Z M30.7455978,6.00930163 L13.9228533,13.0876712 L20.9544293,15.8940571 L38.2136413,9.00277989 L30.7455978,6.00930163 Z M20.9544293,2.09593207 L3.69513587,9.00277989 L10.0250543,11.5285679 L26.3177446,4.24753533 L20.9544293,2.09593207 Z M20.9855707,0.0223451087 C21.1132337,0.0286222826 21.2297283,0.0549538043 21.3285326,0.0847092391 L41.2850543,8.06731793 C41.6541848,8.21666576 41.9128533,8.60470924 41.9087772,9.00277989 L41.9087772,35.9440027 C41.9067391,36.3369375 41.6492935,36.7165842 41.2850543,36.8639755 L21.3285326,44.8465842 C21.0915489,44.9424538 20.8172283,44.9424538 20.5802446,44.8465842 L0.623722826,36.8639755 C0.259402174,36.7165842 0.00211956522,36.3369375 8.15217392e-05,35.9440027 L8.15217392e-05,9.00277989 C-0.00391304348,8.60470924 0.254673913,8.21658424 0.623722826,8.06731793 L20.5802446,0.0847092391 C20.7190761,0.0298451087 20.8579076,0.0160679348 20.9855707,0.0223451087 Z" id="Fill-1"></path>
                </g>
                <polygon id="Fill-4" points="8.9804837 38.1093261 12.971788 39.6996522 12.971788 32.013375 8.9804837 30.5164728"></polygon>
                <polygon id="Fill-6" points="8.9804837 21.0372147 12.971788 22.5338723 12.971788 13.6344701 30.7455652 6.06990489 26.317712 4.30813859 8.9804837 12.0855571"></polygon>
            </g>
        </g>
    </g>
</svg>