<?xml version="1.0" encoding="UTF-8" standalone="no"?>
<svg width="60px" height="60px" viewBox="0 0 60 60" version="1.1" xmlns="http://www.w3.org/2000/svg" xmlns:xlink="http://www.w3.org/1999/xlink">
    <!-- Generator: Sketch 44.1 (41455) - http://www.bohemiancoding.com/sketch -->
    <title>facebook</title>
    <desc>Created with Sketch.</desc>
    <defs></defs>
    <g id="Symbols" stroke="none" stroke-width="1" fill="none" fill-rule="evenodd">
        <g id="Footer_768px" transform="translate(-472.000000, -312.000000)">
            <g id="facebook" transform="translate(472.000000, 312.000000)">
                <rect id="Rectangle" x="0" y="0" width="60" height="60"></rect>
                <path d="M30,60 C13.4314575,60 0,46.5685425 0,30 C0,13.4314575 13.4314575,0 30,0 C46.5685425,0 60,13.4314575 60,30 C60,46.5685425 46.5685425,60 30,60 Z M31.7927805,47.7272727 L31.7917644,47.7272727 L31.7917644,32.043475 L36.2298868,32.043475 L36.8181818,26.6393645 L31.7917644,26.6393645 L31.8009089,23.9343399 C31.8009089,22.5249162 31.9380761,21.7697264 34.0138738,21.7697264 L36.7877002,21.7697264 L36.7877002,16.3636364 L32.3495779,16.3636364 C27.0173283,16.3636364 25.1416933,18.9865105 25.1416933,23.3949186 L25.1416933,26.6393645 L21.8181818,26.6393645 L21.8181818,32.043475 L25.1416933,32.043475 L25.1416933,47.7272727 L31.7927805,47.7272727 Z" id="Combined-Shape" fill="#D8D8D8"></path>
            </g>
        </g>
    </g>
</svg>