<?xml version="1.0" encoding="UTF-8" standalone="no"?>
<svg width="60px" height="60px" viewBox="0 0 60 60" version="1.1" xmlns="http://www.w3.org/2000/svg" xmlns:xlink="http://www.w3.org/1999/xlink">
    <!-- Generator: Sketch 44.1 (41455) - http://www.bohemiancoding.com/sketch -->
    <title>Combined Shape</title>
    <desc>Created with Sketch.</desc>
    <defs></defs>
    <g id="Symbols" stroke="none" stroke-width="1" fill="none" fill-rule="evenodd">
        <g id="Footer_768px" transform="translate(-551.000000, -312.000000)" fill="#D8D8D8">
            <path d="M581,372 C564.431458,372 551,358.568542 551,342 C551,325.431458 564.431458,312 581,312 C597.568542,312 611,325.431458 611,342 C611,358.568542 597.568542,372 581,372 Z M592.626567,334.971452 C593.840129,334.205626 594.771311,332.991294 595.208327,331.544732 C594.072084,332.255604 592.816501,332.7697 591.476877,333.048022 C590.407866,331.842554 588.879988,331.090909 587.18907,331.090909 C583.945061,331.090909 581.316237,333.865258 581.316237,337.28666 C581.316237,337.772392 581.364981,338.245716 581.465831,338.697766 C576.58469,338.438945 572.256543,335.974827 569.357105,332.223694 C568.851174,333.141977 568.562071,334.205626 568.562071,335.340184 C568.562071,337.488753 569.599145,339.385592 571.175767,340.498877 C570.212649,340.466968 569.30668,340.185101 568.513327,339.724187 L568.513327,339.800415 C568.513327,342.803448 570.53705,345.30834 573.228065,345.875619 C572.7339,346.020984 572.216203,346.093667 571.678336,346.093667 C571.300149,346.093667 570.930365,346.056439 570.574029,345.983756 C571.320319,348.444329 573.490275,350.238349 576.061951,350.286213 C574.049993,351.94905 571.516976,352.938243 568.765452,352.938243 C568.291457,352.938243 567.822504,352.911652 567.363636,352.853151 C569.963886,354.609943 573.051578,355.636364 576.369543,355.636364 C587.177304,355.636364 593.083754,346.194713 593.083754,338.006395 C593.083754,337.736937 593.080392,337.469253 593.068626,337.205113 C594.216635,336.331149 595.215051,335.239137 596,333.996441 C594.946117,334.489265 593.813235,334.822541 592.626567,334.971452 Z" id="Combined-Shape"></path>
        </g>
    </g>
</svg>