<?xml version="1.0" encoding="UTF-8"?>
<svg width="15px" height="16px" viewBox="0 0 15 16" version="1.1" xmlns="http://www.w3.org/2000/svg" xmlns:xlink="http://www.w3.org/1999/xlink">
    <!-- Generator: Sketch 48.2 (47327) - http://www.bohemiancoding.com/sketch -->
    <title>icn-download</title>
    <desc>Created with Sketch.</desc>
    <defs></defs>
    <g id="02-CXP-Desktop_MODAL-certificado" stroke="none" stroke-width="1" fill="none" fill-rule="evenodd" transform="translate(-860.000000, -360.000000)">
        <g id="Group-21" transform="translate(860.000000, 360.000000)" fill="#373737" fill-rule="nonzero">
            <g id="icn-download">
                <path d="M12.9220457,3 C14.080677,3 15,3.9071565 15,5.06647399 L15,13.933526 C15,15.0726737 14.0706784,16 12.9220457,16 L2.07795432,16 C0.929321574,16 0,15.0726737 0,13.933526 L0,5.06647399 C0,3.92732633 0.929321574,3 2.07795432,3 L5.46673287,3 L5.46673287,4.60809249 L2.07795432,4.60809249 C1.80501932,4.60809249 1.5938431,4.81470019 1.5938431,5.06647399 L1.5938431,13.933526 C1.5938431,14.1852998 1.80501932,14.3919075 2.07795432,14.3919075 L12.9220457,14.3919075 C13.1949807,14.3919075 13.4061569,14.1852998 13.4061569,13.933526 L13.4061569,5.06647399 C13.4061569,4.81470019 13.1949807,4.60809249 12.9220457,4.60809249 L9.53326713,4.60809249 L9.53326713,3 L12.9220457,3 Z" id="Shape"></path>
                <path d="M4.5,7.73086919 L5.60752326,6.66181494 L6.66487737,7.56570137 L6.66487737,0 L8.30258629,0 L8.30258629,7.58019607 L9.3940606,6.69271219 L10.5,7.76023759 L10.3491301,7.88678468 L8.03626727,9.82530949 C7.8733467,9.9351215 7.67739741,10 7.48373183,10 C7.25337575,10 7.0640243,9.94649357 6.91069682,9.80952161 L4.5,7.73086919 Z" id="Shape"></path>
            </g>
        </g>
    </g>
</svg>