<?xml version="1.0" encoding="UTF-8"?>
<svg width="24px" height="30px" viewBox="0 0 24 30" version="1.1" xmlns="http://www.w3.org/2000/svg" xmlns:xlink="http://www.w3.org/1999/xlink">
    <!-- Generator: Sketch 48.2 (47327) - http://www.bohemiancoding.com/sketch -->
    <title>Group 10</title>
    <desc>Created with Sketch.</desc>
    <defs></defs>
    <g id="04_ficha_sucursales_992px" stroke="none" stroke-width="1" fill="none" fill-rule="evenodd" transform="translate(-71.000000, -279.000000)">
        <g id="Group-3" transform="translate(71.000000, 250.000000)">
            <g id="Group-Copy-3" transform="translate(0.000000, 29.000000)">
                <g id="Group-10">
                    <path d="M17.198747,0.528292683 L6.45940503,0.528292683 C3.14182289,0.528292683 0.452195122,3.21758994 0.452195122,6.53517209 L0.452195122,17.2741835 C0.452195122,20.5917657 3.14182289,23.2810629 6.45940503,23.2810629 L8.29732835,23.2810629 L11.8294065,29.7965854 L15.3611541,23.2810629 L17.1990775,23.2810629 C20.5169901,23.2810629 23.2062874,20.5917657 23.2062874,17.2741835 L23.2062874,6.53484159 C23.2056264,3.21725944 20.5166596,0.528292683 17.198747,0.528292683 Z" id="Shape" fill="#373737" fill-rule="nonzero"></path>
                    <g id="Group-9" transform="translate(6.585366, 7.317073)" fill="#FFFFFF">
                        <path d="M11.4046263,0.900953632 C11.2022801,0.396667917 10.8515467,0.098206379 10.2902417,0.0887558295 C9.70524732,0.0788657196 9.3083417,0.365569016 9.07769994,0.997437148 C8.36636259,2.94600858 7.66368938,4.8979866 6.95498417,6.84743715 C6.90245093,6.99216242 6.85891086,7.12117341 6.82370591,7.23963495 C6.79946823,7.31545913 6.7795078,7.39029429 6.76546969,7.46392066 C6.7127171,7.70512946 6.71129136,7.89666792 6.76963725,8.07414044 C6.84838227,8.41710748 7.06334083,8.69403055 7.39510085,8.85271187 C7.40573911,8.86205253 7.41495162,8.87062396 7.42580922,8.8801844 L7.45728529,8.8801844 C7.46847191,8.88479979 7.47878115,8.89040418 7.49029679,8.89479979 C7.81503775,9.01974484 8.13023719,9.00952506 8.40387066,8.8801844 L8.41286382,8.8801844 C8.41637335,8.87710748 8.41999255,8.87414044 8.42350208,8.87117341 C8.71720566,8.72512946 8.96111782,8.43963495 9.11312423,8.02941517 C9.84683482,6.04831627 10.5724296,4.06425034 11.289799,2.07732726 C11.357138,1.89062396 11.4058327,1.72567891 11.4351154,1.57644814 C11.4964224,1.3501844 11.4957644,1.12776682 11.4046263,0.900953632" id="Fill-1"></path>
                        <path d="M7.16626869,3.3237888 C6.9639225,2.81950308 6.61318909,2.52104154 6.05188404,2.51159099 C5.46688968,2.50170088 5.06998405,2.78840418 4.83934229,3.42027231 C4.12800494,5.36895363 3.42533173,7.32082176 2.71662653,9.27027231 C2.66409329,9.41499759 2.62055321,9.54400858 2.58534826,9.66247012 C2.56111059,9.73829429 2.54115015,9.81312946 2.52711204,9.88675583 C2.47435946,10.1279646 2.47293371,10.3195031 2.5312796,10.4969756 C2.61002463,10.8399426 2.82498319,11.1168657 3.15674321,11.275547 C3.16738146,11.2848877 3.17659397,11.2934591 3.18745157,11.3030196 L3.21892765,11.3030196 C3.23011427,11.307635 3.2404235,11.3132393 3.25193914,11.317635 C3.57668011,11.44258 3.89187954,11.4323602 4.16551302,11.3030196 L4.17450618,11.3030196 C4.17801571,11.2999426 4.18163491,11.2969756 4.18514443,11.2940086 C4.47884802,11.1479646 4.72276018,10.8624701 4.87476659,10.4522503 C5.60847718,8.47115143 6.33407199,6.48719539 7.05144134,4.50016242 C7.1187804,4.31345913 7.16747509,4.14851407 7.19675771,3.9992833 C7.25806477,3.77301957 7.25740673,3.55060198 7.16626869,3.3237888" id="Fill-4"></path>
                        <path d="M4.67875948,0.921876709 C4.47641328,0.417590994 4.12567988,0.119129456 3.56437483,0.109678906 C2.97938046,0.0997887966 2.58247484,0.386492093 2.35183308,1.01836023 C1.64049572,2.96704154 0.937822516,4.91890968 0.229117309,6.86836023 C0.176584069,7.0130855 0.133043994,7.14209649 0.0978390461,7.26055803 C0.0736013718,7.3363822 0.0536409342,7.41121737 0.0396028243,7.48484374 C-0.0131497608,7.72605253 -0.0145755064,7.91759099 0.0437703882,8.09506352 C0.122515411,8.43803055 0.33747397,8.71495363 0.669233991,8.87363495 C0.679872246,8.88297561 0.689084756,8.89154704 0.699942356,8.90110748 L0.731418431,8.90110748 C0.74260505,8.90572286 0.752914287,8.91132726 0.764429924,8.91572286 C1.08917089,9.04066792 1.40437033,9.03044814 1.6780038,8.90110748 L1.68699696,8.90110748 C1.69050649,8.89803055 1.69412569,8.89506352 1.69763522,8.89209649 C1.9913388,8.74605253 2.23525096,8.46055803 2.38725737,8.05033825 C3.12096796,6.06923935 3.84656277,4.0852833 4.56393212,2.09825034 C4.63127118,1.91154704 4.67996588,1.74660198 4.7092485,1.59737121 C4.77055555,1.37110748 4.76989752,1.1486899 4.67875948,0.921876709" id="Fill-6"></path>
                    </g>
                </g>
            </g>
        </g>
    </g>
</svg>