<?xml version="1.0" encoding="UTF-8"?>
<svg width="256px" height="124px" viewBox="0 0 256 124" version="1.1" xmlns="http://www.w3.org/2000/svg" xmlns:xlink="http://www.w3.org/1999/xlink">
    <!-- Generator: Sketch 48.2 (47327) - http://www.bohemiancoding.com/sketch -->
    <title>Group 5</title>
    <desc>Created with Sketch.</desc>
    <defs></defs>
    <g id="01_tracking_desktop_busqueda_inactivo" stroke="none" stroke-width="1" fill="none" fill-rule="evenodd" transform="translate(-286.000000, -1121.000000)">
        <g id="Group-5" transform="translate(286.000000, 1121.000000)">
            <path d="M125.606997,70.0005106 C123.367669,72.3362512 121.99144,75.5072702 121.99144,79 C121.99144,86.1797017 127.806757,92 134.980313,92 C135.323479,92 135.663538,91.9866805 136,91.96053 C133.52761,95.0336383 129.737465,97 125.488444,97 C118.038982,97 112,90.9558441 112,83.5 C112,76.0441559 118.038982,70 125.488444,70 C125.528002,70 125.56752,70.0001704 125.606997,70.0005106 Z" id="Combined-Shape" fill="#FFFFFF"></path>
            <g id="Group-9">
                <g id="Group-2" transform="translate(132.000000, 0.000000)">
                    <g id="Page-1">
                        <path d="M10.334625,116.25 C8.908625,116.25 7.75,115.09525 7.75,113.665375 C7.75,112.239375 8.908625,111.084625 10.334625,111.084625 C11.760625,111.084625 12.91925,112.239375 12.91925,113.665375 C12.91925,115.09525 11.760625,116.25 10.334625,116.25 L10.334625,116.25 Z M103.334625,0 L0,0 L0,124 L118.834625,124 L118.834625,15.5 L103.334625,0 Z" id="Fill-1" fill="#656D78"></path>
                        <polygon id="Fill-3" fill="#000000" opacity="0.157532649" points="108.294625 0 103.12925 0 118.62925 15.5 118.62925 124 123.794625 124 123.794625 15.5"></polygon>
                        <path d="M82.6673125,43.9173125 C82.6673125,45.3433125 81.5125625,46.5019375 80.0826875,46.5019375 L18.0826875,46.5019375 C16.6566875,46.5019375 15.5019375,45.3433125 15.5019375,43.9173125 L15.5019375,2.5826875 C15.5019375,1.1566875 16.6566875,0.0019375 18.0826875,0.0019375 L80.0826875,0.0019375 C81.5125625,0.0019375 82.6673125,1.1566875 82.6673125,2.5826875 L82.6673125,43.9173125 Z" id="Fill-5" fill="#434A54"></path>
                        <path d="M93,43.9173125 C93,45.3433125 91.84525,46.5019375 90.415375,46.5019375 L38.75,46.5019375 C37.324,46.5019375 36.165375,45.3433125 36.165375,43.9173125 L36.165375,2.5826875 C36.165375,1.1566875 37.324,0.0019375 38.75,0.0019375 L90.415375,0.0019375 C91.84525,0.0019375 93,1.1566875 93,2.5826875 L93,43.9173125 Z" id="Fill-7" fill="#FFFFFF"></path>
                        <path d="M74.9173125,10.3326875 C73.4913125,10.3326875 72.3326875,11.4913125 72.3326875,12.9173125 L72.3326875,33.5826875 C72.3326875,35.0086875 73.4913125,36.1673125 74.9173125,36.1673125 C76.3433125,36.1673125 77.5019375,35.0086875 77.5019375,33.5826875 L77.5019375,12.9173125 C77.5019375,11.4913125 76.3433125,10.3326875 74.9173125,10.3326875" id="Fill-9" fill="#434A54"></path>
                        <path d="M93,82.6673125 L25.834625,82.6673125 C24.408625,82.6673125 23.25,83.8220625 23.25,85.2519375 C23.25,86.6779375 24.408625,87.8326875 25.834625,87.8326875 L93,87.8326875 C94.426,87.8326875 95.584625,86.6779375 95.584625,85.2519375 C95.584625,83.8220625 94.426,82.6673125 93,82.6673125" id="Fill-11" fill="#434A54"></path>
                        <path d="M93,98.1673125 L25.834625,98.1673125 C24.408625,98.1673125 23.25,99.3220625 23.25,100.751937 C23.25,102.177937 24.408625,103.332687 25.834625,103.332687 L93,103.332687 C94.426,103.332687 95.584625,102.177937 95.584625,100.751937 C95.584625,99.3220625 94.426,98.1673125 93,98.1673125" id="Fill-13" fill="#434A54"></path>
                        <path d="M25.834625,72.3326875 L93,72.3326875 C94.426,72.3326875 95.584625,71.1779375 95.584625,69.7480625 C95.584625,68.3220625 94.426,67.1673125 93,67.1673125 L25.834625,67.1673125 C24.408625,67.1673125 23.25,68.3220625 23.25,69.7480625 C23.25,71.1779375 24.408625,72.3326875 25.834625,72.3326875" id="Fill-15" fill="#434A54"></path>
                    </g>
                </g>
                <rect id="Rectangle-11" fill="#FFFFFF" x="0" y="48" width="141" height="39" rx="4"></rect>
                <path d="M21.414,62.91 L14.286,62.91 L14.286,60.446 L24.01,60.446 L24.78,61.964 L16.992,76 L14.198,76 L21.414,62.91 Z M37.122,63.526 L34.878,64.428 C34.372,63.35 33.096,62.844 31.754,62.844 C30.082,62.844 28.454,63.57 28.454,65.066 L28.454,67.288 C29.312,66.166 30.764,65.902 31.754,65.902 C34.658,65.924 37.43,67.486 37.43,70.588 L37.43,71.49 C37.43,74.592 34.658,76.154 31.754,76.154 C28.85,76.176 26.034,74.614 25.99,71.49 L25.99,65.044 C25.99,61.92 28.85,60.358 31.754,60.38 C33.976,60.38 36.022,61.238 37.122,63.526 Z M34.966,70.61 C34.966,69.136 33.404,68.366 31.754,68.366 C30.082,68.366 28.454,69.114 28.454,70.61 L28.454,71.468 C28.454,72.964 30.082,73.712 31.754,73.712 C33.404,73.712 34.966,72.942 34.966,71.468 L34.966,70.61 Z M49.156,60.556 L49.156,70.06 L50.3,70.06 L50.3,72.392 L49.156,72.392 L49.156,75.956 L46.692,75.956 L46.692,72.392 L40.312,72.392 L38.882,70.478 L46.824,60.556 L49.156,60.556 Z M46.758,70.06 L46.802,65.946 C46.802,65.946 47.154,63.284 47.176,63.284 L46.846,63.284 C46.846,63.284 45.614,65.418 45.526,65.55 L42.094,70.06 L46.758,70.06 Z M51.29,72.678 L53.534,71.622 C54.194,72.986 55.668,73.712 57.054,73.712 C58.638,73.712 60.178,72.964 60.178,71.446 C60.178,69.774 59.122,69.07 57.428,69.092 L55.624,69.092 L55.624,66.848 L57.428,66.848 C58.66,66.848 59.562,66.232 59.562,65 C59.562,63.68 58.352,63.086 57.076,63.086 C55.932,63.086 54.678,63.724 53.996,64.956 L51.862,63.856 C52.896,61.766 55.008,60.666 56.966,60.666 C59.518,60.666 61.982,62.074 61.982,65 C61.982,66.012 61.63,67.178 60.354,67.794 C62.18,68.52 62.642,69.95 62.642,71.468 C62.598,74.658 59.826,76.198 56.988,76.198 C54.766,76.198 52.412,75.032 51.29,72.678 Z M69.88,62.756 C68.384,62.734 67.13,63.636 66.514,64.978 L64.292,64.076 C65.326,61.656 67.548,60.248 69.968,60.314 C75.358,60.512 76.634,65.836 73.224,69.202 L68.67,73.514 L75.138,73.514 L75.138,75.978 L65.018,75.978 L64.27,74.262 L71.464,67.464 C73.268,65.462 73.158,62.954 69.88,62.756 Z M76.766,72.788 L78.812,71.776 C79.692,73.184 81.034,73.734 82.376,73.734 C84.07,73.734 85.676,72.986 85.676,71.49 L85.676,69.29 C85.016,70.28 83.498,70.61 82.376,70.61 C79.494,70.588 76.678,69.048 76.678,65.946 L76.678,65.022 C76.678,61.92 79.494,60.358 82.376,60.358 C85.28,60.336 88.096,61.898 88.14,65.022 L88.14,71.512 C88.14,74.636 85.258,76.176 82.376,76.176 C80.176,76.176 77.866,75.032 76.766,72.788 Z M79.164,65.044 L79.164,65.946 C79.164,67.42 80.726,68.168 82.376,68.168 C84.07,68.168 85.676,67.442 85.676,65.946 L85.676,65.044 C85.676,63.526 84.07,62.822 82.376,62.822 C80.726,62.822 79.164,63.548 79.164,65.044 Z M96.038,73.866 C97.49,73.866 99.206,72.986 99.206,71.314 C99.206,69.378 97.688,68.674 96.038,68.674 L95.664,68.674 C94.014,68.674 92.496,69.378 92.496,71.314 C92.496,72.986 94.212,73.866 95.664,73.866 L96.038,73.866 Z M95.664,76.132 C92.496,76.132 90.098,74.35 90.054,71.16 C90.054,69.95 90.648,68.256 92.254,67.53 C91.088,67.024 90.692,65.66 90.692,64.714 C90.714,61.634 93.156,60.446 95.664,60.446 L96.038,60.446 C98.546,60.446 101.01,61.7 101.01,64.714 C101.01,65.726 100.636,66.98 99.492,67.464 C101.208,68.146 101.67,69.664 101.67,71.16 C101.604,74.35 99.184,76.132 96.038,76.132 L95.664,76.132 Z M95.664,62.602 C94.366,62.602 93.112,63.35 93.112,64.648 C93.112,66.1 94.498,66.628 95.752,66.628 C97.006,66.628 98.568,66.1 98.568,64.648 C98.568,63.35 97.314,62.602 96.038,62.602 L95.664,62.602 Z M109.04,73.866 C110.492,73.866 112.208,72.986 112.208,71.314 C112.208,69.378 110.69,68.674 109.04,68.674 L108.666,68.674 C107.016,68.674 105.498,69.378 105.498,71.314 C105.498,72.986 107.214,73.866 108.666,73.866 L109.04,73.866 Z M108.666,76.132 C105.498,76.132 103.1,74.35 103.056,71.16 C103.056,69.95 103.65,68.256 105.256,67.53 C104.09,67.024 103.694,65.66 103.694,64.714 C103.716,61.634 106.158,60.446 108.666,60.446 L109.04,60.446 C111.548,60.446 114.012,61.7 114.012,64.714 C114.012,65.726 113.638,66.98 112.494,67.464 C114.21,68.146 114.672,69.664 114.672,71.16 C114.606,74.35 112.186,76.132 109.04,76.132 L108.666,76.132 Z M108.666,62.602 C107.368,62.602 106.114,63.35 106.114,64.648 C106.114,66.1 107.5,66.628 108.754,66.628 C110.008,66.628 111.57,66.1 111.57,64.648 C111.57,63.35 110.316,62.602 109.04,62.602 L108.666,62.602 Z M126.046,60.556 L126.046,70.06 L127.19,70.06 L127.19,72.392 L126.046,72.392 L126.046,75.956 L123.582,75.956 L123.582,72.392 L117.202,72.392 L115.772,70.478 L123.714,60.556 L126.046,60.556 Z M123.648,70.06 L123.692,65.946 C123.692,65.946 124.044,63.284 124.066,63.284 L123.736,63.284 C123.736,63.284 122.504,65.418 122.416,65.55 L118.984,70.06 L123.648,70.06 Z" id="764329884" fill="#373737"></path>
            </g>
        </g>
    </g>
</svg>