<?xml version="1.0" encoding="UTF-8" standalone="no"?>
<svg width="120px" height="23px" viewBox="0 0 120 23" version="1.1" xmlns="http://www.w3.org/2000/svg" xmlns:xlink="http://www.w3.org/1999/xlink">
    <!-- Generator: Sketch 46 (44423) - http://www.bohemiancoding.com/sketch -->
    <title>Group 25</title>
    <desc>Created with Sketch.</desc>
    <defs>
        <polygon id="path-1" points="9.35249596 17.3780716 9.35249596 0.00247970991 0.070030092 0.00247970991 0.070030092 17.3780716 9.35249596 17.3780716"></polygon>
        <polygon id="path-3" points="9.7186789 0.170848209 9.7186789 11.2802846 0.0686091743 11.2802846 0.0686091743 0.170848209 9.7186789 0.170848209"></polygon>
    </defs>
    <g id="Home-Mobile" stroke="none" stroke-width="1" fill="none" fill-rule="evenodd">
        <g id="CXP-home-mobile_menu" transform="translate(-23.000000, -19.000000)">
            <g id="Group-25" transform="translate(23.000000, 19.000000)">
                <path d="M48.290378,2.40995229 C48.9799927,1.94382385 50.1214239,1.85927339 50.6276257,2.63586055 C51.2958826,4.2645578 49.2952954,6.15241101 47.7137174,5.34257615 C46.6359193,4.56819083 47.3488734,2.9725211 48.290378,2.40995229" id="Fill-4" fill="#FFFFFF"></path>
                <path d="M33.0529982,17.1790239 C34.4416954,12.2764183 35.7597138,7.35267523 37.202356,2.46394128 C38.1533284,2.46173945 39.1040807,2.44984954 40.0526312,2.51590459 C39.6430899,3.90217982 39.2689982,5.29792294 38.8616587,6.68419817 C40.1726312,6.31693211 41.7636771,6.17337248 42.8839706,7.10078532 C43.785622,7.85403303 43.8349431,9.16016147 43.5478239,10.2146202 C42.9194202,12.539978 42.2320073,14.848822 41.6084477,17.1766018 C40.6504294,17.1814459 39.6950532,17.1766018 38.7370349,17.1766018 C39.3605945,14.9853358 39.9608147,12.7894459 40.5845945,10.5981798 C40.6929248,10.172345 40.8976954,9.58159266 40.4269431,9.29667523 C39.7492183,8.84706055 38.9158239,9.07318899 38.1839339,9.22621651 C37.4025028,11.864455 36.6752367,14.5194275 35.9455486,17.1744 C34.9807046,17.1790239 34.0156404,17.1744 33.0529982,17.1790239" id="Fill-6" fill="#FFFFFF"></path>
                <path d="M50.0203596,12.787178 C50.9878459,9.36266422 51.9502679,5.94035229 52.8893505,2.50879266 C53.8544147,2.4429578 54.8216807,2.4735633 55.789167,2.46651743 C54.8265248,5.93815046 53.8568367,9.4095633 52.8801028,12.8765725 C52.7083596,13.335655 52.743589,13.8227009 52.8281394,14.2958752 C53.2354789,14.4673982 53.6520661,14.611178 54.0803229,14.7241321 C53.8497908,15.5407927 53.6144147,16.3552514 53.3977541,17.176756 C52.2798826,17.2894899 50.9288367,17.2401688 50.1899009,16.253967 C49.4718826,15.2347376 49.6766532,13.9052697 50.0203596,12.787178" id="Fill-8" fill="#FFFFFF"></path>
                <path d="M25.7848954,8.97901651 C26.8862532,7.10789725 29.1647119,6.09813578 31.297189,6.33351193 C32.0880881,6.4418422 32.9117945,6.75009908 33.4012624,7.41395229 C33.8297394,7.90099817 33.8673908,8.57409908 33.9708771,9.18378716 C33.0954275,9.45681468 32.2127119,9.70386055 31.3348404,9.96521835 C31.0287853,8.3858422 28.6400147,8.71061284 28.2280514,10.0546128 C27.884345,11.2125578 27.5549505,12.3777688 27.2559413,13.5473835 C27.088822,13.9426128 27.3972991,14.2792734 27.5782899,14.5994202 C28.6446385,14.9547963 29.7061431,14.4323009 30.3299229,13.5590532 C31.1040881,13.8133651 31.8690055,14.1051083 32.6341431,14.3876037 C31.5796844,15.948044 29.9038679,17.1978055 27.9691156,17.2825761 C26.6486752,17.3931083 25.0129321,16.988411 24.4362716,15.6585028 C23.9395376,14.5972183 24.4010422,13.4249615 24.6881615,12.3705028 C25.0505835,11.2409615 25.2152807,10.0356771 25.7848954,8.97901651" id="Fill-10" fill="#FFFFFF"></path>
                <g id="Group-16">
                    <g id="Group-4">
                        <g id="Group-3" transform="translate(13.069027, 0.134335)">
                            <mask id="mask-2" fill="white">
                                <use xlink:href="#path-1"></use>
                            </mask>
                            <g id="Clip-2"></g>
                        </g>
                        <path d="M22.2790067,1.7239311 C21.8837222,0.7388059 21.1985623,0.155759475 20.1020495,0.137297769 C18.9592595,0.11797738 18.1839019,0.678054008 17.7333419,1.91241223 C16.34374,5.71895833 14.9710637,9.53215923 13.5866037,13.3404227 C13.4839797,13.6231444 13.3989239,13.8751681 13.3301509,14.1065835 C13.2828024,14.2547065 13.2438096,14.4008974 13.216386,14.544727 C13.1133336,15.0159298 13.1105483,15.3901014 13.2245274,15.736795 C13.3783563,16.4067832 13.7982791,16.9477541 14.4463743,17.257739 C14.4671562,17.2759861 14.4851529,17.2927304 14.5063633,17.3114068 L14.567852,17.3114068 C14.5897052,17.320423 14.6098443,17.3313712 14.6323402,17.339958 C15.2667236,17.5840389 15.8824676,17.5640745 16.4170123,17.3114068 L16.4345805,17.3114068 C16.4414364,17.305396 16.4485065,17.2995999 16.4553624,17.2938038 C17.0291141,17.008506 17.505598,16.4507908 17.8025434,15.6494239 C19.2358515,11.7793352 20.6533054,7.90345039 22.0546908,4.02198411 C22.186238,3.65725809 22.2813634,3.33503692 22.3385672,3.04351371 C22.4583309,2.60150613 22.4570454,2.16701204 22.2790067,1.7239311" id="Fill-1" fill="#FFFFFF"></path>
                        <path d="M13.9993493,6.45695428 C13.6040648,5.47182908 12.918905,4.88878266 11.8223922,4.87032095 C10.6796021,4.85100056 9.90424458,5.41107719 9.45368451,6.64543542 C8.06408268,10.4521962 6.69140631,14.2651824 5.30694639,18.0734459 C5.20432238,18.3561676 5.11926658,18.6081913 5.0504935,18.8396067 C5.00314506,18.9877297 4.96415222,19.1339206 4.93672869,19.2777502 C4.8336762,19.748953 4.83089099,20.1231246 4.94487005,20.4698182 C5.09869893,21.1398064 5.51862178,21.6807773 6.16671699,21.9907622 C6.18749889,22.0090092 6.20549558,22.0257536 6.22670597,22.04443 L6.28819467,22.04443 C6.3100478,22.0534461 6.33018696,22.0643944 6.35268283,22.0729812 C6.98706627,22.3170621 7.60281028,22.2970977 8.13735493,22.04443 L8.15492313,22.04443 C8.16177901,22.0384192 8.16884914,22.0326231 8.17570503,22.0268269 C8.74945675,21.7415292 9.22594064,21.1838139 9.52288608,20.3824471 C10.9561942,16.5123584 12.373648,12.6366882 13.7750334,8.75500729 C13.9065807,8.39028127 14.001706,8.06806011 14.0589098,7.77653689 C14.1786735,7.33452931 14.1773881,6.90003522 13.9993493,6.45695428" id="Fill-4" fill="#FFFFFF"></path>
                        <path d="M9.139985,1.76480446 C8.74470048,0.779679257 8.05954065,0.196632832 6.96302783,0.178171127 C5.82023779,0.158850737 5.04488025,0.718927365 4.59432017,1.95328559 C3.20471834,5.76004636 1.83204197,9.57303259 0.447582052,13.3812961 C0.34495805,13.6640178 0.259902248,13.9160415 0.19112917,14.1474568 C0.143780726,14.2955798 0.10478789,14.4417708 0.0773643573,14.5856003 C-0.0256881375,15.0568032 -0.02847334,15.4309747 0.0855057187,15.7776684 C0.239334599,16.4476566 0.659257446,16.9886275 1.30735266,17.2986124 C1.32813455,17.3168594 1.34613125,17.3336038 1.36734164,17.3522801 L1.42883034,17.3522801 C1.45068347,17.3612963 1.47082262,17.3722445 1.49331849,17.3808314 C2.12770194,17.6249123 2.74344595,17.6049479 3.27799059,17.3522801 L3.29555879,17.3522801 C3.30241468,17.3462694 3.30948481,17.3404732 3.31634069,17.3346771 C3.89009242,17.0493794 4.3665763,16.4916641 4.66352175,15.6902973 C6.09682983,11.8202086 7.51428369,7.94453842 8.91566907,4.06285747 C9.04721633,3.69813145 9.14234171,3.37591028 9.19954549,3.08438707 C9.3193092,2.64237949 9.31802372,2.20788539 9.139985,1.76480446" id="Fill-6" fill="#FFFFFF"></path>
                    </g>
                </g>
                <path d="M59.8302385,9.20736881 L59.8302385,9.20736881 C59.3079633,9.6074422 59.258422,10.3065248 59.0560734,10.8831853 C60.0328073,10.9113688 61.0093211,10.8970569 61.9862752,10.9019009 C62.0943853,10.3653138 62.3936147,9.80736881 62.1932477,9.25668991 C61.5696881,8.61903853 60.5200734,8.74828624 59.8302385,9.20736881 M57.3989725,8.14806606 C58.834789,6.54535046 61.2354495,5.8674055 63.2926239,6.49360734 C64.4082936,6.81353394 65.2130642,7.93382752 65.0765505,9.10146055 C64.9448807,10.4547083 64.4058716,11.7256073 64.0857248,13.0414239 C62.2051376,13.0530936 60.3269725,13.0555156 58.4463853,13.0436257 C58.3875963,13.5238459 58.0533578,14.1333138 58.5428257,14.4911119 C59.4889541,15.1476991 60.7153761,14.6936807 61.5368807,14.0511853 C62.0144587,14.5005798 62.5087706,14.9358826 62.9960367,15.3808734 C61.9721835,16.503589 60.5575046,17.2918459 59.0230459,17.3744147 C57.676844,17.5038826 56.0761101,17.0353321 55.4595963,15.7267817 C54.9866422,14.5239193 55.5064954,13.2649101 55.8244404,12.0952954 C56.2315596,10.7440294 56.4292844,9.24259817 57.3989725,8.14806606" id="Fill-12" fill="#FFFFFF"></path>
                <path d="M79.9022092,8.84248073 L79.9022092,8.84248073 C79.3255486,10.8476917 78.7722275,12.8623706 78.2215486,14.8772697 C79.3797138,15.3031046 81.0271266,14.8865174 81.3897688,13.5850128 C81.7614385,12.238811 82.1734018,10.8994349 82.5100624,9.5415633 C82.7265028,8.65884771 81.613255,8.22112294 80.9071266,8.33649908 C80.5587963,8.41400367 79.9845578,8.39066422 79.9022092,8.84248073 M77.534356,6.95484771 C79.5373651,6.40659083 81.7072734,5.82046239 83.7598239,6.47484771 C84.778833,6.7828844 85.4519339,7.79506789 85.4307963,8.84490275 C85.3885211,9.97928807 84.9670899,11.0478385 84.6870165,12.1351046 C84.3646679,13.1778936 84.2021725,14.3239486 83.4865761,15.1949945 C82.1593101,16.9177101 79.6857688,17.7696 77.6215486,16.9624073 C77.2260991,18.3511046 76.8471633,19.7420037 76.4541358,21.1307009 C75.4985394,21.1331229 74.5453651,21.1166092 73.5895486,21.140389 C74.8324844,16.3930128 76.2114936,11.6810862 77.534356,6.95484771" id="Fill-14" fill="#FFFFFF"></path>
                <path d="M87.2856661,9.76987156 C88.1917211,7.1360367 91.2819963,5.70990826 93.9228771,6.41823853 C93.6945468,7.19020183 93.4662165,7.96238532 93.2825835,8.74822018 C92.0539596,8.53398165 90.4323083,8.88473394 90.027611,10.2287339 C89.3591339,12.542422 88.7212624,14.8653578 88.0715009,17.1836697 C87.1112807,17.172 86.1510606,17.1766239 85.1908404,17.1836697 C85.8921248,14.7147523 86.5465101,12.2293211 87.2856661,9.76987156" id="Fill-16" fill="#FFFFFF"></path>
                <path d="M97.4108697,9.10137248 L97.4108697,9.10137248 C96.7589064,9.44728073 96.6860257,10.2498495 96.4693651,10.8784734 C97.455567,10.9137028 98.4441908,10.9042349 99.4328147,10.8806752 C99.5056954,10.3394642 99.8773651,9.72757431 99.5785761,9.20728073 C99.0160073,8.64713394 98.060411,8.74599633 97.4108697,9.10137248 M94.8430899,8.13410642 C95.9986128,6.83480367 97.7849615,6.19230826 99.5032734,6.25109725 C100.465916,6.33102385 101.524998,6.64412477 102.089989,7.48918899 C102.589145,8.1810055 102.572191,9.10357431 102.39098,9.90151927 C102.118172,10.9537761 101.788558,11.9917211 101.517732,13.0461798 C99.6351633,13.0413358 97.7521541,13.0648954 95.869145,13.0342899 C95.6855119,13.5404917 95.690356,14.062767 95.8951266,14.5617028 C96.9117138,15.0205651 98.0863927,14.790033 98.9054752,14.0510972 C99.4255486,14.4745101 99.9244844,14.926767 100.42364,15.3761615 C99.1877505,16.7342532 97.3377688,17.600455 95.4831633,17.350767 C94.4923376,17.2448587 93.428411,16.8025101 92.9695486,15.8563817 C92.3717505,14.7310239 92.8825761,13.4462532 93.1862092,12.3116477 C93.6309798,10.8877211 93.8121908,9.29205138 94.8430899,8.13410642" id="Fill-18" fill="#FFFFFF"></path>
                <path d="M104.893035,7.87746055 C106.559383,6.01801101 109.704044,5.73331376 111.622283,7.36685505 C110.967897,8.0234422 110.304044,8.67298349 109.673439,9.35335046 C109.091934,9.01184587 108.449439,8.58601101 107.741108,8.76237798 C107.232705,8.86124037 106.924448,9.3460844 106.766576,9.80032294 C106.990062,10.5958459 107.945659,10.6288734 108.581328,10.9159927 C109.59087,11.2339376 110.461695,12.2080294 110.256925,13.3261211 C109.892081,16.3739009 106.248705,18.205167 103.490246,17.0729835 C102.798209,16.8307817 102.39109,16.1785982 101.915714,15.6609468 C102.513512,14.9664881 103.193659,14.3545982 103.817439,13.6863413 C104.469402,14.361644 105.345072,15.0043596 106.338099,14.8630018 C106.919604,14.8370202 107.206723,14.2768734 107.397402,13.8085431 C107.324521,13.6720294 107.180961,13.399222 107.107861,13.2627083 C106.060448,12.9449835 104.770613,12.7635523 104.154099,11.7423413 C103.384338,10.4899376 103.914099,8.85199266 104.893035,7.87746055" id="Fill-20" fill="#FFFFFF"></path>
                <g id="Group-24" transform="translate(110.091743, 6.118459)">
                    <mask id="mask-4" fill="white">
                        <use xlink:href="#path-3"></use>
                    </mask>
                    <g id="Clip-23"></g>
                    <path d="M3.00849908,1.72599633 C4.67484771,-0.112095413 7.84284771,-0.397012844 9.71881101,1.28122569 C9.04813211,1.9237211 8.39594862,2.58515229 7.73936147,3.23953761 C7.19330642,2.88416147 6.57415046,2.4957578 5.89180183,2.63447339 C5.30809541,2.68621651 5.05862752,3.27476697 4.78097615,3.70082202 C5.37393028,4.72929908 6.74148991,4.55513394 7.56739817,5.28482202 C8.43117798,5.91322569 8.53950826,7.13480367 8.12776514,8.06199633 C7.30141651,10.6251523 4.13583853,11.8819596 1.68101284,10.9994642 C0.988976147,10.7308404 0.414737615,10.1896294 0.0686091743,9.53546422 C0.586700917,8.80093211 1.30670092,8.2410055 1.9282789,7.59828991 C2.63198532,8.29737248 3.62523303,9.03873028 4.67022385,8.66684037 C5.1762055,8.54706055 5.49393028,7.96313394 5.38097615,7.47366606 C5.25613211,6.97935413 4.64666422,7.02647339 4.26993028,6.86882202 C3.39690275,6.65920734 2.48842569,6.22148257 2.0976,5.36254679 C1.53987523,4.11256514 2.10706789,2.65583119 3.00849908,1.72599633" id="Fill-22" fill="#FFFFFF" mask="url(#mask-4)"></path>
                </g>
                <path d="M46.8145761,6.41121468 C47.7796404,6.39932477 48.7471266,6.40174679 49.7119706,6.41826055 C48.6859156,10.0004257 47.7065394,13.5969028 46.6875303,17.1814899 C45.7273101,17.172022 44.7692917,17.1766459 43.8090716,17.1836917 C44.8093651,13.5920587 45.8261725,10.0050495 46.8145761,6.41121468" id="Fill-25" fill="#FFFFFF"></path>
                <path d="M66.3357578,6.41346055 C67.4230239,6.42050642 68.5080881,6.42292844 69.5955743,6.42050642 C69.9509505,7.60443303 70.4523083,8.75775413 70.530033,10.0097174 C71.2903266,8.67298349 72.3797945,7.57382752 73.3827303,6.42292844 C74.5052257,6.4180844 75.6279413,6.41566239 76.7506569,6.42535046 C75.0726385,8.23041468 73.3378128,9.98637798 71.6974459,11.8244697 C72.4599413,13.5802128 73.0344,15.4090569 73.7638679,17.1813138 C72.6246385,17.1744881 71.4856294,17.1766899 70.348822,17.1791119 C69.9720881,16.0469284 69.548455,14.9217908 69.4308771,13.7239927 C68.6681615,15.0184514 67.5668037,16.0445064 66.5946936,17.1718459 C65.4977394,17.1859376 64.4034275,17.1766899 63.3066936,17.1744881 C64.9871339,15.3949651 66.6277211,13.578011 68.2986936,11.7892404 C67.6797578,9.98395596 67.0537761,8.1835156 66.3357578,6.41346055" id="Fill-27" fill="#FFFFFF"></path>
            </g>
        </g>
    </g>
</svg>