<?xml version="1.0" encoding="UTF-8" standalone="no"?>
<svg width="16px" height="16px" viewBox="0 0 16 16" version="1.1" xmlns="http://www.w3.org/2000/svg" xmlns:xlink="http://www.w3.org/1999/xlink">
    <!-- Generator: Sketch 43.1 (39012) - http://www.bohemiancoding.com/sketch -->
    <title>Group 17</title>
    <desc>Created with Sketch.</desc>
    <defs></defs>
    <g id="Home-desktop" stroke="none" stroke-width="1" fill="none" fill-rule="evenodd">
        <g id="01_home_desktop_notificaciones" transform="translate(-851.000000, -2082.000000)" fill="#FFFFFF">
            <g id="Group-19" transform="translate(-67.000000, 301.000000)">
                <g id="Group-16">
                    <g id="Group-17" transform="translate(918.000000, 1781.000000)">
                        <path d="M15.5863227,1.2313033 C15.3097829,0.542112821 14.8304472,0.134215385 14.0633303,0.121299634 C13.263838,0.10778315 12.7214003,0.499610989 12.4061899,1.3631641 C11.4340289,4.02621172 10.4737088,6.69391502 9.50514503,9.3581641 C9.43334961,9.55595531 9.37384484,9.73227033 9.32573141,9.89416777 C9.29260659,9.99779414 9.26532732,10.1000689 9.2461419,10.2006916 C9.1740467,10.5303436 9.17209819,10.7921128 9.25183757,11.0346586 C9.35945577,11.5033802 9.65323247,11.8818418 10.1066378,12.0987062 C10.1211768,12.1114718 10.1337672,12.1231861 10.1486059,12.136252 L10.1916232,12.136252 C10.2069116,12.1425597 10.2210009,12.150219 10.2367389,12.1562264 C10.6805516,12.3269846 11.1113242,12.3130176 11.4852899,12.136252 L11.4975806,12.136252 C11.5023769,12.1320469 11.5073232,12.1279919 11.5121195,12.123937 C11.9135144,11.9243436 12.246861,11.5341678 12.4546031,10.9735341 C13.4573409,8.26603223 14.4489872,5.55447546 15.4293919,2.83901392 C15.521422,2.58385275 15.5879714,2.35842784 15.627991,2.15447912 C15.7117773,1.84525201 15.710878,1.54128132 15.5863227,1.2313033" id="Fill-1"></path>
                        <path d="M9.79390055,4.54251136 C9.51736075,3.85332088 9.0380251,3.44542344 8.27090819,3.43250769 C7.47141589,3.41899121 6.92897821,3.81081905 6.6137678,4.67437216 C5.64160675,7.33756996 4.6812867,10.0051231 3.71272292,12.6693722 C3.64092749,12.8671634 3.58142272,13.0434784 3.53330929,13.2053758 C3.50018447,13.3090022 3.47290521,13.4112769 3.45371979,13.5118996 C3.38162459,13.8415516 3.37967607,14.1033209 3.45941546,14.3458667 C3.56703366,14.8145883 3.86081035,15.1930498 4.31421572,15.4099143 C4.32875467,15.4226799 4.34134509,15.4343941 4.35618382,15.4474601 L4.39920112,15.4474601 C4.4144895,15.4537678 4.42857879,15.4614271 4.44431683,15.4674344 C4.88812948,15.6381927 5.31890204,15.6242256 5.69286779,15.4474601 L5.70515845,15.4474601 C5.7099548,15.4432549 5.71490104,15.4392 5.71969739,15.4351451 C6.12109229,15.2355516 6.45443891,14.8453758 6.662181,14.2847421 C7.66491881,11.5772403 8.65656505,8.8658337 9.63696983,6.15022198 C9.72899988,5.89506081 9.79554929,5.6696359 9.83556887,5.46568718 C9.91935519,5.15646007 9.91845587,4.85248938 9.79390055,4.54251136" id="Fill-4"></path>
                        <path d="M6.39430462,1.25989817 C6.11776482,0.570707692 5.63842917,0.162810256 4.87131226,0.149894505 C4.07181996,0.136378022 3.52938228,0.528205861 3.21417187,1.39175897 C2.24201082,4.05495678 1.28169077,6.72250989 0.313126989,9.38675897 C0.241331561,9.58455018 0.181826791,9.7608652 0.133713363,9.92276264 C0.100588542,10.026389 0.0733092768,10.1286637 0.0541238598,10.2292864 C-0.0179713398,10.5589385 -0.0199198587,10.8207077 0.0598195305,11.0632535 C0.167437729,11.5319751 0.461214426,11.9104366 0.914619787,12.1273011 C0.929158736,12.1400667 0.941749166,12.151781 0.956587887,12.1648469 L0.999605189,12.1648469 C1.01489357,12.1711546 1.02898286,12.1788139 1.0447209,12.1848212 C1.48853355,12.3555795 1.91930611,12.3416125 2.29327186,12.1648469 L2.30556252,12.1648469 C2.31035887,12.1606418 2.31530511,12.1565868 2.32010146,12.1525319 C2.72149636,11.9529385 3.05484298,11.5627626 3.26258507,11.0021289 C4.26532288,8.29462711 5.25696912,5.58322051 6.2373739,2.86760879 C6.32940395,2.61244762 6.39595336,2.38702271 6.43597294,2.18307399 C6.51975926,1.87384689 6.51885994,1.56987619 6.39430462,1.25989817" id="Fill-6"></path>
                    </g>
                </g>
            </g>
        </g>
    </g>
</svg>