<?xml version="1.0" encoding="UTF-8" standalone="no"?>
<svg width="547px" height="105px" viewBox="0 0 547 105" version="1.1" xmlns="http://www.w3.org/2000/svg" xmlns:xlink="http://www.w3.org/1999/xlink">
    <!-- Generator: Sketch 45.2 (43514) - http://www.bohemiancoding.com/sketch -->
    <title>Group</title>
    <desc>Created with Sketch.</desc>
    <defs>
        <polygon id="path-1" points="105.273601 0.356 0.254244658 0.356 0.254244658 104.144 105.273601 104.144"></polygon>
    </defs>
    <g id="Page-1" stroke="none" stroke-width="1" fill="none" fill-rule="evenodd">
        <g id="Group">
            <g id="Group-3">
                <mask id="mask-2" fill="white">
                    <use xlink:href="#path-1"></use>
                </mask>
                <g id="Clip-2"></g>
                <path d="M50.628,23.011 C48.629,24.946 46.213,26.635 44.984,29.2 C39.564,44.679 33.824,60.028 28.255,75.453 C25.999,82.273 21.916,88.879 22.942,96.351 C23.83,97.719 24.685,99.119 25.54,100.531 C26.854,101.311 28.17,102.081 29.485,102.861 C31.034,103.299 32.584,103.727 34.134,104.144 C36.304,103.289 38.495,102.455 40.74,101.802 C45.283,96.618 46.673,89.67 49.153,83.417 C54.711,68.441 60.003,53.369 65.593,38.415 C66.459,36.148 66.608,33.722 66.694,31.328 C66.993,31.381 67.592,31.477 67.902,31.52 C65.326,28.88 63.23,25.822 60.708,23.129 C57.352,22.904 53.984,22.797 50.628,23.011 Z M83.444,8.847 C84.674,5.266 87.655,2.829 90.403,0.424 C93.129,0.413 95.854,0.435 98.581,0.456 C100.9,2.584 103.124,4.796 105.272,7.084 C105.283,10.045 105.24,13.006 105.059,15.956 C100.719,25.373 97.747,35.357 94.112,45.052 C90.125,55.785 86.256,66.56 82.279,77.292 C81.67,77.42 80.452,77.666 79.842,77.794 C79.714,78.5 79.457,79.9 79.329,80.595 C75.545,81.001 71.75,81.14 67.955,80.83 C65.753,78.393 62.034,76.458 62.236,72.706 C61.371,66.966 64.363,61.825 66.117,56.587 C71.771,40.627 77.629,24.743 83.444,8.847 Z M25.465,2.027 C29.206,0.852 33.45,-0.677 37.202,1.332 C40.109,2.252 41.874,4.732 43.242,7.276 C43.284,10.151 43.68,13.145 42.686,15.913 C35.887,34.791 28.896,53.594 22.215,72.503 C21.178,75.71 18.977,78.286 16.689,80.669 C13.097,81.065 9.174,82.316 5.796,80.391 C3.701,78.992 2.097,77.003 0.344,75.24 C0.227,71.349 -0.018,67.329 1.499,63.641 C6.844,49.393 12.114,35.111 17.191,20.766 C19.81,14.459 21.093,7.479 25.465,2.027 L25.465,2.027 Z" id="Fill-1" fill="#FFB002" mask="url(#mask-2)"></path>
            </g>
            <path d="M232.188,11.327 C235.224,18.725 226.138,27.298 218.954,23.62 C214.059,20.103 217.297,12.856 221.573,10.301 C224.705,8.185 229.89,7.8 232.188,11.327 Z" id="Fill-4" fill="#020000"></path>
            <path d="M171.215,10.547 C175.534,10.536 179.852,10.483 184.16,10.782 C182.3,17.078 180.601,23.417 178.751,29.713 C184.706,28.045 191.931,27.393 197.019,31.606 C201.114,35.026 201.338,40.958 200.034,45.747 C197.18,56.309 194.059,66.794 191.226,77.366 C186.875,77.388 182.536,77.366 178.185,77.366 C181.017,67.415 183.743,57.442 186.576,47.49 C187.068,45.555 187.998,42.872 185.86,41.579 C182.781,39.536 178.997,40.563 175.673,41.258 C172.124,53.24 168.821,65.298 165.507,77.356 C161.125,77.377 156.742,77.356 152.37,77.377 C158.677,55.111 164.663,32.749 171.215,10.547 Z" id="Fill-5" fill="#020000"></path>
            <path d="M242.46,10.75 C246.843,10.45 251.236,10.59 255.63,10.558 C251.258,26.325 246.854,42.091 242.418,57.837 C241.638,59.922 241.798,62.134 242.183,64.283 C244.032,65.063 245.924,65.715 247.87,66.228 C246.822,69.937 245.753,73.636 244.769,77.366 C239.692,77.879 233.556,77.655 230.2,73.176 C226.939,68.547 227.869,62.509 229.43,57.431 C233.824,41.878 238.195,26.335 242.46,10.75 Z" id="Fill-6" fill="#020000"></path>
            <path d="M144.396,28.12 C147.987,28.612 151.729,30.013 153.952,33.027 C155.897,35.24 156.069,38.297 156.539,41.065 C152.562,42.306 148.554,43.428 144.566,44.615 C143.177,37.442 132.327,38.917 130.457,45.02 C128.896,50.28 127.399,55.571 126.042,60.884 C125.283,62.679 126.683,64.208 127.506,65.662 C132.349,67.276 137.17,64.903 140.002,60.937 C143.519,62.092 146.993,63.417 150.468,64.7 C145.679,71.787 138.067,77.463 129.281,77.848 C123.284,78.35 115.855,76.511 113.236,70.472 C110.98,65.651 113.075,60.328 114.379,55.539 C116.026,50.408 116.774,44.935 119.361,40.135 C124.363,31.638 134.711,27.052 144.396,28.12 Z" id="Fill-7" fill="#020000"></path>
            <path d="M273.984,41.173 C271.611,42.99 271.386,46.164 270.467,48.783 C274.903,48.911 279.339,48.847 283.775,48.869 C284.267,46.431 285.625,43.898 284.716,41.397 C281.883,38.5 277.116,39.088 273.984,41.173 Z M289.708,28.847 C294.775,30.301 298.431,35.389 297.811,40.691 C297.212,46.838 294.764,52.61 293.31,58.585 C284.769,58.639 276.239,58.65 267.698,58.596 C267.431,60.777 265.913,63.545 268.136,65.17 C272.434,68.153 278.003,66.089 281.734,63.171 C283.903,65.212 286.148,67.19 288.361,69.21 C283.711,74.309 277.286,77.89 270.317,78.265 C264.203,78.853 256.934,76.725 254.133,70.782 C251.985,65.319 254.347,59.601 255.791,54.289 C257.64,48.152 258.538,41.333 262.941,36.362 C269.462,29.082 280.366,26.004 289.708,28.847 Z" id="Fill-8" fill="#020000"></path>
            <path d="M365.143,39.515 C362.524,48.623 360.012,57.773 357.511,66.923 C362.77,68.858 370.253,66.966 371.899,61.055 C373.588,54.94 375.459,48.858 376.987,42.69 C377.971,38.682 372.914,36.694 369.708,37.217 C368.126,37.57 365.517,37.463 365.143,39.515 Z M382.663,28.762 C387.292,30.162 390.349,34.758 390.253,39.526 C390.061,44.679 388.147,49.532 386.875,54.47 C385.41,59.206 384.673,64.411 381.423,68.366 C375.394,76.191 364.16,80.06 354.785,76.394 C352.989,82.701 351.268,89.018 349.483,95.325 C345.143,95.336 340.814,95.26 336.474,95.368 C342.118,73.807 348.382,52.407 354.39,30.943 C363.486,28.452 373.342,25.79 382.663,28.762 Z" id="Fill-9" fill="#020000"></path>
            <path d="M428.821,28.505 C427.784,32.011 426.747,35.518 425.913,39.088 C420.333,38.115 412.968,39.708 411.129,45.812 C408.093,56.319 405.197,66.87 402.246,77.399 C397.885,77.345 393.524,77.366 389.163,77.399 C392.348,66.186 395.319,54.898 398.676,43.727 C402.792,31.766 416.827,25.288 428.821,28.505 Z" id="Fill-10" fill="#020000"></path>
            <path d="M444.662,40.691 C441.701,42.263 441.37,45.908 440.386,48.762 C444.865,48.922 449.355,48.879 453.844,48.773 C454.175,46.314 455.864,43.535 454.507,41.173 C451.952,38.628 447.612,39.077 444.662,40.691 Z M454.165,27.747 C458.537,28.109 463.347,29.531 465.913,33.369 C468.179,36.512 468.104,40.702 467.28,44.326 C466.041,49.104 464.544,53.818 463.315,58.607 C454.763,58.585 446.212,58.692 437.66,58.553 C436.827,60.852 436.848,63.225 437.778,65.49 C442.396,67.575 447.73,66.528 451.45,63.171 C453.812,65.095 456.078,67.148 458.344,69.189 C452.733,75.357 444.33,79.291 435.907,78.158 C431.407,77.677 426.575,75.667 424.491,71.37 C421.776,66.26 424.095,60.424 425.475,55.272 C427.495,48.805 428.318,41.557 433,36.298 C438.248,30.397 446.362,27.479 454.165,27.747 Z" id="Fill-11" fill="#020000"></path>
            <path d="M509.205,32.813 C506.233,35.796 503.219,38.746 500.354,41.835 C497.714,40.285 494.796,38.35 491.578,39.152 C489.269,39.601 487.869,41.803 487.153,43.866 C488.168,47.479 492.508,47.629 495.395,48.933 C499.98,50.376 503.935,54.801 503.005,59.879 C501.348,73.721 484.801,82.038 472.273,76.896 C469.13,75.795 467.28,72.834 465.121,70.483 C467.837,67.329 470.926,64.55 473.759,61.515 C476.719,64.582 480.696,67.5 485.207,66.859 C487.847,66.741 489.152,64.197 490.017,62.07 C489.686,61.45 489.034,60.21 488.702,59.59 C483.945,58.147 478.088,57.324 475.287,52.685 C471.792,46.998 474.197,39.559 478.644,35.133 C486.212,26.688 500.493,25.395 509.205,32.813 Z" id="Fill-12" fill="#020000"></path>
            <path d="M546.394,32.963 C543.347,35.881 540.386,38.885 537.404,41.856 C534.924,40.242 532.113,38.479 529.013,39.109 C526.362,39.344 525.228,42.017 523.967,43.952 C526.661,48.623 532.872,47.832 536.623,51.146 C540.546,54 541.038,59.548 539.168,63.758 C535.415,75.4 521.038,81.108 509.889,77.099 C506.746,75.88 504.138,73.422 502.566,70.451 C504.918,67.115 508.189,64.572 511.012,61.654 C514.208,64.828 518.719,68.195 523.465,66.506 C525.763,65.961 527.206,63.31 526.693,61.087 C526.126,58.842 523.358,59.056 521.647,58.34 C517.682,57.388 513.555,55.4 511.781,51.498 C509.248,45.822 511.824,39.205 515.918,34.983 C523.486,26.635 537.874,25.341 546.394,32.963 Z" id="Fill-13" fill="#020000"></path>
            <path d="M228.03,28.505 C223.369,44.775 218.922,61.108 214.294,77.388 C209.933,77.345 205.582,77.366 201.22,77.399 C205.764,61.087 210.382,44.796 214.871,28.474 C219.254,28.42 223.647,28.431 228.03,28.505 Z" id="Fill-14" fill="#020000"></path>
            <path d="M318.334,28.516 C319.948,33.893 322.225,39.131 322.578,44.817 C326.031,38.746 330.979,33.754 335.534,28.526 C340.632,28.505 345.731,28.494 350.83,28.537 C343.209,36.736 335.33,44.71 327.88,53.059 C331.343,61.033 333.952,69.339 337.265,77.388 C332.092,77.356 326.918,77.366 321.755,77.377 C320.044,72.236 318.12,67.126 317.586,61.686 C314.122,67.565 309.12,72.225 304.705,77.345 C299.724,77.409 294.753,77.366 289.773,77.356 C297.404,69.275 304.855,61.022 312.444,52.899 C309.633,44.7 306.79,36.523 303.529,28.484 C308.468,28.516 313.395,28.526 318.334,28.516 Z" id="Fill-15" fill="#020000"></path>
        </g>
    </g>
</svg>