<?xml version="1.0" encoding="UTF-8"?>
<svg width="36px" height="44px" viewBox="0 0 36 44" version="1.1" xmlns="http://www.w3.org/2000/svg" xmlns:xlink="http://www.w3.org/1999/xlink">
    <!-- Generator: Sketch 48.2 (47327) - http://www.bohemiancoding.com/sketch -->
    <title>Group 18</title>
    <desc>Created with Sketch.</desc>
    <defs>
        <path d="M23.5049542,0.722 L8.82785354,0.722 C4.29382461,0.722 0.618,4.39737292 0.618,8.93140185 L0.618,23.6080508 C0.618,28.1420797 4.29382461,31.8174526 8.82785354,31.8174526 L11.3396821,31.8174526 L16.1668555,40.722 L20.9935773,31.8174526 L23.5054059,31.8174526 C28.0398865,31.8174526 31.7152594,28.1420797 31.7152594,23.6080508 L31.7152594,8.93095017 C31.714356,4.39692124 28.0394348,0.722 23.5049542,0.722 Z" id="path-1"></path>
        <filter x="-12.9%" y="-5.0%" width="125.7%" height="120.0%" filterUnits="objectBoundingBox" id="filter-2">
            <feOffset dx="0" dy="2" in="SourceAlpha" result="shadowOffsetOuter1"></feOffset>
            <feGaussianBlur stdDeviation="1" in="shadowOffsetOuter1" result="shadowBlurOuter1"></feGaussianBlur>
            <feColorMatrix values="0 0 0 0 0   0 0 0 0 0   0 0 0 0 0  0 0 0 0.6 0" type="matrix" in="shadowBlurOuter1"></feColorMatrix>
        </filter>
    </defs>
    <g id="01_home_desktop_emprendedores-inicio-h" stroke="none" stroke-width="1" fill="none" fill-rule="evenodd" transform="translate(-646.000000, -2178.000000)">
        <g id="Group-18" transform="translate(648.000000, 2178.000000)">
            <g id="noun_685947_cc" fill-rule="nonzero">
                <g id="Group">
                    <g id="Shape">
                        <use fill="black" fill-opacity="1" filter="url(#filter-2)" xlink:href="#path-1"></use>
                        <use fill="#FFB002" fill-rule="evenodd" xlink:href="#path-1"></use>
                    </g>
                </g>
            </g>
            <g id="Group-17" transform="translate(9.000000, 10.000000)" fill="#FFFFFF">
                <path d="M14.9078085,1.09610038 C14.6523076,0.415749323 14.2094394,0.0130834948 13.500684,0.000333398596 C12.7620164,-0.0130097253 12.2608469,0.373792611 11.9696174,1.22626997 C11.0714175,3.85516189 10.1841577,6.48864978 9.28928142,9.11872776 C9.22294813,9.31398213 9.16797043,9.48803577 9.12351742,9.64785675 C9.09291271,9.75015403 9.06770883,9.851117 9.04998302,9.95044914 C8.98337276,10.2758731 8.98157248,10.5342849 9.05524537,10.7737199 C9.15467607,11.2364298 9.4261025,11.6100372 9.84501318,11.8241203 C9.85844602,11.8367221 9.87007858,11.8482861 9.88378839,11.8611845 L9.92353297,11.8611845 C9.93765822,11.8674113 9.95067561,11.8749724 9.96521632,11.8809027 C10.3752641,12.0494708 10.7732639,12.0356829 11.1187786,11.8611845 L11.1301342,11.8611845 C11.1345657,11.8570333 11.1391356,11.8530304 11.1435671,11.8490274 C11.5144242,11.651994 11.8224101,11.2668224 12.0143474,10.7133793 C12.9407978,8.04060334 13.8570005,5.36382443 14.7628169,2.68319084 C14.8478454,2.43130232 14.9093318,2.20876866 14.9463067,2.00743575 C15.0237186,1.70217472 15.0228877,1.40210269 14.9078085,1.09610038" id="Fill-1"></path>
                <path d="M8.90780848,4.09610038 C8.65230758,3.41574932 8.20943936,3.01308349 7.50068402,3.0003334 C6.76201639,2.98699027 6.26084687,3.37379261 5.9696174,4.22626997 C5.07141749,6.85531015 4.18415774,9.48864978 3.28928142,12.1187278 C3.22294813,12.3139821 3.16797043,12.4880358 3.12351742,12.6478567 C3.09291271,12.750154 3.06770883,12.851117 3.04998302,12.9504491 C2.98337276,13.2758731 2.98157248,13.5342849 3.05524537,13.7737199 C3.15467607,14.2364298 3.4261025,14.6100372 3.84501318,14.8241203 C3.85844602,14.8367221 3.87007858,14.8482861 3.88378839,14.8611845 L3.92353297,14.8611845 C3.93765822,14.8674113 3.95067561,14.8749724 3.96521632,14.8809027 C4.3752641,15.0494708 4.77326387,15.0356829 5.11877863,14.8611845 L5.13013423,14.8611845 C5.13456568,14.8570333 5.13913562,14.8530304 5.14356707,14.8490274 C5.5144242,14.651994 5.8224101,14.2668224 6.01434736,13.7133793 C6.94079777,11.0406033 7.85700045,8.36397269 8.76281691,5.68319084 C8.8478454,5.43130232 8.90933179,5.20876866 8.94630672,5.00743575 C9.02371864,4.70217472 9.02288774,4.40210269 8.90780848,4.09610038" id="Fill-4"></path>
                <path d="M5.90780848,1.09610038 C5.65230758,0.415749323 5.20943936,0.0130834948 4.50068402,0.000333398596 C3.76201639,-0.0130097253 3.26084687,0.373792611 2.9696174,1.22626997 C2.07141749,3.85531015 1.18415774,6.48864978 0.289281421,9.11872776 C0.222948125,9.31398213 0.167970425,9.48803577 0.123517424,9.64785675 C0.092912709,9.75015403 0.0677088264,9.851117 0.0499830188,9.95044914 C-0.0166272423,10.2758731 -0.0184275196,10.5342849 0.0552453679,10.7737199 C0.15467607,11.2364298 0.426102498,11.6100372 0.845013183,11.8241203 C0.858446022,11.8367221 0.870078583,11.8482861 0.883788387,11.8611845 L0.923532972,11.8611845 C0.937658224,11.8674113 0.950675614,11.8749724 0.965216316,11.8809027 C1.3752641,12.0494708 1.77326387,12.0356829 2.11877863,11.8611845 L2.13013423,11.8611845 C2.13456568,11.8570333 2.13913562,11.8530304 2.14356707,11.8490274 C2.5144242,11.651994 2.8224101,11.2668224 3.01434736,10.7133793 C3.94079777,8.04060334 4.85700045,5.36397269 5.76281691,2.68319084 C5.8478454,2.43130232 5.90933179,2.20876866 5.94630672,2.00743575 C6.02371864,1.70217472 6.02288774,1.40210269 5.90780848,1.09610038" id="Fill-6"></path>
            </g>
        </g>
    </g>
</svg>
