<?xml version="1.0" encoding="UTF-8"?>
<svg width="64px" height="69px" viewBox="0 0 64 69" version="1.1" xmlns="http://www.w3.org/2000/svg" xmlns:xlink="http://www.w3.org/1999/xlink">
    <!-- Generator: Sketch 46.2 (44496) - http://www.bohemiancoding.com/sketch -->
    <title>Group 10</title>
    <desc>Created with Sketch.</desc>
    <defs></defs>
    <g id="LOGIN" stroke="none" stroke-width="1" fill="none" fill-rule="evenodd">
        <g id="10_CXP_crea-tu-cuenta_mobile_asociado" transform="translate(-130.000000, -148.000000)">
            <g id="Group-10" transform="translate(130.000000, 148.000000)">
                <g id="Group-6">
                    <rect id="Rectangle-11" stroke="#373737" stroke-width="3" x="1.5" y="1.5" width="57" height="57" rx="28.5"></rect>
                    <g id="Icon" transform="translate(19.500000, 18.000000)" fill-rule="nonzero" fill="#373737">
                        <g id="Group-5">
                            <g id="Group-8" transform="translate(-1.500000, -1.500000)">
                                <path d="M3,24 C3,22.4616414 4.2473557,21.2142857 5.78571429,21.2142857 L18.6428571,21.2142857 C20.1812157,21.2142857 21.4285714,22.4616414 21.4285714,24 C21.4285714,24.8284271 22.1001443,25.5 22.9285714,25.5 C23.7569986,25.5 24.4285714,24.8284271 24.4285714,24 C24.4285714,20.8047872 21.83807,18.2142857 18.6428571,18.2142857 L5.78571429,18.2142857 C2.59050145,18.2142857 0,20.8047872 0,24 C0,24.8284271 0.671572875,25.5 1.5,25.5 C2.32842712,25.5 3,24.8284271 3,24 Z" id="Stroke-1"></path>
                                <path d="M17.1428571,7.92857143 C17.1428571,5.20628427 14.9365729,3 12.2142857,3 C9.49199855,3 7.28571429,5.20628427 7.28571429,7.92857143 C7.28571429,10.6508586 9.49199855,12.8571429 12.2142857,12.8571429 C14.9365729,12.8571429 17.1428571,10.6508586 17.1428571,7.92857143 Z M20.1428571,7.92857143 C20.1428571,12.3077128 16.5934271,15.8571429 12.2142857,15.8571429 C7.8351443,15.8571429 4.28571429,12.3077128 4.28571429,7.92857143 C4.28571429,3.54943002 7.8351443,0 12.2142857,0 C16.5934271,0 20.1428571,3.54943002 20.1428571,7.92857143 Z" id="Stroke-3"></path>
                            </g>
                        </g>
                    </g>
                </g>
                <g id="Group-4" transform="translate(34.000000, 39.000000)">
                    <g id="Group-9">
                        <path d="M15,30 C23.2842712,30 30,23.2842712 30,15 C30,6.71572875 23.2842712,0 15,0 C6.71572875,0 0,6.71572875 0,15 C0,23.2842712 6.71572875,30 15,30 L15,30 Z" id="Icon" fill="#7AB546"></path>
                        <path d="M13.7131324,18.2505622 L8.92431938,13.4617491 C8.74258657,13.2800163 8.446397,13.2806228 8.26333874,13.4636811 C8.07900423,13.6480156 8.07941551,13.9426705 8.26140677,14.1246617 L13.3160954,19.1793504 C13.3330292,19.2048145 13.3527198,19.2289843 13.3751714,19.2514359 C13.5595059,19.4357704 13.8546567,19.4348632 14.0372597,19.2522601 L21.5519178,11.7376021 C21.7336621,11.5558578 21.7341518,11.258572 21.5510935,11.0755137 C21.366759,10.8911792 21.0716082,10.8920864 20.8890052,11.0746895 L13.7131324,18.2505622 L13.7131324,18.2505622 Z" id="Path" fill="#FFFFFF"></path>
                    </g>
                </g>
            </g>
        </g>
    </g>
</svg>