<?xml version="1.0" encoding="UTF-8" standalone="no"?>
<svg width="61px" height="80px" viewBox="0 0 61 80" version="1.1" xmlns="http://www.w3.org/2000/svg" xmlns:xlink="http://www.w3.org/1999/xlink">
    <!-- Generator: Sketch 46.2 (44496) - http://www.bohemiancoding.com/sketch -->
    <title>Group 14</title>
    <desc>Created with Sketch.</desc>
    <defs></defs>
    <g id="Home-tablet" stroke="none" stroke-width="1" fill="none" fill-rule="evenodd">
        <g id="landing-jumbo-catálogo-tablet-768" transform="translate(-395.000000, -1610.000000)">
            <g id="Group-14" transform="translate(395.000000, 1610.000000)">
                <polygon id="Path-2" fill="#FFB832" points="28.6666667 0 30.4025851 50.4376863 53.5777072 4.30515917"></polygon>
                <g id="noun_683270_cc" transform="translate(0.000000, 20.000000)" fill-rule="nonzero" fill="#4A4A4A">
                    <g id="Group">
                        <path d="M30.5,0 C13.958,0 0.5,13.458 0.5,30 C0.5,46.542 13.958,60 30.5,60 C47.042,60 60.5,46.542 60.5,30 C60.5,13.458 47.042,0 30.5,0 Z M30.5,55 C16.7146667,55 5.5,43.7853333 5.5,30 C5.5,16.2146667 16.7146667,5 30.5,5 C44.2853333,5 55.5,16.2146667 55.5,30 C55.5,43.7853333 44.2853333,55 30.5,55 Z" id="Shape"></path>
                        <rect id="Rectangle-path" x="28.8333333" y="48.3333333" width="3.33333333" height="3.33333333"></rect>
                        <rect id="Rectangle-path" x="28.8333333" y="8.33333333" width="3.33333333" height="3.33333333"></rect>
                        <rect id="Rectangle-path" x="8.83333333" y="28.3333333" width="3.33333333" height="3.33333333"></rect>
                        <rect id="Rectangle-path" x="48.8333333" y="28.3333333" width="3.33333333" height="3.33333333"></rect>
                        <path d="M42.6566667,21.0566667 L33.744,26.2026667 C32.87,25.4546667 31.738,25 30.5,25 C29.262,25 28.13,25.4546667 27.256,26.2026667 L15.4566667,19.39 L13.79,22.2766667 L25.5873333,29.088 C25.5326667,29.384 25.5,29.688 25.5,30 C25.5,32.7573333 27.7426667,35 30.5,35 C33.2573333,35 35.5,32.7573333 35.5,30 C35.5,29.688 35.4673333,29.384 35.4126667,29.088 L44.3233333,23.9433333 L42.6566667,21.0566667 Z M32.1666667,30 C32.1666667,30.9186667 31.4193333,31.6666667 30.5,31.6666667 C29.5806667,31.6666667 28.8333333,30.9186667 28.8333333,30 C28.8333333,29.0813333 29.5806667,28.3333333 30.5,28.3333333 C31.4193333,28.3333333 32.1666667,29.0813333 32.1666667,30 Z" id="Shape"></path>
                    </g>
                </g>
            </g>
        </g>
    </g>
</svg>