<?xml version="1.0" encoding="UTF-8" standalone="no"?>
<svg width="83px" height="57px" viewBox="0 0 83 57" version="1.1" xmlns="http://www.w3.org/2000/svg" xmlns:xlink="http://www.w3.org/1999/xlink">
    <!-- Generator: Sketch 46.2 (44496) - http://www.bohemiancoding.com/sketch -->
    <title>Group 9</title>
    <desc>Created with Sketch.</desc>
    <defs>
        <polygon id="path-1" points="82.4670935 1.55737705e-05 82.4670935 56.9610656 0 56.9610656 0 1.55737705e-05 82.4670935 1.55737705e-05"></polygon>
        <polygon id="path-3" points="2.62240317e-05 0 29.9546073 0 29.9546073 31.9984236 2.62240317e-05 31.9984236 2.62240317e-05 0"></polygon>
    </defs>
    <g id="Home-tablet" stroke="none" stroke-width="1" fill="none" fill-rule="evenodd">
        <g id="landing-jumbo-catálogo-tablet-768" transform="translate(-625.000000, -1620.000000)">
            <g id="Group-9" transform="translate(625.000000, 1620.000000)">
                <g id="Page-1">
                    <mask id="mask-2" fill="white">
                        <use xlink:href="#path-1"></use>
                    </mask>
                    <g id="Clip-2"></g>
                    <path d="M69.9754593,50.0042779 C62.1614316,54.5230074 52.1283122,51.8313926 47.614225,44.0052615 C45.4277966,40.213827 44.8470096,35.7971057 45.9779423,31.5682041 C47.1098082,27.3391467 49.8188515,23.8040566 53.6056328,21.6157861 C54.2918761,21.2192779 55.0030058,20.8741631 55.7312449,20.5835566 C52.7736484,25.6817861 52.565069,32.1790074 55.6825609,37.5871549 C59.6558348,44.4762123 67.7615003,47.5157451 75.0768662,45.3768434 C73.7345544,47.2449172 72.0010591,48.8329746 69.9754593,50.0042779 L69.9754593,50.0042779 Z M13.9663729,50.9860484 C8.88891921,50.9860484 4.75854967,46.8504336 4.75854967,41.7663762 C4.75854967,36.0268189 10.0386722,31.4461057 15.9757965,32.7757943 C17.2523148,33.0598598 18.5087684,32.2677779 18.8106719,31.000073 C20.5849187,23.5037943 27.4425298,18.2683598 35.4861348,18.2683598 C39.343998,18.2683598 43.0203457,19.4951057 46.0180716,21.7444254 C43.8495304,24.177827 42.249333,27.0923025 41.3812633,30.333827 C39.9208965,35.7924336 40.6701336,41.4930566 43.4925657,46.3871139 C44.4920669,48.1209418 45.7038805,49.6563598 47.0726341,50.9860484 L13.9663729,50.9860484 Z M53.3191278,4.76465492 C61.1190013,4.76465492 67.464263,10.827368 67.464263,18.2798844 C67.464263,19.5961795 68.5295577,20.6626713 69.8441834,20.6626713 C72.9092582,20.6626713 75.4031895,23.1597697 75.4031895,26.2287369 C75.4031895,29.2978598 72.9092582,31.7940238 69.8441834,31.7940238 L58.4830618,31.7940238 C57.4151229,27.0150566 59.3064916,21.869327 63.5539829,19.0185484 C64.4155199,18.4409172 64.8037482,17.370532 64.5144435,16.3736549 C64.2249832,15.3766221 63.3234723,14.6828107 62.2869525,14.6571139 C58.4155574,14.5551057 54.5917576,15.5415484 51.225868,17.486868 C50.6670121,17.809868 50.1311762,18.1626139 49.6094944,18.529532 C46.8024608,16.2267943 43.4888327,14.6580484 39.926807,13.9488189 C41.8429065,8.47993361 47.155537,4.76465492 53.3191278,4.76465492 L53.3191278,4.76465492 Z M81.285097,37.8481713 C80.3902743,37.3248926 79.2604305,37.4430975 78.490351,38.1379992 C77.8478145,38.7184336 77.1480392,39.2301877 76.407668,39.6572205 C71.0855496,42.7338189 64.3897003,41.2993189 60.7296842,36.5595975 L69.8441834,36.5595975 C75.5346209,36.5595975 80.162719,31.9256221 80.162719,26.2287369 C80.162719,21.3060238 76.7064607,17.1761713 72.095472,16.1448762 C70.9987581,7.06739262 62.995127,1.55737705e-05 53.318039,1.55737705e-05 C44.6891363,1.55737705e-05 37.3014443,5.52808115 35.0843745,13.5180484 C25.7556966,13.6790811 17.7264013,19.4063352 14.7905803,27.8082287 C6.74510888,27.3153189 -4.66620547e-05,33.7821713 -4.66620547e-05,41.7674664 C-4.66620547e-05,49.4791303 6.26542296,55.7524008 13.9673062,55.7524008 L54.0167255,55.7524008 C54.2137949,55.7524008 54.4023096,55.722032 54.5861581,55.6762451 C56.9010626,56.5159828 59.3512871,56.9610811 61.828109,56.9610811 C65.4100438,56.9610811 69.0380186,56.0489254 72.3572461,54.1311713 C77.4575642,51.1822779 81.122402,46.186991 82.4102747,40.426409 C82.6350302,39.4133352 82.1808529,38.37145 81.285097,37.8481713 L81.285097,37.8481713 Z" id="Fill-1" fill="#4A4A4A" mask="url(#mask-2)"></path>
                </g>
                <g id="Page-1" transform="translate(46.000000, 21.000000)">
                    <mask id="mask-4" fill="white">
                        <use xlink:href="#path-3"></use>
                    </mask>
                    <g id="Clip-2"></g>
                    <path d="M24.8031047,29.7792158 C16.9123194,34.3530089 6.78064398,31.6285951 2.22221466,23.7070975 C0.0143089005,19.8694621 -0.572183246,15.3989202 0.569858639,11.1184867 C1.71284293,6.83789557 4.44849738,3.25972808 8.27247644,1.04479212 C8.96546073,0.643452217 9.68357592,0.29413202 10.4189686,-1.57635468e-05 C7.43231937,5.16033892 7.2216911,11.736733 10.3698063,17.2107823 C14.3821099,24.1837872 22.5673979,27.2603586 29.954623,25.0953931 C28.5991257,26.9862305 26.8486021,28.5936394 24.8031047,29.7792158" id="Fill-1" fill="#FFB832" mask="url(#mask-4)"></path>
                </g>
            </g>
        </g>
    </g>
</svg>