<?xml version="1.0" encoding="UTF-8"?>
<svg width="18px" height="18px" viewBox="0 0 18 18" version="1.1" xmlns="http://www.w3.org/2000/svg" xmlns:xlink="http://www.w3.org/1999/xlink">
    <!-- Generator: Sketch 48.2 (47327) - http://www.bohemiancoding.com/sketch -->
    <title>Group</title>
    <desc>Created with Sketch.</desc>
    <defs></defs>
    <g id="11_sucursales_mobile_320" stroke="none" stroke-width="1" fill="none" fill-rule="evenodd" transform="translate(-267.000000, -415.000000)">
        <g id="Group" transform="translate(267.000000, 415.000000)" fill="#4483E5">
            <path d="M0.175208089,8.99999162 C0.175208089,4.13376985 4.13377264,0.175205296 8.99999441,0.175205296 C13.8662346,0.175205296 17.8247807,4.13376035 17.8247807,8.99999162 C17.8247807,13.8661307 13.8661871,17.8247779 8.99999441,17.8247779 C4.13382015,17.8247779 0.175208089,13.8661212 0.175208089,8.99999162 Z M15.8221718,9.96700464 L13.5471705,9.96700464 L13.5471705,8.03300654 L15.8220214,8.03300654 C15.3951981,5.006098 12.9938831,2.60482909 9.96700743,2.17799428 L9.96700743,4.45281549 L8.0329814,4.45281549 L8.0329814,2.17800965 C5.00618355,2.60498421 2.60498467,5.00619122 2.17801209,8.03300654 L4.45298587,8.03300654 L4.45298587,9.96700464 L2.17799733,9.96700464 C2.60482904,12.9938058 5.00614972,15.3951821 8.0329814,15.8221687 L8.0329814,13.5471678 L9.96700743,13.5471678 L9.96700743,15.8220163 C12.9937983,15.395182 15.3951862,12.9938482 15.8221718,9.96700464 Z" id="Combined-Shape"></path>
            <circle id="Oval" cx="9" cy="9" r="2.56410256"></circle>
        </g>
    </g>
</svg>