<?xml version="1.0" encoding="UTF-8" standalone="no"?>
<svg width="106px" height="62px" viewBox="0 0 106 62" version="1.1" xmlns="http://www.w3.org/2000/svg" xmlns:xlink="http://www.w3.org/1999/xlink">
    <!-- Generator: Sketch 46.2 (44496) - http://www.bohemiancoding.com/sketch -->
    <title>Group 13</title>
    <desc>Created with Sketch.</desc>
    <defs></defs>
    <g id="Home-tablet" stroke="none" stroke-width="1" fill="none" fill-rule="evenodd">
        <g id="landing-jumbo-catálogo-tablet-768" transform="translate(-128.000000, -1626.000000)">
            <g id="Group-13" transform="translate(128.000000, 1626.000000)">
                <circle id="Oval-2" fill="#FFB832" cx="53.0490648" cy="29.5104369" r="28.7980637"></circle>
                <g id="Group" transform="translate(0.000000, 0.106098)">
                    <path d="M31.7565646,18.5679053 C38.5748548,22.4818653 43.2317341,29.7042204 43.5271113,38.0278151 L46.0788421,38.0278151 C46.3156127,36.2555441 47.1536868,34.6726582 48.3879415,33.4919236 L35.3596975,11.8377178 L31.7565646,18.5679053 Z" id="Shape"></path>
                    <path d="M51.3299922,31.7254978 C52.0871892,31.4776604 52.8936159,31.3397132 53.7328622,31.3397132 C55.0386169,31.3397132 56.2670109,31.6670456 57.3465443,32.2387082 L68.948304,10.5657977 L38.5994696,10.5657977 L51.3299922,31.7254978 Z" id="Shape"></path>
                    <path d="M83.7570161,18.3633225 C81.335392,18.3633225 79.013399,18.7771642 76.8355783,19.5101549 L69.8684274,3.29551176 L79.6486944,3.29551176 C81.9870972,3.29551176 83.889467,5.1928705 83.889467,7.52511369 C83.889467,8.4007278 83.3244995,9.15826845 82.4840811,9.40961295 L79.7213666,10.2361272 L80.6344572,13.2744731 L83.3971717,12.4479588 C85.5937465,11.790956 87.0694603,9.8129332 87.0694603,7.52628274 C87.0694603,3.44514942 83.7394341,0.123894828 79.6475223,0.123894828 L69.6984683,0.123894828 C68.663476,0.123894828 67.7058444,0.638274278 67.1350162,1.5010289 C66.5653602,2.36261448 66.4692454,3.44398037 66.8771472,4.39207522 L69.597665,10.7236186 L36.9889606,10.7236186 L33.4749097,4.88307379 L38.2994039,4.88307379 L38.2994039,1.71028781 L22.3970928,1.71028781 L22.3970928,4.88307379 L29.766285,4.88307379 L33.9894755,11.9031842 L29.7100226,19.8971085 C27.2368247,18.9197876 24.5514709,18.3644916 21.7336663,18.3644916 C9.74979162,18.3633225 0,28.0874322 0,40.0409092 C0,51.9932172 9.74979162,61.7184959 21.7348384,61.7184959 C32.9204914,61.7184959 42.1545451,53.2440945 43.3348817,42.3953642 L46.0659486,42.3953642 C46.9919327,45.2688749 49.6948684,47.3556188 52.8795503,47.3556188 C56.8261178,47.3556188 60.0365865,44.1536067 60.0365865,40.2174349 C60.0365865,38.6450704 59.5173322,37.1942866 58.6499547,36.0135519 L70.7522147,13.404237 L73.9064212,20.7446656 C66.8654259,24.3359694 62.0233498,31.6284671 62.0233498,40.0420783 C62.0233498,51.9943862 71.7731414,61.719665 83.7581882,61.719665 C95.7420629,61.7173269 105.491855,51.9932172 105.491855,40.0409092 C105.491855,28.0874322 95.7420629,18.3633225 83.7570161,18.3633225 Z M31.0333593,24.0530607 C36.3466324,27.1405064 39.9790686,32.7741304 40.2486589,39.2728472 L27.0340459,39.2728472 C26.7738327,37.8220633 25.940447,36.5676789 24.7624547,35.7680526 L31.0333593,24.0530607 Z M23.9489952,40.2162658 C23.9489952,41.4344099 22.9550275,42.4245904 21.7348384,42.4245904 C20.5146493,42.4245904 19.5206816,41.4332409 19.5206816,40.2162658 C19.5206816,38.9981218 20.5146493,38.0079413 21.7348384,38.0079413 C22.9550275,38.0079413 23.9489952,38.9992908 23.9489952,40.2162658 Z M21.7348384,58.5457099 C11.5044728,58.5457099 3.18116548,50.244327 3.18116548,40.0409092 C3.18116548,29.8374914 11.5044728,21.5361085 21.7348384,21.5361085 C24.0111182,21.5361085 26.1830783,21.9674858 28.200317,22.7180122 L21.7125679,34.8386625 C18.7482468,34.851522 16.3395161,37.257415 16.3395161,40.2174349 C16.3395161,43.1844691 18.7599681,45.5985454 21.7348384,45.5985454 C23.9314133,45.5985454 25.8173732,44.2786945 26.6589638,42.3953642 L40.1208965,42.3953642 C38.9557976,51.4881901 31.163466,58.5457099 21.7348384,58.5457099 Z M45.7916698,39.2716781 L43.4298244,39.2716781 C43.1567177,31.5641697 38.8456172,24.8772368 32.5313437,21.2531998 L35.8672305,15.0210251 L47.929638,35.0713023 C46.7879817,36.1655277 46.0108584,37.6315091 45.7916698,39.2716781 Z M52.8783782,44.1816638 C50.6864918,44.1816638 48.9025074,42.4023785 48.9025074,40.2162658 C48.9025074,38.0301532 50.6864918,36.2508679 52.8783782,36.2508679 C55.0702645,36.2508679 56.8542489,38.0301532 56.8542489,40.2162658 C56.8542489,42.4035476 55.0702645,44.1816638 52.8783782,44.1816638 Z M56.2248142,33.9116105 C55.2249858,33.3820334 54.086846,33.079251 52.8783782,33.079251 C52.1012548,33.079251 51.3546069,33.2078458 50.6536722,33.4369785 L38.8678877,13.8437976 L66.9674014,13.8437976 L56.2248142,33.9116105 Z M83.7570161,58.5457099 C73.5266505,58.5457099 65.2033432,50.244327 65.2033432,40.0409092 C65.2033432,32.9319514 69.2483697,26.7570599 75.1582578,23.6579237 L80.4574653,35.9913401 C79.1915631,36.9768444 78.3616938,38.4954328 78.3616938,40.2174349 C78.3616938,43.1844691 80.7821458,45.5985454 83.7570161,45.5985454 C86.7318864,45.5985454 89.1523384,43.1844691 89.1523384,40.2174349 C89.1523384,37.2504007 86.7318864,34.8363244 83.7570161,34.8363244 C83.6468357,34.8363244 83.5436881,34.8620434 83.4346799,34.8690577 L78.0885871,22.4269202 C79.8772601,21.8529195 81.7796299,21.5361085 83.7570161,21.5361085 C93.9873817,21.5361085 102.310689,29.8374914 102.310689,40.0409092 C102.310689,50.244327 93.9873817,58.5457099 83.7570161,58.5457099 Z M83.7570161,38.0079413 C84.9783774,38.0079413 85.972345,38.9992908 85.972345,40.2162658 C85.972345,41.4344099 84.9783774,42.4245904 83.7570161,42.4245904 C82.5356549,42.4245904 81.5428593,41.4332409 81.5428593,40.2162658 C81.5428593,38.9992908 82.5356549,38.0079413 83.7570161,38.0079413 Z" id="Shape" fill="#4A4A4A" fill-rule="nonzero"></path>
                </g>
            </g>
        </g>
    </g>
</svg>