<?xml version="1.0" encoding="UTF-8"?>
<svg width="140px" height="140px" viewBox="0 0 140 140" version="1.1" xmlns="http://www.w3.org/2000/svg" xmlns:xlink="http://www.w3.org/1999/xlink">
    <!-- Generator: Sketch 47.1 (45422) - http://www.bohemiancoding.com/sketch -->
    <title>Group 23</title>
    <desc>Created with Sketch.</desc>
    <defs>
        <circle id="path-1" cx="60" cy="60" r="60"></circle>
        <filter x="-14.2%" y="-10.8%" width="128.3%" height="128.3%" filterUnits="objectBoundingBox" id="filter-2">
            <feOffset dx="0" dy="4" in="SourceAlpha" result="shadowOffsetOuter1"></feOffset>
            <feGaussianBlur stdDeviation="5" in="shadowOffsetOuter1" result="shadowBlurOuter1"></feGaussianBlur>
            <feColorMatrix values="0 0 0 0 0   0 0 0 0 0   0 0 0 0 0  0 0 0 0.2 0" type="matrix" in="shadowBlurOuter1"></feColorMatrix>
        </filter>
        <polygon id="path-3" points="0 87.6332101 77.3234207 87.6332101 77.3234207 0 0 0"></polygon>
    </defs>
    <g id="Home-desktop" stroke="none" stroke-width="1" fill="none" fill-rule="evenodd">
        <g id="01_home_desktop_inicio_h__salir-registro" transform="translate(-680.000000, -191.000000)">
            <g id="Group-23" transform="translate(690.000000, 197.000000)">
                <g id="Oval-6">
                    <use fill="black" fill-opacity="1" filter="url(#filter-2)" xlink:href="#path-1"></use>
                    <use fill="#FFB832" fill-rule="evenodd" xlink:href="#path-1"></use>
                </g>
                <g id="Page-1" transform="translate(22.000000, 15.000000)">
                    <polygon id="Stroke-1" stroke="#FFFFFF" stroke-width="2" points="6.44361839 86.9888483 70.8798023 86.9888483 70.8798023 3.2218092 6.44361839 3.2218092"></polygon>
                    <polygon id="Fill-3" fill="#E4E5E7" points="9.98760851 83.7670391 67.3358122 83.7670391 67.3358122 6.44361839 9.98760851 6.44361839"></polygon>
                    <polygon id="Fill-4" fill="#11BACC" points="60.5697551 28.9963472 60.5697551 48.3272024 77.323163 48.3272024 77.323163 32.5951081 73.7250464 32.5951081 73.7250464 28.9963472"></polygon>
                    <polygon id="Fill-5" fill="#1FCCE8" points="73.7247887 32.5947859 77.3235496 32.5947859 73.7247887 28.996025"></polygon>
                    <polygon id="Fill-6" fill="#FFFFFF" points="28.9962828 41.1869644 48.3271379 41.1869644 48.3271379 14.1237672 28.9962828 14.1237672"></polygon>
                    <g id="Group-38">
                        <path d="M27.3853782,48.3271379 L35.8806447,48.3271379" id="Stroke-13" stroke="#373737" stroke-width="2"></path>
                        <path d="M27.3853782,51.5489471 L49.9380425,51.5489471" id="Stroke-15" stroke="#373737" stroke-width="2"></path>
                        <path d="M27.3853782,54.7707563 L49.9380425,54.7707563" id="Stroke-17" stroke="#373737" stroke-width="2"></path>
                        <path d="M27.3853782,57.9925655 L33.4668652,57.9925655" id="Stroke-19" stroke="#373737" stroke-width="2"></path>
                        <path d="M27.3853782,61.2143747 L49.9380425,61.2143747" id="Stroke-21" stroke="#373737" stroke-width="2"></path>
                        <path d="M27.3853782,64.4361839 L49.9380425,64.4361839" id="Stroke-23" stroke="#373737" stroke-width="2"></path>
                        <path d="M27.3853782,67.6579931 L39.5477079,67.6579931" id="Stroke-25" stroke="#373737" stroke-width="2"></path>
                        <path d="M27.3853782,70.8798023 L49.9380425,70.8798023" id="Stroke-27" stroke="#373737" stroke-width="2"></path>
                        <path d="M27.3853782,74.1016115 L35.037175,74.1016115" id="Stroke-29" stroke="#373737" stroke-width="2"></path>
                        <mask id="mask-4" fill="white">
                            <use xlink:href="#path-3"></use>
                        </mask>
                        <g id="Clip-32"></g>
                        <polygon id="Fill-31" fill="#1FCCE8" mask="url(#mask-4)" points="28.9962828 9.66542759 48.3271379 9.66542759 48.3271379 0 28.9962828 0"></polygon>
                        <path d="M27.3860225,6.44361839 L49.9380425,6.44361839" id="Stroke-33" stroke="#000000" stroke-width="2" mask="url(#mask-4)"></path>
                        <polyline id="Stroke-34" stroke="#000000" stroke-width="2" mask="url(#mask-4)" points="67.8329374 40.5343547 69.8227267 42.5241441 73.6850316 38.6618392"></polyline>
                        <polygon id="Fill-35" fill="#11BACC" mask="url(#mask-4)" points="13.1546469 61.2143747 0 61.2143747 0 80.5452299 16.7534078 80.5452299 16.7534078 64.8131356 13.1546469 64.8131356"></polygon>
                        <polygon id="Fill-36" fill="#1FCCE8" mask="url(#mask-4)" points="13.1546469 61.2143747 13.1546469 64.8131356 16.7534078 64.8131356"></polygon>
                        <polyline id="Stroke-37" stroke="#000000" stroke-width="2" mask="url(#mask-4)" points="7.26292447 72.7524467 9.25271383 74.742236 13.1150187 70.8799312"></polyline>
                    </g>
                </g>
                <g id="Icon" transform="translate(51.000000, 33.000000)" stroke-linecap="round" stroke-width="2" stroke="#4A4A4A" stroke-linejoin="round">
                    <g id="Group-5">
                        <path d="M0,20 L0,20 C0,17.8961905 1.7045779,16.1904762 3.80698582,16.1904762 L15.2279433,16.1904762 C17.3303512,16.1904762 19.0349291,17.8961905 19.0349291,20 L19.0349291,20" id="Stroke-1"></path>
                        <path d="M15.2279433,5.71428571 C15.2279433,8.87047619 12.6715523,11.4285714 9.51746455,11.4285714 C6.3633768,11.4285714 3.80698582,8.87047619 3.80698582,5.71428571 C3.80698582,2.55809524 6.3633768,0 9.51746455,0 C12.6715523,0 15.2279433,2.55809524 15.2279433,5.71428571 L15.2279433,5.71428571 Z" id="Stroke-3"></path>
                    </g>
                </g>
            </g>
        </g>
    </g>
</svg>