<?xml version="1.0" encoding="UTF-8" standalone="no"?>
<svg width="68px" height="68px" viewBox="0 0 68 68" version="1.1" xmlns="http://www.w3.org/2000/svg" xmlns:xlink="http://www.w3.org/1999/xlink">
    <!-- Generator: Sketch 46.2 (44496) - http://www.bohemiancoding.com/sketch -->
    <title>Group 19</title>
    <desc>Created with Sketch.</desc>
    <defs>
        <ellipse id="path-1" cx="30" cy="29.6143251" rx="30" ry="29.6143251"></ellipse>
        <filter x="-11.7%" y="-8.4%" width="123.3%" height="123.6%" filterUnits="objectBoundingBox" id="filter-3">
            <feOffset dx="0" dy="2" in="SourceAlpha" result="shadowOffsetOuter1"></feOffset>
            <feGaussianBlur stdDeviation="2" in="shadowOffsetOuter1" result="shadowBlurOuter1"></feGaussianBlur>
            <feColorMatrix values="0 0 0 0 0   0 0 0 0 0   0 0 0 0 0  0 0 0 0.2 0" type="matrix" in="shadowBlurOuter1"></feColorMatrix>
        </filter>
    </defs>
    <g id="Home-mobile" stroke="none" stroke-width="1" fill="none" fill-rule="evenodd">
        <g id="CXP-Home-Mobile-Alerta" transform="translate(-126.000000, -112.000000)">
            <g id="Group-19" transform="translate(130.000000, 114.000000)">
                <g id="Bitmap" transform="translate(0.000000, 0.179063)">
                    <mask id="mask-2" fill="white">
                        <use xlink:href="#path-1"></use>
                    </mask>
                    <g id="Mask">
                        <use fill="black" fill-opacity="1" filter="url(#filter-3)" xlink:href="#path-1"></use>
                        <use fill="#FCBD1B" fill-rule="evenodd" xlink:href="#path-1"></use>
                    </g>
                </g>
                <path d="M31.4205321,29.6370795 C31.4205321,30.0597916 31.0701726,30.405647 30.6419555,30.405647 L29.0848021,30.405647 C28.6596992,30.405647 28.3062254,30.0597916 28.3062254,29.6370795 L28.3062254,25.0256749 C28.3062254,24.6029628 28.6596992,24.2571075 29.0848021,24.2571075 L30.6419555,24.2571075 C31.0701726,24.2571075 31.4205321,24.6029628 31.4205321,25.0256749 L31.4205321,29.6370795 Z M31.4205321,34.2484841 C31.4205321,34.6711962 31.0701726,35.0170516 30.6419555,35.0170516 L29.0848021,35.0170516 C28.6596992,35.0170516 28.3062254,34.6711962 28.3062254,34.2484841 L28.3062254,32.7113493 C28.3062254,32.2886372 28.6596992,31.9427818 29.0848021,31.9427818 L30.6419555,31.9427818 C31.0701726,31.9427818 31.4205321,32.2886372 31.4205321,32.7113493 L31.4205321,34.2484841 Z M41.5482577,36.7555511 L30.6357268,17.9041291 C30.2137383,17.1724529 29.5161336,17.1724529 29.0910307,17.9041291 L18.1784999,36.7555511 C17.7565113,37.4903016 18.108428,38.0913213 18.9633052,38.0913213 L40.7634524,38.0913213 C41.6214439,38.0913213 41.9733606,37.4903016 41.5482577,36.7555511 L41.5482577,36.7555511 Z" id="Page-1" fill="#FFFFFF"></path>
            </g>
        </g>
    </g>
</svg>