<svg width="58" height="58" viewBox="0 0 58 58" xmlns="http://www.w3.org/2000/svg"><title>Group 17</title><g fill="none"><path d="M29 .2C44.881.2 57.8 13.119 57.8 29S44.881 57.8 29 57.8.2 44.881.2 29 13.119.2 29 .2z" fill="#7AB546"/><path d="M41.486 17.955c.802-1.061 2.313-1.271 3.358-.47a2.4 2.4 0 0 1 .475 3.363L29.021 42.45a2.43 2.43 0 0 1-1.652.936c-.132.011-.132.011-.264.013-.55 0-1.088-.191-1.52-.542L13.081 32.644a2.401 2.401 0 0 1 3.038-3.718l10.573 8.637 14.794-19.608z" fill="#FFF"/></g></svg>