<svg width="72" height="56" viewBox="0 0 72 56" xmlns="http://www.w3.org/2000/svg"><title>Group 22</title><g fill="none" fill-rule="evenodd"><path d="M0 41.25h60V0H0v41.25zm8.22-37.5h43.144L29.79 25.32 8.22 3.75zm24.229 24.225L56.25 4.17v29.392L45.191 22.5l-2.651 2.651L54.885 37.5H5.115l12.349-12.349-2.655-2.651L3.75 33.563V4.578l23.396 23.396 2.644 2.651 2.659-2.651z" fill="#373737"/><path d="M57 56c8.284 0 15-6.716 15-15 0-8.284-6.716-15-15-15-8.284 0-15 6.716-15 15 0 8.284 6.716 15 15 15z" fill="#81BD60"/><path d="M55.713 44.25l-4.789-4.788a.468.468 0 0 0-.66.002.466.466 0 0 0-.003.66l5.055 5.055a.47.47 0 0 0 .721.073l7.515-7.514a.469.469 0 0 0-.663-.663l-7.176 7.176z" fill="#FFF"/></g></svg>