<svg width="34" height="45" viewBox="0 0 34 45" xmlns="http://www.w3.org/2000/svg" xmlns:xlink="http://www.w3.org/1999/xlink"><title>Page 1</title><defs><path id="a" d="M33.467 44.915V.052H0v44.863h33.467z"/><path id="c" d="M0 44.948h33.467V.085H0z"/></defs><g fill="none" fill-rule="evenodd"><g transform="translate(0 .032)"><mask id="b" fill="#fff"><use xlink:href="#a"/></mask><path d="M31.268.052H2.199A2.2 2.2 0 0 0 0 2.252v40.464a2.2 2.2 0 0 0 2.2 2.2h29.068a2.2 2.2 0 0 0 2.2-2.2V2.252a2.2 2.2 0 0 0-2.2-2.2zM2.199 42.716h29.069V2.252H2.199v40.464z" fill="#4A4A4A" mask="url(#b)"/></g><mask id="d" fill="#fff"><use xlink:href="#c"/></mask><path fill="#4A4A4A" mask="url(#d)" d="M8.688 13.245H9.4v-.676h-.712z"/><path d="M6.747 13.457H4.86a.55.55 0 0 1-.55-.55V5.085a.55.55 0 0 1 .55-.55h23.8a.55.55 0 0 1 .55.55v7.822a.55.55 0 0 1-.55.55H11.277a.55.55 0 1 1 0-1.1H28.11V5.635H5.41v6.723h1.337a.55.55 0 1 1 0 1.1m-.148 6.982h2.73v-2.414H6.6zm5.795 0h2.73v-2.414h-2.73zm5.794 0h2.73v-2.414h-2.73zm5.794 0h2.731v-2.414h-2.73zM6.599 25.655h2.73v-2.414H6.6zm5.795 0h2.73v-2.414h-2.73zm5.794 0h2.73v-2.414h-2.73zm5.794 0h2.731v-2.414h-2.73zM6.599 30.87h2.73v-2.414H6.6zm5.795 0h2.73v-2.414h-2.73zm5.794 0h2.73v-2.414h-2.73zm5.794 0h2.731v-2.414h-2.73zM6.599 36.085h2.73v-2.414H6.6zm5.795 0h2.73v-2.414h-2.73zm5.794 0h2.73v-2.414h-2.73zm5.794 0h2.731v-2.414h-2.73z" fill="#4A4A4A" mask="url(#d)"/><path d="M24.175 7.841H20.41a.38.38 0 1 1 0-.761h3.764a.38.38 0 0 1 0 .761m2.266 0h-.387a.38.38 0 1 1 0-.761h.387a.38.38 0 0 1 0 .761" fill="#4A4A4A" mask="url(#d)"/></g></svg>