<svg width="40" height="45" viewBox="0 0 40 45" xmlns="http://www.w3.org/2000/svg" xmlns:xlink="http://www.w3.org/1999/xlink"><title>Group 2</title><defs><path id="a" d="M0 44.928h39.253V0H0z"/></defs><g fill="none" fill-rule="evenodd"><mask id="b" fill="#fff"><use xlink:href="#a"/></mask><path d="M6.744 12.672h6.571v-5.53H6.744v5.53zm6.802 1.728h-7.09a1.426 1.426 0 0 1-1.441-1.44V6.854c0-.806.634-1.44 1.44-1.44h7.148c.807 0 1.441.634 1.441 1.44v6.106c-.057.806-.691 1.44-1.498 1.44zm11.47 4.032H5.879a.886.886 0 0 1-.864-.864c0-.46.403-.864.864-.864h19.137c.461 0 .865.403.865.864 0 .46-.404.864-.865.864m0 3.859H5.879a.886.886 0 0 1-.864-.864c0-.46.403-.864.864-.864h19.137c.461 0 .865.403.865.864a.886.886 0 0 1-.865.864m0 3.917H5.879a.886.886 0 0 1-.864-.864c0-.46.403-.864.864-.864h19.137c.461 0 .865.403.865.864 0 .46-.404.864-.865.864m-7.666 3.859H5.88a.886.886 0 0 1-.865-.864c0-.46.403-.864.864-.864h11.47c.462 0 .865.403.865.864a.886.886 0 0 1-.864.864" fill="#4A4A4A" mask="url(#b)"/><path d="M36.66 42.394H10.893v-2.362h21.904c.806 0 1.44-.634 1.44-1.44V10.656h2.421v31.738zm-29.916-4.09V36h21.903c.807 0 1.441-.634 1.441-1.44V6.566h2.421v31.738H6.744zm-4.15-4.032h25.765V2.534H2.594v31.738zm32.51-26.208V6.336a2.312 2.312 0 0 0-2.306-2.304h-1.845V2.304A2.312 2.312 0 0 0 28.647 0H2.306A2.312 2.312 0 0 0 0 2.304V34.56a2.312 2.312 0 0 0 2.306 2.304H4.15v1.728a2.312 2.312 0 0 0 2.306 2.304H8.3v1.728a2.312 2.312 0 0 0 2.306 2.304h26.342a2.312 2.312 0 0 0 2.305-2.304V10.368a2.312 2.312 0 0 0-2.305-2.304h-1.845z" fill="#4A4A4A" mask="url(#b)"/></g></svg>