<svg width="28" height="35" viewBox="0 0 28 35" xmlns="http://www.w3.org/2000/svg"><title>Group 10</title><g fill="none" fill-rule="evenodd"><path d="M20.065.616H7.536A7.008 7.008 0 0 0 .528 7.624v12.53a7.008 7.008 0 0 0 7.008 7.007H9.68l4.121 7.602 4.12-7.602h2.145a7.008 7.008 0 0 0 7.008-7.008V7.624A7.008 7.008 0 0 0 20.065.616z" fill="#4A4A4A" fill-rule="nonzero"/><path d="M20.988 9.588c-.236-.589-.645-.937-1.3-.948-.682-.011-1.145.323-1.414 1.06-.83 2.274-1.65 4.55-2.477 6.825-.061.17-.112.32-.153.458a2.242 2.242 0 0 0-.068.261c-.062.282-.063.505.005.712.092.4.342.724.73.909l.035.032h.037c.013.005.025.012.039.017.378.146.746.134 1.065-.017h.01l.013-.01c.343-.171.628-.504.805-.983a900.41 900.41 0 0 0 2.54-6.944 4.09 4.09 0 0 0 .169-.584c.071-.264.07-.524-.036-.788m-4.944 2.826c-.236-.588-.646-.936-1.3-.947-.683-.012-1.146.323-1.415 1.06-.83 2.273-1.65 4.55-2.477 6.825-.061.169-.112.32-.153.457a2.242 2.242 0 0 0-.068.262c-.061.282-.063.505.005.712.092.4.343.723.73.908l.036.032h.036c.013.006.025.012.039.017.379.146.746.134 1.066-.017h.01l.013-.01c.342-.17.627-.504.804-.982a898.456 898.456 0 0 0 2.54-6.944 4.21 4.21 0 0 0 .17-.585c.07-.264.07-.523-.036-.788m-2.903-2.802c-.236-.588-.645-.936-1.3-.947-.682-.012-1.145.322-1.414 1.06-.83 2.273-1.65 4.55-2.477 6.825a8.461 8.461 0 0 0-.153.457 2.242 2.242 0 0 0-.068.262c-.061.281-.063.505.005.712.092.4.343.723.73.908l.036.032h.036c.013.006.025.012.039.017.379.146.746.134 1.066-.017h.01l.013-.01c.342-.17.627-.504.804-.982a898.456 898.456 0 0 0 2.54-6.944 4.21 4.21 0 0 0 .17-.585c.07-.264.07-.523-.037-.788" fill="#FFF"/></g></svg>