<svg width="42" height="45" viewBox="0 0 42 45" xmlns="http://www.w3.org/2000/svg"><title>Page 1</title><g fill="#4A4A4A" fill-rule="evenodd"><path d="M1.996 10.529v24.79l6.985 2.79v-7.592l3.99 1.496V39.7l6.986 2.79V17.717l-6.985-2.79v7.608L8.98 21.037V13.32l-6.985-2.791zm37.917 0l-17.96 7.187v24.775l17.96-7.172v-24.79zm-9.167-4.46l-16.823 7.08 7.031 2.806 17.26-6.892-7.468-2.993zm-9.792-3.912L3.695 9.063l6.33 2.526 16.293-7.28-5.364-2.152zm.032-2.074c.127.006.244.033.343.062l19.956 7.983c.37.15.628.537.624.935v26.942c-.002.393-.26.772-.624.92L21.33 44.907a1.01 1.01 0 0 1-.749 0L.624 36.925a1.023 1.023 0 0 1-.624-.92V9.063a1.024 1.024 0 0 1 .624-.935L20.58.145a.964.964 0 0 1 .406-.062z"/><path d="M8.98 38.11l3.992 1.59v-7.687L8.98 30.516zm0-17.073l3.992 1.497v-8.9L30.746 6.07l-4.428-1.762L8.98 12.086z"/></g></svg>