<svg width="45" height="29" viewBox="0 0 45 29" xmlns="http://www.w3.org/2000/svg"><title>Page 1</title><g fill="#4A4A4A" fill-rule="evenodd"><path d="M45 1.61C45 .707 44.293 0 43.39 0H6.333c-.903 0-1.61.707-1.61 1.61V2.8h1.536V1.535h37.205v21.203h-1.263v1.536h1.189c.903 0 1.61-.707 1.61-1.61V1.61z"/><path d="M38.741 8.364v18.108H2.527V6.259H38.74v2.105zm.421-4.632H2.106A2.085 2.085 0 0 0 0 5.838v21.055c0 1.179.927 2.105 2.106 2.105h37.056c1.18 0 2.106-.926 2.106-2.105V5.838c0-1.18-.927-2.106-2.106-2.106z"/><path d="M21.296 16.887v1.912c.662-.22.735-.736.735-.956 0-.441-.147-.736-.735-.956m-1.765-2.5c0 .367.147.514.662.735v-1.618c-.368.147-.662.515-.662.883"/><path d="M21.296 19.975v.956h-1.103v-.956c-.81-.147-1.545-.514-2.06-1.176l-.146-.22.735-.957.22.294c.221.221.589.662 1.177.81v-2.28c-.882-.294-1.912-.736-1.912-2.06 0-1.102.736-1.911 1.912-2.132v-.956h1.177v.956a3.074 3.074 0 0 1 1.765 1.03l.147.22-.81.956-.22-.294a2.008 2.008 0 0 0-.882-.662v1.986c.809.294 1.985.735 1.985 2.28 0 .882-.515 1.985-1.985 2.205M20.634 8.64a7.548 7.548 0 1 0 0 15.096 7.548 7.548 0 0 0 0-15.096"/></g></svg>