<svg width="15" height="16" viewBox="0 0 15 16" xmlns="http://www.w3.org/2000/svg"><title>icn-download</title><g fill="#373737"><path d="M12.922 3C14.081 3 15 3.907 15 5.066v8.868C15 15.073 14.07 16 12.922 16H2.078A2.073 2.073 0 0 1 0 13.934V5.066C0 3.927.93 3 2.078 3h3.389v1.608H2.078a.47.47 0 0 0-.484.458v8.868a.47.47 0 0 0 .484.458h10.844a.47.47 0 0 0 .484-.458V5.066a.47.47 0 0 0-.484-.458H9.533V3h3.389z"/><path d="M4.5 7.73l1.108-1.068 1.057.904V0h1.638v7.58l1.091-.887L10.5 7.76l-.15.127-2.314 1.938c-.163.11-.359.175-.552.175-.23 0-.42-.054-.573-.19L4.5 7.73z"/></g></svg>