<svg width="25" height="25" viewBox="0 0 25 25" xmlns="http://www.w3.org/2000/svg"><title>Group 16</title><g fill="none" fill-rule="evenodd"><circle fill="#FCBD1B" cx="12.5" cy="12.5" r="12.5"/><path d="M19.364 8.034c-.237-.59-.648-.94-1.306-.952-.685-.011-1.15.325-1.42 1.065-.834 2.283-1.658 4.57-2.488 6.855a8.23 8.23 0 0 0-.154.46 2.252 2.252 0 0 0-.068.263c-.062.282-.064.507.005.715.092.401.344.726.733.912l.036.032h.036l.04.017c.38.147.749.135 1.07-.017h.01l.013-.01c.344-.172.63-.506.808-.987a867.48 867.48 0 0 0 2.55-6.974c.08-.22.136-.413.17-.587a1.206 1.206 0 0 0-.035-.792m-4.967 2.839c-.237-.59-.648-.94-1.305-.952-.686-.011-1.151.325-1.421 1.065-.834 2.284-1.657 4.57-2.488 6.855a8.23 8.23 0 0 0-.153.46 2.252 2.252 0 0 0-.069.263c-.062.282-.063.507.005.715.092.402.344.726.733.912.013.01.023.021.036.032h.037c.013.006.025.012.039.017.38.147.75.135 1.07-.017h.01l.013-.01c.344-.172.63-.506.808-.987a867.48 867.48 0 0 0 2.55-6.974c.08-.22.137-.412.171-.587a1.206 1.206 0 0 0-.036-.792m-2.914-2.814c-.238-.591-.649-.941-1.306-.952-.686-.012-1.15.324-1.421 1.065-.834 2.283-1.657 4.57-2.488 6.855a8.23 8.23 0 0 0-.153.46 2.252 2.252 0 0 0-.069.262c-.061.283-.063.507.005.715.093.402.344.727.733.912l.036.033h.037c.013.005.025.012.039.017.38.146.75.134 1.07-.017h.01l.013-.01c.344-.172.63-.507.808-.987.86-2.322 1.71-4.647 2.551-6.975.079-.219.136-.412.17-.587a1.206 1.206 0 0 0-.035-.791" fill="#FFF"/></g></svg>