<svg width="24" height="30" viewBox="0 0 24 30" xmlns="http://www.w3.org/2000/svg"><title>Group 10</title><g fill="none" fill-rule="evenodd"><path d="M17.199.528H6.459A6.007 6.007 0 0 0 .452 6.535v10.74A6.007 6.007 0 0 0 6.46 23.28h1.838l3.532 6.516 3.532-6.516H17.2a6.007 6.007 0 0 0 6.007-6.007V6.534A6.007 6.007 0 0 0 17.2.529z" fill="#373737" fill-rule="nonzero"/><path d="M17.99 8.218c-.202-.504-.553-.803-1.114-.812-.585-.01-.982.277-1.213.909-.711 1.948-1.414 3.9-2.123 5.85a7.023 7.023 0 0 0-.13.392c-.025.076-.045.15-.06.224-.052.241-.053.433.005.61.079.343.294.62.625.779l.031.027h.032l.033.015c.324.125.64.115.913-.015H15l.01-.009c.294-.146.537-.431.69-.842.733-1.98 1.459-3.965 2.176-5.952.068-.186.116-.351.145-.5a1.03 1.03 0 0 0-.03-.676m-4.239 2.422c-.203-.503-.553-.802-1.115-.811-.585-.01-.982.276-1.212.908-.712 1.949-1.414 3.9-2.123 5.85a7.023 7.023 0 0 0-.131.393c-.025.075-.044.15-.059.224-.052.241-.054.433.005.61.078.343.293.62.625.779l.03.027h.032l.033.015c.325.125.64.114.914-.015h.009l.01-.009c.294-.146.538-.431.69-.842.734-1.98 1.46-3.965 2.177-5.952a3.44 3.44 0 0 0 .145-.5 1.03 1.03 0 0 0-.03-.676m-2.488-2.402c-.202-.504-.553-.803-1.114-.812-.585-.01-.982.277-1.213.908-.711 1.95-1.414 3.901-2.123 5.85a7.023 7.023 0 0 0-.13.393c-.025.075-.045.15-.059.224-.053.241-.054.433.004.61.079.343.294.62.626.779l.03.027h.032l.033.015c.325.125.64.115.913-.015h.01l.01-.009c.294-.146.538-.431.69-.842.733-1.98 1.459-3.965 2.176-5.952.068-.186.116-.351.146-.5a1.03 1.03 0 0 0-.03-.676" fill="#FFF"/></g></svg>