<svg width="256" height="124" viewBox="0 0 256 124" xmlns="http://www.w3.org/2000/svg"><title>Group 5</title><g fill="none" fill-rule="evenodd"><path d="M125.607 70a12.962 12.962 0 0 0-3.616 9c0 7.18 5.816 13 12.99 13 .342 0 .683-.013 1.019-.04A13.459 13.459 0 0 1 125.488 97C118.04 97 112 90.956 112 83.5S118.039 70 125.488 70h.119z" fill="#FFF"/><path d="M142.335 116.25a2.583 2.583 0 0 1 0-5.165 2.583 2.583 0 1 1 0 5.165zm93-116.25H132v124h118.835V15.5L235.335 0z" fill="#656D78"/><path fill="#000" opacity=".158" d="M240.295 0h-5.166l15.5 15.5V124h5.166V15.5z"/><path d="M214.667 43.917a2.584 2.584 0 0 1-2.584 2.585h-62a2.583 2.583 0 0 1-2.581-2.585V2.583a2.58 2.58 0 0 1 2.58-2.581h62a2.58 2.58 0 0 1 2.585 2.58v41.335z" fill="#434A54"/><path d="M225 43.917a2.584 2.584 0 0 1-2.585 2.585H170.75a2.586 2.586 0 0 1-2.585-2.585V2.583A2.583 2.583 0 0 1 170.75.002h51.665A2.58 2.58 0 0 1 225 2.582v41.335z" fill="#FFF"/><path d="M206.917 10.333a2.586 2.586 0 0 0-2.584 2.584v20.666a2.586 2.586 0 0 0 2.584 2.584 2.586 2.586 0 0 0 2.585-2.584V12.917a2.586 2.586 0 0 0-2.585-2.584M225 82.667h-67.165a2.583 2.583 0 0 0 0 5.165H225a2.583 2.583 0 1 0 0-5.165m0 15.5h-67.165a2.583 2.583 0 0 0 0 5.165H225a2.583 2.583 0 1 0 0-5.165m-67.165-25.834H225a2.583 2.583 0 0 0 0-5.165h-67.165a2.583 2.583 0 1 0 0 5.165" fill="#434A54"/><rect fill="#FFF" y="48" width="141" height="39" rx="4"/><path d="M21.414 62.91h-7.128v-2.464h9.724l.77 1.518L16.992 76h-2.794l7.216-13.09zm15.708.616l-2.244.902c-.506-1.078-1.782-1.584-3.124-1.584-1.672 0-3.3.726-3.3 2.222v2.222c.858-1.122 2.31-1.386 3.3-1.386 2.904.022 5.676 1.584 5.676 4.686v.902c0 3.102-2.772 4.664-5.676 4.664-2.904.022-5.72-1.54-5.764-4.664v-6.446c0-3.124 2.86-4.686 5.764-4.664 2.222 0 4.268.858 5.368 3.146zm-2.156 7.084c0-1.474-1.562-2.244-3.212-2.244-1.672 0-3.3.748-3.3 2.244v.858c0 1.496 1.628 2.244 3.3 2.244 1.65 0 3.212-.77 3.212-2.244v-.858zm14.19-10.054v9.504H50.3v2.332h-1.144v3.564h-2.464v-3.564h-6.38l-1.43-1.914 7.942-9.922h2.332zm-2.398 9.504l.044-4.114s.352-2.662.374-2.662h-.33s-1.232 2.134-1.32 2.266l-3.432 4.51h4.664zm4.532 2.618l2.244-1.056c.66 1.364 2.134 2.09 3.52 2.09 1.584 0 3.124-.748 3.124-2.266 0-1.672-1.056-2.376-2.75-2.354h-1.804v-2.244h1.804c1.232 0 2.134-.616 2.134-1.848 0-1.32-1.21-1.914-2.486-1.914-1.144 0-2.398.638-3.08 1.87l-2.134-1.1a5.755 5.755 0 0 1 5.104-3.19c2.552 0 5.016 1.408 5.016 4.334 0 1.012-.352 2.178-1.628 2.794 1.826.726 2.288 2.156 2.288 3.674-.044 3.19-2.816 4.73-5.654 4.73-2.222 0-4.576-1.166-5.698-3.52zm18.59-9.922c-1.496-.022-2.75.88-3.366 2.222l-2.222-.902c1.034-2.42 3.256-3.828 5.676-3.762 5.39.198 6.666 5.522 3.256 8.888l-4.554 4.312h6.468v2.464h-10.12l-.748-1.716 7.194-6.798c1.804-2.002 1.694-4.51-1.584-4.708zm6.886 10.032l2.046-1.012c.88 1.408 2.222 1.958 3.564 1.958 1.694 0 3.3-.748 3.3-2.244v-2.2c-.66.99-2.178 1.32-3.3 1.32-2.882-.022-5.698-1.562-5.698-4.664v-.924c0-3.102 2.816-4.664 5.698-4.664 2.904-.022 5.72 1.54 5.764 4.664v6.49c0 3.124-2.882 4.664-5.764 4.664-2.2 0-4.51-1.144-5.61-3.388zm2.398-7.744v.902c0 1.474 1.562 2.222 3.212 2.222 1.694 0 3.3-.726 3.3-2.222v-.902c0-1.518-1.606-2.222-3.3-2.222-1.65 0-3.212.726-3.212 2.222zm16.874 8.822c1.452 0 3.168-.88 3.168-2.552 0-1.936-1.518-2.64-3.168-2.64h-.374c-1.65 0-3.168.704-3.168 2.64 0 1.672 1.716 2.552 3.168 2.552h.374zm-.374 2.266c-3.168 0-5.566-1.782-5.61-4.972 0-1.21.594-2.904 2.2-3.63-1.166-.506-1.562-1.87-1.562-2.816.022-3.08 2.464-4.268 4.972-4.268h.374c2.508 0 4.972 1.254 4.972 4.268 0 1.012-.374 2.266-1.518 2.75 1.716.682 2.178 2.2 2.178 3.696-.066 3.19-2.486 4.972-5.632 4.972h-.374zm0-13.53c-1.298 0-2.552.748-2.552 2.046 0 1.452 1.386 1.98 2.64 1.98 1.254 0 2.816-.528 2.816-1.98 0-1.298-1.254-2.046-2.53-2.046h-.374zm13.376 11.264c1.452 0 3.168-.88 3.168-2.552 0-1.936-1.518-2.64-3.168-2.64h-.374c-1.65 0-3.168.704-3.168 2.64 0 1.672 1.716 2.552 3.168 2.552h.374zm-.374 2.266c-3.168 0-5.566-1.782-5.61-4.972 0-1.21.594-2.904 2.2-3.63-1.166-.506-1.562-1.87-1.562-2.816.022-3.08 2.464-4.268 4.972-4.268h.374c2.508 0 4.972 1.254 4.972 4.268 0 1.012-.374 2.266-1.518 2.75 1.716.682 2.178 2.2 2.178 3.696-.066 3.19-2.486 4.972-5.632 4.972h-.374zm0-13.53c-1.298 0-2.552.748-2.552 2.046 0 1.452 1.386 1.98 2.64 1.98 1.254 0 2.816-.528 2.816-1.98 0-1.298-1.254-2.046-2.53-2.046h-.374zm17.38-2.046v9.504h1.144v2.332h-1.144v3.564h-2.464v-3.564h-6.38l-1.43-1.914 7.942-9.922h2.332zm-2.398 9.504l.044-4.114s.352-2.662.374-2.662h-.33s-1.232 2.134-1.32 2.266l-3.432 4.51h4.664z" fill="#373737"/></g></svg>