<svg width="16" height="16" viewBox="0 0 16 16" xmlns="http://www.w3.org/2000/svg"><title>Group 17</title><path d="M15.586 1.231C15.31.542 14.83.134 14.063.121c-.8-.013-1.342.379-1.657 1.242-.972 2.663-1.932 5.33-2.9 7.995a9.598 9.598 0 0 0-.18.536 2.84 2.84 0 0 0-.08.307c-.072.33-.074.591.006.834.107.468.401.847.855 1.064l.042.037h.043c.015.007.029.014.045.02.444.171.874.157 1.248-.02h.013l.014-.012c.402-.2.735-.59.943-1.15 1.002-2.708 1.994-5.42 2.974-8.135a4.7 4.7 0 0 0 .199-.685 1.402 1.402 0 0 0-.042-.923M9.794 4.543c-.277-.69-.756-1.098-1.523-1.11-.8-.014-1.342.378-1.657 1.241-.972 2.664-1.933 5.331-2.901 7.995a9.598 9.598 0 0 0-.18.536 2.84 2.84 0 0 0-.08.307c-.071.33-.073.591.006.834.108.469.402.847.855 1.064l.042.037H4.4l.045.02c.444.171.875.157 1.249-.02h.012l.015-.012c.401-.2.734-.59.942-1.15 1.003-2.708 1.995-5.42 2.975-8.135.092-.255.159-.48.199-.684.083-.31.082-.614-.042-.923M6.394 1.26C6.118.57 5.638.163 4.871.15c-.8-.014-1.342.378-1.657 1.242-.972 2.663-1.932 5.33-2.9 7.995a9.598 9.598 0 0 0-.18.536c-.033.103-.06.206-.08.306-.072.33-.074.592.006.834.107.469.401.847.855 1.064l.042.038H1c.015.006.029.014.045.02.444.17.874.157 1.248-.02h.013l.014-.012c.401-.2.735-.59.943-1.15 1.002-2.708 1.994-5.42 2.974-8.135.092-.256.159-.481.199-.685.084-.31.083-.613-.042-.923" fill="#FFF" fill-rule="evenodd"/></svg>