<svg width="547" height="105" viewBox="0 0 547 105" xmlns="http://www.w3.org/2000/svg" xmlns:xlink="http://www.w3.org/1999/xlink"><title>Group</title><defs><path id="a" d="M105.274.356H.254v103.788h105.02z"/></defs><g fill="none" fill-rule="evenodd"><mask id="b" fill="#fff"><use xlink:href="#a"/></mask><path d="M50.628 23.011c-1.999 1.935-4.415 3.624-5.644 6.189-5.42 15.479-11.16 30.828-16.729 46.253-2.256 6.82-6.339 13.426-5.313 20.898a157.537 157.537 0 0 1 2.598 4.18c1.314.78 2.63 1.55 3.945 2.33 1.549.438 3.099.866 4.649 1.283 2.17-.855 4.361-1.689 6.606-2.342 4.543-5.184 5.933-12.132 8.413-18.385 5.558-14.976 10.85-30.048 16.44-45.002.866-2.267 1.015-4.693 1.101-7.087.299.053.898.149 1.208.192-2.576-2.64-4.672-5.698-7.194-8.391-3.356-.225-6.724-.332-10.08-.118zM83.444 8.847c1.23-3.581 4.211-6.018 6.959-8.423 2.726-.011 5.451.011 8.178.032a126.39 126.39 0 0 1 6.691 6.628c.011 2.961-.032 5.922-.213 8.872-4.34 9.417-7.312 19.401-10.947 29.096-3.987 10.733-7.856 21.508-11.833 32.24-.609.128-1.827.374-2.437.502-.128.706-.385 2.106-.513 2.801-3.784.406-7.579.545-11.374.235-2.202-2.437-5.921-4.372-5.719-8.124-.865-5.74 2.127-10.881 3.881-16.119 5.654-15.96 11.512-31.844 17.327-47.74zm-57.979-6.82C29.206.852 33.45-.677 37.202 1.332c2.907.92 4.672 3.4 6.04 5.944.042 2.875.438 5.869-.556 8.637-6.799 18.878-13.79 37.681-20.471 56.59-1.037 3.207-3.238 5.783-5.526 8.166-3.592.396-7.515 1.647-10.893-.278-2.095-1.399-3.699-3.388-5.452-5.151-.117-3.891-.362-7.911 1.155-11.599 5.345-14.248 10.615-28.53 15.692-42.875 2.619-6.307 3.902-13.287 8.274-18.739z" fill="#FFB002" mask="url(#b)"/><path d="M232.188 11.327c3.036 7.398-6.05 15.971-13.234 12.293-4.895-3.517-1.657-10.764 2.619-13.319 3.132-2.116 8.317-2.501 10.615 1.026zm-60.973-.78c4.319-.011 8.637-.064 12.945.235-1.86 6.296-3.559 12.635-5.409 18.931 5.955-1.668 13.18-2.32 18.268 1.893 4.095 3.42 4.319 9.352 3.015 14.141-2.854 10.562-5.975 21.047-8.808 31.619-4.351.022-8.69 0-13.041 0 2.832-9.951 5.558-19.924 8.391-29.876.492-1.935 1.422-4.618-.716-5.911-3.079-2.043-6.863-1.016-10.187-.321-3.549 11.982-6.852 24.04-10.166 36.098-4.382.021-8.765 0-13.137.021 6.307-22.266 12.293-44.628 18.845-66.83zm71.245.203c4.383-.3 8.776-.16 13.17-.192a11937.629 11937.629 0 0 1-13.212 47.279c-.78 2.085-.62 4.297-.235 6.446a42.45 42.45 0 0 0 5.687 1.945c-1.048 3.709-2.117 7.408-3.101 11.138-5.077.513-11.213.289-14.569-4.19-3.261-4.629-2.331-10.667-.77-15.745 4.394-15.553 8.765-31.096 13.03-46.681zm-98.064 17.37c3.591.492 7.333 1.893 9.556 4.907 1.945 2.213 2.117 5.27 2.587 8.038-3.977 1.241-7.985 2.363-11.973 3.55-1.389-7.173-12.239-5.698-14.109.405-1.561 5.26-3.058 10.551-4.415 15.864-.759 1.795.641 3.324 1.464 4.778 4.843 1.614 9.664-.759 12.496-4.725 3.517 1.155 6.991 2.48 10.466 3.763-4.789 7.087-12.401 12.763-21.187 13.148-5.997.502-13.426-1.337-16.045-7.376-2.256-4.821-.161-10.144 1.143-14.933 1.647-5.131 2.395-10.604 4.982-15.404 5.002-8.497 15.35-13.083 25.035-12.015zm129.588 13.053c-2.373 1.817-2.598 4.991-3.517 7.61 4.436.128 8.872.064 13.308.086.492-2.438 1.85-4.971.941-7.472-2.833-2.897-7.6-2.309-10.732-.224zm15.724-12.326c5.067 1.454 8.723 6.542 8.103 11.844-.599 6.147-3.047 11.919-4.501 17.894-8.541.054-17.071.065-25.612.011-.267 2.181-1.785 4.949.438 6.574 4.298 2.983 9.867.919 13.598-1.999 2.169 2.041 4.414 4.019 6.627 6.039-4.65 5.099-11.075 8.68-18.044 9.055-6.114.588-13.383-1.54-16.184-7.483-2.148-5.463.214-11.181 1.658-16.493 1.849-6.137 2.747-12.956 7.15-17.927 6.521-7.28 17.425-10.358 26.767-7.515zm75.435 10.668c-2.619 9.108-5.131 18.258-7.632 27.408 5.259 1.935 12.742.043 14.388-5.868 1.689-6.115 3.56-12.197 5.088-18.365.984-4.008-4.073-5.996-7.279-5.473-1.582.353-4.191.246-4.565 2.298zm17.52-10.753c4.629 1.4 7.686 5.996 7.59 10.764-.192 5.153-2.106 10.006-3.378 14.944-1.465 4.736-2.202 9.941-5.452 13.896-6.029 7.825-17.263 11.694-26.638 8.028-1.796 6.307-3.517 12.624-5.302 18.931-4.34.011-8.669-.065-13.009.043 5.644-21.561 11.908-42.961 17.916-64.425 9.096-2.491 18.952-5.153 28.273-2.181zm46.158-.257c-1.037 3.506-2.074 7.013-2.908 10.583-5.58-.973-12.945.62-14.784 6.724-3.036 10.507-5.932 21.058-8.883 31.587-4.361-.054-8.722-.033-13.083 0 3.185-11.213 6.156-22.501 9.513-33.672 4.116-11.961 18.151-18.439 30.145-15.222zm15.841 12.186c-2.961 1.572-3.292 5.217-4.276 8.071 4.479.16 8.969.117 13.458.011.331-2.459 2.02-5.238.663-7.6-2.555-2.545-6.895-2.096-9.845-.482zm9.503-12.944c4.372.362 9.182 1.784 11.748 5.622 2.266 3.143 2.191 7.333 1.367 10.957-1.239 4.778-2.736 9.492-3.965 14.281-8.552-.022-17.103.085-25.655-.054-.833 2.299-.812 4.672.118 6.937 4.618 2.085 9.952 1.038 13.672-2.319 2.362 1.924 4.628 3.977 6.894 6.018-5.611 6.168-14.014 10.102-22.437 8.969-4.5-.481-9.332-2.491-11.416-6.788-2.715-5.11-.396-10.946.984-16.098 2.02-6.467 2.843-13.715 7.525-18.974 5.248-5.901 13.362-8.819 21.165-8.551zm55.04 5.066c-2.972 2.983-5.986 5.933-8.851 9.022-2.64-1.55-5.558-3.485-8.776-2.683-2.309.449-3.709 2.651-4.425 4.714 1.015 3.613 5.355 3.763 8.242 5.067 4.585 1.443 8.54 5.868 7.61 10.946-1.657 13.842-18.204 22.159-30.732 17.017-3.143-1.101-4.993-4.062-7.152-6.413 2.716-3.154 5.805-5.933 8.638-8.968 2.96 3.067 6.937 5.985 11.448 5.344 2.64-.118 3.945-2.662 4.81-4.789-.331-.62-.983-1.86-1.315-2.48-4.757-1.443-10.614-2.266-13.415-6.905-3.495-5.687-1.09-13.126 3.357-17.552 7.568-8.445 21.849-9.738 30.561-2.32zm37.189.15c-3.047 2.918-6.008 5.922-8.99 8.893-2.48-1.614-5.291-3.377-8.391-2.747-2.651.235-3.785 2.908-5.046 4.843 2.694 4.671 8.905 3.88 12.656 7.194 3.923 2.854 4.415 8.402 2.545 12.612-3.753 11.642-18.13 17.35-29.279 13.341-3.143-1.219-5.751-3.677-7.323-6.648 2.352-3.336 5.623-5.879 8.446-8.797 3.196 3.174 7.707 6.541 12.453 4.852 2.298-.545 3.741-3.196 3.228-5.419-.567-2.245-3.335-2.031-5.046-2.747-3.965-.952-8.092-2.94-9.866-6.842-2.533-5.676.043-12.293 4.137-16.515 7.568-8.348 21.956-9.642 30.476-2.02zM228.03 28.505c-4.661 16.27-9.108 32.603-13.736 48.883a749.714 749.714 0 0 0-13.074.011c4.544-16.312 9.162-32.603 13.651-48.925 4.383-.054 8.776-.043 13.159.031zm90.304.011c1.614 5.377 3.891 10.615 4.244 16.301 3.453-6.071 8.401-11.063 12.956-16.291 5.098-.021 10.197-.032 15.296.011-7.621 8.199-15.5 16.173-22.95 24.522 3.463 7.974 6.072 16.28 9.385 24.329-5.173-.032-10.347-.022-15.51-.011-1.711-5.141-3.635-10.251-4.169-15.691-3.464 5.879-8.466 10.539-12.881 15.659-4.981.064-9.952.021-14.932.011 7.631-8.081 15.082-16.334 22.671-24.457-2.811-8.199-5.654-16.376-8.915-24.415 4.939.032 9.866.042 14.805.032z" fill="#020000"/></g></svg>