<svg width="120" height="23" viewBox="0 0 120 23" xmlns="http://www.w3.org/2000/svg" xmlns:xlink="http://www.w3.org/1999/xlink"><title>Group 25</title><defs><path id="a" d="M9.719.17v11.11H.069V.17h9.65z"/></defs><g fill="none" fill-rule="evenodd"><path d="M48.29 2.41c.69-.466 1.831-.55 2.338.226.668 1.629-1.333 3.516-2.914 2.707-1.078-.775-.365-2.37.576-2.933M33.053 17.179c1.389-4.903 2.707-9.826 4.15-14.715.95-.002 1.901-.014 2.85.052-.41 1.386-.784 2.782-1.191 4.168 1.31-.367 2.902-.51 4.022.417.902.753.95 2.06.664 3.114-.629 2.325-1.316 4.634-1.94 6.962-.958.004-1.913 0-2.871 0 .624-2.192 1.224-4.388 1.848-6.579.108-.426.313-1.016-.158-1.301-.678-.45-1.511-.224-2.243-.07-.781 2.637-1.509 5.292-2.238 7.947-.965.005-1.93 0-2.893.005m16.967-4.392c.968-3.424 1.93-6.847 2.87-10.278.964-.066 1.932-.035 2.9-.042-.963 3.471-1.933 6.943-2.91 10.41-.172.459-.136.946-.052 1.419a9.4 9.4 0 0 0 1.252.428c-.23.817-.466 1.631-.682 2.453-1.118.112-2.47.063-3.208-.923-.718-1.02-.513-2.349-.17-3.467M25.785 8.979c1.101-1.871 3.38-2.88 5.512-2.645.791.108 1.615.416 2.104 1.08.429.487.466 1.16.57 1.77-.876.273-1.758.52-2.636.781-.306-1.58-2.695-1.254-3.107.09a94.867 94.867 0 0 0-.972 3.492c-.167.396.141.732.322 1.052 1.067.356 2.128-.167 2.752-1.04.774.254 1.539.546 2.304.829-1.054 1.56-2.73 2.81-4.665 2.895-1.32.11-2.956-.295-3.533-1.624-.496-1.062-.035-2.234.252-3.288.363-1.13.527-2.335 1.097-3.392m-3.506-7.255C21.884.739 21.199.156 20.102.137c-1.143-.019-1.918.541-2.369 1.775-1.39 3.807-2.762 7.62-4.146 11.428a13.72 13.72 0 0 0-.257.767 3.754 3.754 0 0 0-.114.438c-.103.47-.105.845.009 1.192.153.67.573 1.21 1.221 1.52l.06.054h.062l.064.029c.635.244 1.25.224 1.785-.029h.018l.02-.017c.574-.285 1.05-.843 1.348-1.645 1.433-3.87 2.85-7.746 4.252-11.627.131-.365.226-.687.284-.978.12-.442.118-.877-.06-1.32M14 6.457c-.396-.985-1.081-1.568-2.178-1.587-1.142-.019-1.918.541-2.368 1.775-1.39 3.807-2.763 7.62-4.147 11.428a13.72 13.72 0 0 0-.257.767 3.754 3.754 0 0 0-.113.438c-.103.471-.106.845.008 1.192a2.19 2.19 0 0 0 1.222 1.52c.02.019.038.036.06.054h.061c.022.01.042.02.065.029.634.244 1.25.224 1.784-.029h.018l.02-.017c.574-.285 1.05-.843 1.348-1.645 1.433-3.87 2.85-7.745 4.252-11.627.132-.365.227-.687.284-.978.12-.442.118-.877-.06-1.32M9.14 1.765C8.745.78 8.06.197 6.963.178 5.82.158 5.045.718 4.594 1.953 3.204 5.76 1.832 9.573.448 13.381a13.72 13.72 0 0 0-.257.766 3.754 3.754 0 0 0-.114.439c-.103.47-.105.845.009 1.192.153.67.573 1.21 1.221 1.52l.06.054h.062l.064.029c.635.244 1.25.224 1.785-.029h.018l.02-.017c.574-.286 1.05-.843 1.348-1.645 1.433-3.87 2.85-7.745 4.252-11.627.131-.365.226-.687.284-.979.12-.442.118-.876-.06-1.32m50.69 7.443c-.522.4-.572 1.1-.774 1.676.977.028 1.953.014 2.93.019.108-.537.408-1.095.207-1.645-.623-.638-1.673-.509-2.363-.05M57.4 8.148c1.436-1.603 3.836-2.28 5.894-1.654 1.115.32 1.92 1.44 1.784 2.607-.132 1.354-.671 2.625-.991 3.94-1.88.012-3.759.015-5.64.003-.058.48-.393 1.09.097 1.447.946.657 2.172.203 2.994-.44.477.45.972.885 1.459 1.33-1.024 1.123-2.438 1.91-3.973 1.993-1.346.13-2.947-.339-3.563-1.647-.473-1.203.046-2.462.364-3.632.408-1.351.605-2.852 1.575-3.947m22.502.694c-.576 2.006-1.13 4.02-1.68 6.035 1.158.426 2.805.01 3.168-1.292.371-1.346.783-2.686 1.12-4.043.217-.883-.897-1.32-1.603-1.206-.348.078-.922.055-1.005.506m-2.368-1.887c2.003-.548 4.173-1.135 6.226-.48 1.019.308 1.692 1.32 1.67 2.37-.041 1.134-.463 2.203-.743 3.29-.322 1.043-.485 2.189-1.2 3.06-1.328 1.723-3.801 2.575-5.865 1.767-.396 1.39-.775 2.78-1.168 4.169-.955.002-1.909-.014-2.864.01 1.242-4.748 2.621-9.46 3.944-14.186m9.752 2.815c.906-2.634 3.996-4.06 6.637-3.352a41.618 41.618 0 0 0-.64 2.33c-1.229-.214-2.85.137-3.255 1.48-.669 2.314-1.307 4.637-1.956 6.956a147.8 147.8 0 0 0-2.881 0c.701-2.47 1.356-4.955 2.095-7.414m10.124-.669c-.651.346-.724 1.149-.94 1.777a49.61 49.61 0 0 0 2.963.003c.073-.542.444-1.153.146-1.674-.563-.56-1.519-.461-2.168-.106m-2.568-.967c1.156-1.3 2.942-1.942 4.66-1.883.963.08 2.022.393 2.587 1.238.5.692.482 1.615.301 2.413-.273 1.052-.602 2.09-.873 3.144-1.883-.005-3.766.019-5.649-.012a2.075 2.075 0 0 0 .026 1.528c1.017.459 2.191.228 3.01-.51.52.423 1.02.875 1.519 1.324-1.236 1.358-3.086 2.224-4.94 1.975-.992-.106-2.056-.548-2.514-1.495-.598-1.125-.087-2.41.216-3.544.445-1.424.626-3.02 1.657-4.178m10.05-.257c1.666-1.859 4.811-2.144 6.73-.51-.655.656-1.319 1.306-1.95 1.986-.581-.341-1.224-.767-1.932-.59-.508.098-.817.583-.974 1.037.223.796 1.179.829 1.814 1.116 1.01.318 1.88 1.292 1.676 2.41-.365 3.048-4.008 4.88-6.767 3.747-.692-.242-1.099-.894-1.574-1.412.598-.695 1.278-1.306 1.901-1.975.652.676 1.528 1.318 2.521 1.177.582-.026.869-.586 1.06-1.054l-.29-.546c-1.048-.318-2.337-.5-2.954-1.52-.77-1.253-.24-2.891.739-3.866" fill="#FFF"/><g transform="translate(110.092 6.118)"><mask id="b" fill="#fff"><use xlink:href="#a"/></mask><path d="M3.008 1.726c1.667-1.838 4.835-2.123 6.71-.445-.67.643-1.322 1.304-1.979 1.959-.546-.356-1.165-.744-1.847-.606-.584.052-.833.64-1.111 1.067.593 1.028 1.96.854 2.786 1.584.864.628.973 1.85.56 2.777-.826 2.563-3.991 3.82-6.446 2.937-.692-.268-1.266-.81-1.612-1.464.518-.734 1.238-1.294 1.86-1.937.703.7 1.696 1.44 2.741 1.069.506-.12.824-.704.711-1.193-.125-.495-.734-.448-1.111-.605-.873-.21-1.782-.648-2.172-1.506-.558-1.25.01-2.707.91-3.637" fill="#FFF" mask="url(#b)"/></g><path d="M46.815 6.411c.965-.012 1.932-.01 2.897.007-1.026 3.582-2.005 7.179-3.024 10.763-.96-.009-1.919-.004-2.879.003 1-3.592 2.017-7.179 3.006-10.773m19.521.002c1.087.008 2.172.01 3.26.008.355 1.183.856 2.337.934 3.589.76-1.337 1.85-2.436 2.853-3.587 1.122-.005 2.245-.007 3.368.002-1.678 1.805-3.413 3.561-5.054 5.4.763 1.755 1.337 3.584 2.067 5.356a420.45 420.45 0 0 0-3.415-.002c-.377-1.132-.8-2.257-.918-3.455-.763 1.294-1.864 2.32-2.836 3.448-1.097.014-2.192.005-3.288.002 1.68-1.779 3.32-3.596 4.992-5.385-.62-1.805-1.245-3.605-1.963-5.376" fill="#FFF"/></g></svg>