<svg width="36" height="44" viewBox="0 0 36 44" xmlns="http://www.w3.org/2000/svg" xmlns:xlink="http://www.w3.org/1999/xlink"><title>Group 18</title><defs><path d="M23.505.722H8.828a8.21 8.21 0 0 0-8.21 8.21v14.676a8.21 8.21 0 0 0 8.21 8.21h2.512l4.827 8.904 4.827-8.905h2.511a8.21 8.21 0 0 0 8.21-8.209V8.931a8.21 8.21 0 0 0-8.21-8.209z" id="b"/><filter x="-12.9%" y="-5%" width="125.7%" filterUnits="objectBoundingBox" id="a"><feOffset dy="2" in="SourceAlpha" result="shadowOffsetOuter1"/><feGaussianBlur stdDeviation="1" in="shadowOffsetOuter1" result="shadowBlurOuter1"/><feColorMatrix values="0 0 0 0 0 0 0 0 0 0 0 0 0 0 0 0 0 0 0.6 0" in="shadowBlurOuter1"/></filter></defs><g fill="none" fill-rule="evenodd"><g transform="translate(2)" fill-rule="nonzero"><use fill="#000" filter="url(#a)" xlink:href="#b"/><use fill="#FFB002" fill-rule="evenodd" xlink:href="#b"/></g><path d="M25.908 11.096c-.256-.68-.699-1.083-1.407-1.096-.739-.013-1.24.374-1.531 1.226-.899 2.63-1.786 5.263-2.68 7.893a8.912 8.912 0 0 0-.166.529 2.707 2.707 0 0 0-.074.302c-.067.326-.068.584.005.824.1.462.371.836.79 1.05l.039.037h.04l.041.02c.41.168.808.155 1.154-.02h.011l.014-.012c.37-.197.678-.582.87-1.136.927-2.672 1.843-5.35 2.749-8.03a4.9 4.9 0 0 0 .183-.676 1.478 1.478 0 0 0-.038-.91m-6 2.999c-.256-.68-.699-1.083-1.407-1.096-.739-.013-1.24.374-1.531 1.226-.899 2.63-1.786 5.263-2.68 7.893a8.912 8.912 0 0 0-.166.529 2.707 2.707 0 0 0-.074.302c-.067.326-.068.584.005.824.1.462.371.836.79 1.05l.039.037h.04l.041.02c.41.168.808.155 1.154-.02h.011l.014-.012c.37-.197.678-.582.87-1.136.927-2.672 1.843-5.349 2.749-8.03a4.9 4.9 0 0 0 .183-.676 1.478 1.478 0 0 0-.038-.91m-3-3.001c-.256-.68-.699-1.083-1.407-1.096-.739-.013-1.24.374-1.531 1.226-.899 2.63-1.786 5.263-2.68 7.893a8.912 8.912 0 0 0-.166.529 2.707 2.707 0 0 0-.074.302c-.067.326-.068.584.005.824.1.462.371.836.79 1.05l.039.037h.04l.041.02c.41.168.808.155 1.154-.02h.011l.014-.012c.37-.197.678-.582.87-1.136.927-2.672 1.843-5.349 2.749-8.03a4.9 4.9 0 0 0 .183-.676 1.478 1.478 0 0 0-.038-.91" fill="#FFF"/></g></svg>