<svg width="64" height="69" viewBox="0 0 64 69" xmlns="http://www.w3.org/2000/svg"><title>Group 10</title><g fill="none" fill-rule="evenodd"><rect stroke="#373737" stroke-width="3" x="1.5" y="1.5" width="57" height="57" rx="28.5"/><path d="M21 40.5a2.786 2.786 0 0 1 2.786-2.786h12.857a2.786 2.786 0 0 1 2.786 2.786 1.5 1.5 0 0 0 3 0 5.786 5.786 0 0 0-5.786-5.786H23.786A5.786 5.786 0 0 0 18 40.5a1.5 1.5 0 0 0 3 0zm14.143-16.071a4.928 4.928 0 1 0-9.856-.001 4.928 4.928 0 0 0 9.856 0zm3 0a7.928 7.928 0 0 1-7.929 7.928 7.928 7.928 0 0 1-7.928-7.928 7.928 7.928 0 1 1 15.857 0z" fill-rule="nonzero" fill="#373737"/><path d="M49 69c8.284 0 15-6.716 15-15 0-8.284-6.716-15-15-15-8.284 0-15 6.716-15 15 0 8.284 6.716 15 15 15z" fill="#7AB546"/><path d="M47.713 57.25l-4.789-4.788a.468.468 0 0 0-.66.002.466.466 0 0 0-.003.66l5.055 5.055a.47.47 0 0 0 .721.073l7.515-7.514a.469.469 0 0 0-.663-.663l-7.176 7.176z" fill="#FFF"/></g></svg>