<?xml version="1.0" encoding="UTF-8"?>
<svg width="23px" height="24px" viewBox="0 0 23 24" version="1.1" xmlns="http://www.w3.org/2000/svg" xmlns:xlink="http://www.w3.org/1999/xlink">
    <!-- Generator: Sketch 48.2 (47327) - http://www.bohemiancoding.com/sketch -->
    <title>Group 21</title>
    <desc>Created with Sketch.</desc>
    <defs></defs>
    <g id="Iconos_cxp" stroke="none" stroke-width="1" fill="none" fill-rule="evenodd" transform="translate(-81.000000, -416.000000)">
        <g id="Group-21" transform="translate(81.000000, 416.000000)" fill="#373737" fill-rule="nonzero">
            <path d="M15.9718605,21.6094799 C14.5716562,22.2405047 13.0685409,22.56 11.5,22.56 C5.42307189,22.56 0.479166667,17.6074967 0.479166667,11.52 C0.479166667,5.43250332 5.42307189,0.48 11.5,0.48 C17.5769281,0.48 22.5208333,5.43250332 22.5208333,11.52 C22.5208333,13.6378424 21.9229272,15.6806517 20.7869923,17.454396 L22.4070884,22.0713682 C22.4937707,22.2176504 22.54,22.3861762 22.54,22.56 C22.54,23.0900567 22.1108031,23.52 21.5816667,23.52 C21.4550571,23.52 21.3495037,23.5022974 21.2445261,23.465962 L15.9718605,21.6094799 Z M18.1650188,17.119244 C18.0719013,16.8493572 18.1130922,16.5522458 18.2763553,16.322056 C19.2679199,14.9152485 19.7916667,13.260678 19.7916667,11.535301 C19.7916667,6.94511769 16.0716389,3.21 11.5,3.21 C6.92836111,3.21 3.20833333,6.94511769 3.20833333,11.535301 C3.20833333,16.1254843 6.92836111,19.860602 11.5,19.860602 C12.7870266,19.860602 14.0088255,19.5762492 15.1405196,19.012333 C15.2608278,18.9544869 15.3914327,18.9237865 15.5236404,18.9237865 C15.6221453,18.9237865 15.7199175,18.940148 15.8132082,18.9731056 L19.2371722,20.1811893 L18.1650188,17.119244 Z" id="Shape-Copy-109"></path>
            <path d="M15.3333333,9.12 C16.6550114,9.12 17.7291667,10.1960233 17.7291667,11.52 C17.7291667,12.8439767 16.6550114,13.92 15.3333333,13.92 C14.0116552,13.92 12.9375,12.8439767 12.9375,11.52 C12.9375,10.1960233 14.0116552,9.12 15.3333333,9.12 Z M15.3333333,12 C15.5972921,12 15.8125,11.784269 15.8125,11.52 C15.8125,11.255731 15.5972921,11.04 15.3333333,11.04 C15.0693745,11.04 14.8541667,11.255731 14.8541667,11.52 C14.8541667,11.784269 15.0693745,12 15.3333333,12 Z" id="Shape-Copy-108"></path>
            <path d="M7.66666667,9.12 C8.98834478,9.12 10.0625,10.1960233 10.0625,11.52 C10.0625,12.8439767 8.98834478,13.92 7.66666667,13.92 C6.34498856,13.92 5.27083333,12.8439767 5.27083333,11.52 C5.27083333,10.1960233 6.34498856,9.12 7.66666667,9.12 Z M7.66666667,12 C7.93062546,12 8.14583333,11.784269 8.14583333,11.52 C8.14583333,11.255731 7.93062546,11.04 7.66666667,11.04 C7.40270788,11.04 7.1875,11.255731 7.1875,11.52 C7.1875,11.784269 7.40270788,12 7.66666667,12 Z" id="Shape-Copy-107"></path>
        </g>
    </g>
</svg>