<?xml version="1.0" encoding="UTF-8"?>
<svg width="23px" height="22px" viewBox="0 0 23 22" version="1.1" xmlns="http://www.w3.org/2000/svg" xmlns:xlink="http://www.w3.org/1999/xlink">
    <!-- Generator: Sketch 48.2 (47327) - http://www.bohemiancoding.com/sketch -->
    <title>map</title>
    <desc>Created with Sketch.</desc>
    <defs></defs>
    <g id="Iconos_cxp" stroke="none" stroke-width="1" fill="none" fill-rule="evenodd" transform="translate(-19.000000, -360.000000)">
        <g id="map" transform="translate(30.500000, 371.000000) scale(1, -1) translate(-30.500000, -371.000000) translate(19.000000, 360.000000)" fill="#373737" fill-rule="nonzero">
            <g id="Group" transform="translate(11.500000, 11.000000) scale(-1, 1) rotate(-180.000000) translate(-11.500000, -11.000000) ">
                <g transform="translate(-0.000000, 0.000000)" id="Shape">
                    <path d="M15.177125,2.12384615 L8.26059375,0.359446154 C8.21710937,0.348953846 8.173625,0.358092308 8.12942188,0.355384615 C8.09420312,0.348276923 8.0600625,0.354030769 8.024125,0.351323077 C7.98890625,0.354030769 7.95404688,0.347938462 7.91882813,0.355384615 C7.87534375,0.358769231 7.83114063,0.348615385 7.788375,0.359446154 L0.68425,2.17190769 C0.371234375,2.25178462 0.153453125,2.51950769 0.153453125,2.82513846 L0.153453125,21.3230769 C0.153453125,21.5352923 0.25946875,21.7356615 0.439875,21.8639385 C0.56565625,21.9529538 0.71803125,22 0.8725625,22 C0.9386875,22 1.00517188,21.9915385 1.07057813,21.9736 L8.02448438,20.0988615 L14.9798281,21.9736 C15.0445156,21.9915385 15.1113594,22 15.177125,22 C15.2428906,22 15.3097344,21.9915385 15.3751406,21.9736 L22.4792656,20.0585846 C22.78725,19.976 23,19.7103077 23,19.4080615 L23,1.01267692 C23,0.801815385 22.8954219,0.603476923 22.7178906,0.4752 C22.5403594,0.346923077 22.3078438,0.305292308 22.0932969,0.359446154 L15.177125,2.12384615 Z M2.26948543,18.9722987 L2.26948543,4.56941418 L6.97534704,3.3500061 L6.97534704,17.6844005 L2.26948543,18.9722987 Z M9.25577632,3.3500061 L13.9657764,4.56923522 L13.9657764,18.970006 L9.25577632,17.6822969 L9.25577632,3.3500061 Z M20.7989688,17.6822969 L16.0889687,18.970006 L16.0889687,4.56923522 L20.7989688,3.3500061 L20.7989688,17.6822969 Z"></path>
                </g>
            </g>
        </g>
    </g>
</svg>