<?xml version="1.0" encoding="UTF-8"?>
<svg width="88px" height="88px" viewBox="0 0 88 88" version="1.1" xmlns="http://www.w3.org/2000/svg" xmlns:xlink="http://www.w3.org/1999/xlink">
    <!-- Generator: Sketch 46.2 (44496) - http://www.bohemiancoding.com/sketch -->
    <title>Group 40</title>
    <desc>Created with Sketch.</desc>
    <defs>
        <filter x="-8.8%" y="-6.2%" width="117.5%" height="117.5%" filterUnits="objectBoundingBox" id="filter-1">
            <feOffset dx="0" dy="2" in="SourceAlpha" result="shadowOffsetOuter1"></feOffset>
            <feGaussianBlur stdDeviation="2" in="shadowOffsetOuter1" result="shadowBlurOuter1"></feGaussianBlur>
            <feColorMatrix values="0 0 0 0 0   0 0 0 0 0   0 0 0 0 0  0 0 0 0.2 0" type="matrix" in="shadowBlurOuter1" result="shadowMatrixOuter1"></feColorMatrix>
            <feMerge>
                <feMergeNode in="shadowMatrixOuter1"></feMergeNode>
                <feMergeNode in="SourceGraphic"></feMergeNode>
            </feMerge>
        </filter>
        <polygon id="path-2" points="39.9159902 0.0612544757 0.60061307 0.0612544757 0.60061307 15.6227566 39.9159902 15.6227566 39.9159902 0.0612544757"></polygon>
    </defs>
    <g id="Biblioteca" stroke="none" stroke-width="1" fill="none" fill-rule="evenodd">
        <g id="Tracking-Elements" transform="translate(-1338.000000, -1389.000000)">
            <g id="Group-40" filter="url(#filter-1)" transform="translate(1342.000000, 1391.000000)">
                <g id="Group-18">
                    <circle id="Oval" fill="#FFFFFF" cx="40" cy="40" r="40"></circle>
                    <g id="Page-1" transform="translate(14.000000, 9.000000)">
                        <g id="Group-5" transform="translate(0.000000, 43.779471)" fill-rule="nonzero" fill="#4A4A4A">
                            <path d="M45.0056038,4.32120627 L44.8830361,5.81619026 C42.7934149,5.64487053 38.9233281,6.1004038 32.470865,7.25262159 L31.2097822,7.47781344 L30.7900023,6.26751341 C30.6978153,6.00172193 30.1283526,5.56725162 29.2153625,5.1756051 C28.7399261,4.97165653 28.219165,4.79605667 27.6969556,4.65191817 C27.4529092,4.58455731 27.2545477,4.53614127 27.1212424,4.50656883 C26.610873,4.47849425 26.4589183,4.47013459 24.1638452,4.34387325 C21.0915928,4.17484535 19.5554648,4.09032413 17.4048854,3.97197433 C14.7342283,3.82499628 13.7437615,3.77047909 12.3017935,3.69108705 C8.77317522,3.4955309 6.35100188,4.29819607 4.76295746,5.71504595 C4.28589271,6.14068212 3.92378806,6.59097863 3.661365,7.03349326 C3.59205039,7.150376 3.53897047,7.24965926 3.50056531,7.32720437 L3.50056411,12.0659689 C3.50056359,12.0655667 3.51106094,12.0930328 3.57198291,12.1727577 C3.68992661,12.3271036 3.90078423,12.5109075 4.1988787,12.7055731 C4.82684339,13.115655 5.74790776,13.5156116 6.87271449,13.8809104 C8.43492853,14.3882642 10.471091,14.8263392 11.016694,14.8912783 C12.1662858,15.1165403 13.2729198,15.3100388 14.4431449,15.4906153 C17.0789237,15.8973402 19.9103881,16.2210424 22.7428961,16.4693568 C23.735061,16.5563359 24.6560876,16.6276355 25.4819571,16.6843108 C25.764317,16.7036877 25.9999357,16.718983 26.1843314,16.7303972 C26.4538088,16.6231816 26.47287,16.6155914 26.9132471,16.4402335 C27.7395087,16.1111374 28.6602408,15.7438846 29.6518132,15.3477103 C32.4847489,14.2158351 35.3176273,13.0790406 37.9612629,12.0112684 C38.1129714,11.9499873 38.1129714,11.9499873 38.2646485,11.8886964 C41.4934866,10.5838399 44.1932014,9.48126157 46.1964182,8.64643437 C47.3237308,8.1766344 48.2153665,7.79786945 48.847818,7.51951909 C48.9737691,7.46408633 49.0889265,7.41285851 49.1929127,7.36601278 C49.1707388,7.33471171 49.1456209,7.30210634 49.1173418,7.26838085 C48.5339658,6.57264978 47.1686044,6.00161378 44.8843108,5.81629422 L45.0056038,4.32120627 Z M45.0056038,4.32120627 L45.1268969,2.82611831 C48.1449108,3.07096292 50.2516753,3.9520765 51.4161447,5.34081621 C52.5272754,6.66594456 52.6852576,8.49821365 51.6026814,9.45653222 C51.1204829,9.88618616 47.7241808,11.3015723 39.3887061,14.6701519 C39.2367597,14.7315516 39.2367597,14.7315516 39.0847878,14.792939 C36.4372655,15.8622811 33.601046,17.0004164 30.7648839,18.1335807 C29.7722721,18.5301702 28.8505474,18.897819 28.0233221,19.2272989 C27.5623943,19.4108401 27.5623943,19.4108401 27.2550321,19.5331284 C27.0303566,19.622483 27.0303566,19.622483 26.9828629,19.6413552 L26.6766115,19.7630474 L26.3475536,19.745165 C26.2950791,19.7423085 26.2008193,19.736882 26.0632564,19.7284895 C25.8358784,19.7146175 25.5726583,19.6975909 25.2765651,19.6772715 C24.4324751,19.6193458 23.4926897,19.5465941 22.4809031,19.4578949 C19.5878354,19.2042714 16.6937241,18.8734072 13.9856323,18.4555238 C12.7930531,18.2714978 11.6607087,18.0738997 10.5974331,17.8620579 C9.80297667,17.7559905 7.65006257,17.2876107 5.94606051,16.7342089 C2.55903383,15.6342183 0.503462248,14.2918613 0.500565385,12.0679237 L0.500565385,6.7881494 L0.575752477,6.55970504 C0.852567713,5.71864472 1.52659717,4.58205293 2.76573144,3.47649995 C4.96013128,1.51866104 8.16345468,0.457136633 12.4672583,0.69565368 C13.9086561,0.775014228 14.8991016,0.829530238 17.5634715,0.976162295 C19.7202928,1.0948556 21.2564087,1.17937615 24.328644,1.34840312 C26.7864322,1.48361608 26.7864322,1.48361608 27.4008763,1.51741557 L27.6120111,1.5441501 C27.8009919,1.58185921 28.1077486,1.65312349 28.495158,1.76005495 C29.1393011,1.93784917 29.7848924,2.15554161 30.3980516,2.41856931 C31.480115,2.88274341 32.3537458,3.42856326 32.9485824,4.12178282 C39.0673189,3.05318319 42.8102118,2.63618196 45.1281716,2.82622227 L45.0056038,4.32120627 Z" id="Fill-3"></path>
                        </g>
                        <path d="M40.8886615,48.2459639 C38.6101615,48.4804818 35.7210462,48.9266379 32.2081231,49.5558322 C32.0630077,49.1439959 31.7577,48.7798258 31.3638154,48.4652286 C31.1320077,48.5319614 30.8983154,48.5986941 30.6646231,48.6654269 C23.8950846,50.5701698 19.1496231,51.5902274 16.9427385,51.6150138 C16.2567385,51.6226404 15.7007769,52.1870087 15.7007769,52.8867491 C15.7007769,53.5883962 16.2642769,54.1565777 16.9578154,54.1565777 L16.9728923,54.1565777 C22.4118923,54.0936583 38.3840077,49.0486634 40.8886615,48.2459639" id="Fill-6" fill="#4A4A4A"></path>
                        <g id="Group-10" transform="translate(6.537037, 0.019880)">
                            <mask id="mask-3" fill="white">
                                <use xlink:href="#path-2"></use>
                            </mask>
                            <g id="Clip-9"></g>
                            <polygon id="Fill-8" fill="#4A4A4A" mask="url(#mask-3)" points="31.7241309 -0.852360997 8.79247237 -0.852360997 0.60061307 7.59219015 0.60061307 8.55619015 39.9159902 7.70971317 39.9159902 7.59219015"></polygon>
                        </g>
                        <path d="M5.94444444,40.4272139 L5.94444444,7.02568581 L47.0555556,7.02568581 L47.0555556,40.4272139 L5.94444444,40.4272139 Z M8.94444444,37.4272139 L44.0555556,37.4272139 L44.0555556,10.0256858 L8.94444444,10.0256858 L8.94444444,37.4272139 Z" id="Fill-11" fill="#4A4A4A" fill-rule="nonzero"></path>
                        <polygon id="Fill-11" fill="#FCBD1B" style="mix-blend-mode: multiply;" points="3 32.172145 39.5699663 32.172145 39.5699663 3 3 3"></polygon>
                        <polygon id="Fill-13" fill="#FFFFFF" points="29.7549192 0.0805626598 23.0777269 0.0805626598 21.4079577 8.52511381 31.4246885 8.52511381"></polygon>
                        <polygon id="Fill-14" fill="#4A4A4A" points="31.4250654 16.1252098 29.7552962 16.9717623 28.0855269 16.1252098 26.4157577 16.9717623 24.7459885 16.1252098 23.0781038 16.9717623 21.4083346 16.1252098 21.4083346 8.52530448 31.4250654 8.52530448"></polygon>
                        <path d="M18.90255,30.4828535 L10.5555885,30.4828535 C10.0957423,30.4828535 9.72070385,30.8603701 9.72070385,31.3255926 C9.72070385,31.7927217 10.0957423,32.172145 10.5555885,32.172145 L18.90255,32.172145 C19.3642808,32.172145 19.7374346,31.7927217 19.7374346,31.3255926 C19.7374346,30.8603701 19.3642808,30.4828535 18.90255,30.4828535" id="Fill-15" fill="#434A54"></path>
                        <path d="M14.7303885,33.8602926 L10.5559654,33.8602926 C10.0961192,33.8602926 9.72108077,34.2359026 9.72108077,34.7049384 C9.72108077,35.1701609 10.0961192,35.5476775 10.5559654,35.5476775 L14.7303885,35.5476775 C15.1902346,35.5476775 15.5652731,35.1701609 15.5652731,34.7049384 C15.5652731,34.2359026 15.1902346,33.8602926 14.7303885,33.8602926" id="Fill-16" fill="#434A54"></path>
                    </g>
                </g>
            </g>
        </g>
    </g>
</svg>