<svg width="80" height="80" viewBox="0 0 80 80" xmlns="http://www.w3.org/2000/svg"><title>transit_green</title><g fill="none"><circle fill="#7AB546" cx="40" cy="40" r="40"/><path d="M49.2 36.7H16.3c-1.3 0-2.3.5-2.3 1.2v14.2c0 .7 1.1 1.2 2.3 1.2h13c1-3.4 2-6.7 3-10.1.4-1.2 1-1.8 2-1.8.9 0 1.5.6 1.8 1.6.1.4.1.9.1 1.3-.1.3-.1.7-.2 1-.8 2.7-1.6 5.3-2.4 8h1.2c.5-1.8 1.1-3.6 1.6-5.4.4-1.2 1-1.8 2-1.8.9 0 1.5.6 1.8 1.6.1.4.1.9 0 1.3-.1.3-.1.7-.2 1l-1 3.2h1.2c1-3.4 2-6.8 3-10.1.4-1.2 1-1.8 2-1.8.9 0 1.5.6 1.8 1.6.1.4.1.9 0 1.3-.1.3-.1.7-.2 1-.8 2.7-1.6 5.3-2.4 8h4.8c1.3 0 2.3-.5 2.3-1.2V37.9c.1-.7-1-1.2-2.3-1.2z" fill="#3A8013"/><g fill="#1A270F"><path d="M67.8 41.1l-4.7-7.6h-9.9v-8.7c0-1.9-1.6-3.5-3.5-3.5H14.5c-1.9 0-3.5 1.6-3.5 3.5v24.9c-.2 0-.3-.1-.5-.1-1 0-1.8.8-1.8 1.8v3.5c0 1 .9 1.7 1.8 1.7.2 0 .5-.1.7-.2.5 1.3 1.8 2.2 3.3 2.2h2.9c.9 2.5 3.2 4.2 5.9 4.2s5.1-1.8 5.9-4.2h20.5c.7 0 1.4-.2 2-.6v.7h3.6a6.3 6.3 0 0 0 5.9 4.1c2.7 0 5-1.7 5.9-4.1h5.3V46l-4.6-4.9zm-16.5 14c0 .8-.7 1.5-1.5 1.5H30.2v-.1c0-3.8-3.1-6.9-6.9-6.9-3.8 0-6.9 3.1-6.9 6.9v.1h-2c-.8 0-1.5-.7-1.5-1.5V24.8c0-.4.2-.8.4-1.1.3-.3.7-.4 1.1-.4h35.3c.8 0 1.5.7 1.5 1.5l.1 30.3zm-28 4.8c-.7 0-1.4-.2-1.9-.6-.3-.2-.5-.4-.7-.6-.2-.3-.4-.6-.6-1-.1-.3-.2-.6-.2-1v-.1c0-1.8 1.5-3.4 3.3-3.4 1.8 0 3.3 1.5 3.3 3.4v.1c0 .4-.1.7-.2 1-.1.4-.3.7-.6 1-.2.2-.4.5-.7.6-.3.4-1 .6-1.7.6zm38 0c-.7 0-1.4-.2-1.9-.6-.2-.2-.4-.3-.6-.5-.5-.6-.9-1.4-.8-2.2v-.3c.2-1.7 1.6-3 3.3-3 1.7 0 3.1 1.3 3.3 3v.3c0 .9-.3 1.6-.8 2.2-.2.2-.4.4-.6.5-.5.4-1.2.6-1.9.6zm8.9-3.7h-2c-.2-3.7-3.2-6.6-6.8-6.6-3.7 0-6.7 2.9-6.8 6.6h-.3L53.7 36H62l4 6.5.1.2.2.2 4 4.3-.1 9z"/><path d="M61.2 37.1h-6v7.8h10.9l-1.9-2.3zm-3 9.2h-2.7c-.3 0-.6.2-.6.6 0 .3.2.6.6.6h2.7c.3 0 .6-.2.6-.6-.1-.3-.3-.6-.6-.6z"/></g></g></svg>