<svg width="80" height="80" viewBox="0 0 80 80" xmlns="http://www.w3.org/2000/svg"><title>Group 27</title><g fill="none" fill-rule="evenodd"><circle cx="40" cy="40" r="40" fill="#FFF"/><g transform="translate(8 22)"><path d="M41.79.24a2.527 2.527 0 0 1 2.523 2.53v30.371c0 1.397-1.13 2.53-2.522 2.53H6.475a2.527 2.527 0 0 1-2.522-2.53V2.771A2.528 2.528 0 0 1 6.477.24h35.314z" stroke="#4A4A4A" stroke-width="2" fill="#FFF"/><path d="M2.445 27.632c-.977 0-1.765.79-1.765 1.768v3.541a1.765 1.765 0 0 0 3.527 0V29.4c0-.977-.789-1.768-1.762-1.768m41.136-16.149l.196 25.293h20.695l.024-12.653-4.653-5.062-4.652-7.591z" fill="#4A4A4A"/><path fill="#FFF" d="M45.685 14.012l8.265-.01 3.96 6.463.128.207.162.179 3.97 4.318-.02 9.077H46.192z"/><rect fill="#4A4A4A" x="46.884" y="24.316" width="3.853" height="1.105" rx=".553"/><path fill="#4A4A4A" d="M47.23 22.9h10.895l-1.875-2.319-3.048-5.497h-6.024z"/><path d="M36.403 31.25h4.83c1.296 0 2.348-.53 2.348-1.184v-14.21c0-.654-1.052-1.184-2.348-1.184H8.35c-1.296 0-2.35.53-2.35 1.183v14.211c0 .654 1.052 1.184 2.348 1.184h13.047c1-3.36 1.995-6.724 3-10.082.372-1.24 1.012-1.804 1.954-1.784.904.018 1.47.604 1.795 1.594.147.446.148.883.05 1.327a7.972 7.972 0 0 1-.235.983c-.787 2.657-1.58 5.311-2.379 7.962h1.224c.531-1.789 1.064-3.578 1.6-5.366.37-1.24 1.01-1.804 1.952-1.784.905.018 1.47.604 1.796 1.595.146.445.147.882.049 1.326a7.972 7.972 0 0 1-.234.983l-.965 3.246h1.215c1.005-3.374 2.004-6.751 3.014-10.123.371-1.24 1.01-1.804 1.953-1.784.904.018 1.47.604 1.795 1.594L33.976 31.25l5.003-10.313c.147.446.148.882.05 1.327a7.972 7.972 0 0 1-.235.983 1739.9 1739.9 0 0 1-2.391 8.003z" fill="#FCBD1B"/><rect fill="#4A4A4A" x="46.884" y="24.316" width="3.853" height="1.105" rx=".553"/></g><path d="M54.448 56.564c0 3.8 13.718 3.8 13.718 0 0-3.801-3.07-6.882-6.859-6.882-3.788 0-6.859 3.08-6.859 6.882zm-38 0c0 3.8 13.718 3.8 13.718 0 0-3.801-3.07-6.882-6.859-6.882-3.788 0-6.859 3.08-6.859 6.882z" fill="#4A4A4A"/><path d="M61.307 50.237c-3.483 0-6.306 2.832-6.306 6.327 0 3.494 2.823 6.326 6.306 6.326s6.306-2.832 6.306-6.326c0-3.495-2.823-6.327-6.306-6.327m-38 0c-3.483 0-6.306 2.832-6.306 6.327 0 3.494 2.823 6.326 6.306 6.326s6.306-2.832 6.306-6.326c0-3.495-2.823-6.327-6.306-6.327" fill="#4A4A4A"/><path d="M19.966 56.565a3.346 3.346 0 0 0 3.343 3.349 3.342 3.342 0 0 0 3.337-3.349 3.346 3.346 0 0 0-3.337-3.354 3.35 3.35 0 0 0-3.343 3.354m41.343 3.349a3.342 3.342 0 0 0 3.337-3.349 3.346 3.346 0 0 0-3.337-3.354 3.35 3.35 0 0 0-3.343 3.354 3.346 3.346 0 0 0 3.343 3.349z" fill="#FFF"/><circle fill="#FFB002" style="mix-blend-mode:multiply" cx="40" cy="40" r="40"/></g></svg>