<svg width="80" height="80" viewBox="0 0 80 80" xmlns="http://www.w3.org/2000/svg" xmlns:xlink="http://www.w3.org/1999/xlink"><title>received_green.svg</title><defs><circle id="a" cx="40" cy="40" r="40"/><path id="c" d="M65.074.707v30.382H0V.707h65.073z"/></defs><g fill="none" fill-rule="evenodd"><mask id="b" fill="#fff"><use xlink:href="#a"/></mask><use fill="#7AB546" xlink:href="#a"/><g mask="url(#b)"><g transform="translate(8.533 50.343)"><mask id="d" fill="#fff"><use xlink:href="#c"/></mask><path d="M59.712 14.324l-.24-.07c-3.524-.948-4.717-1.858-6.284-2.458-5.56-2.126-7.008-3.655-7.379-4.379-.013-.027-.023-.055-.034-.08l-.047-6.48-13.191-.15-13.19.15-.046 6.48c-.011.025-.022.053-.037.08-.368.724-1.816 2.253-7.377 4.38-1.569.6-2.761 1.509-6.283 2.457l-.24.07A7.807 7.807 0 0 0 0 21.734v9.356h65.074v-9.355a7.807 7.807 0 0 0-5.363-7.41" fill="#1A270F" mask="url(#d)"/></g><path d="M43.11 55.1v1.674c-.518.108-1.043.19-1.575.244a15.34 15.34 0 0 1-1.578-.246V55.1c.532 0 1.059-.031 1.578-.093a13.34 13.34 0 0 0 1.575.093zm0 2h-3.153c.531 0 1.058-.028 1.578-.082a15.21 15.21 0 0 0 1.575.081zm0-2h-3.153v1.672c-6.868-1.44-12.225-7.474-12.525-14.71l-.614-14.85c-.344-8.304 6.119-15.036 14.428-15.036h1.504c8.312 0 14.633 6.726 14.118 15.021l-.923 14.881c-.449 7.225-5.93 13.259-12.835 14.696v-1.675z" fill="#1A270F" fill-rule="nonzero"/><path d="M53.949 41.954l.923-14.88c.444-7.145-4.963-12.898-12.122-12.898h-1.504c-7.173 0-12.727 5.787-12.43 12.954l.614 14.85c.278 6.706 5.566 12.249 12.105 13.026 6.574-.778 11.997-6.338 12.414-13.052z" fill="#7AB546"/><path fill="#3A8013" d="M27.922 51.507L27.8 57.76l9.693 8.333 5.402-6.503z"/><path fill="#3A8013" d="M54.278 51.7l.03 5.979-9.657 8.414-5.404-6.503z"/><path d="M43.328 8.599c0 .679-.554 1.229-1.235 1.229a1.23 1.23 0 1 1 0-2.46c.681 0 1.235.552 1.235 1.231z" fill="#1A270F"/><path d="M42 10.327v1c-8.419 0-15.423 6.936-15.423 15.367l-.002 3.542h30.849l.001-3.542c0-8.431-7.006-15.367-15.425-15.367v-1z" fill="#7AB546"/><path d="M38 9.792c-8.916 0-16.423 6.861-16.423 15.324l-.002 4.252h32.848l.002-4.252c0-8.463-7.509-15.324-16.425-15.324" fill="#3A8013"/><path d="M42 10.327v-1c9.52 0 17.425 7.827 17.425 17.367l-.002 5.542H24.575v-1l.002-4.542c0-9.54 7.904-17.367 17.423-17.367v1zm0 0v1c-8.419 0-15.423 6.936-15.423 15.367l-.002 3.542h30.849l.001-3.542c0-8.431-7.006-15.367-15.425-15.367v-1z" fill="#1A270F" fill-rule="nonzero"/><path d="M43.755 17.739c-.192-.48-.524-.765-1.055-.774-.554-.01-.93.264-1.148.866-.674 1.858-1.339 3.718-2.01 5.577-.05.137-.09.26-.124.373a1.842 1.842 0 0 0-.055.214c-.05.23-.052.413.004.582.074.327.278.59.592.742l.029.026h.03l.03.014c.308.12.607.11.866-.014h.008l.01-.008c.279-.14.51-.412.653-.803a710.91 710.91 0 0 0 2.061-5.674c.064-.178.11-.335.138-.477a.988.988 0 0 0-.029-.644M41.4 15.45c-.192-.481-.524-.766-1.055-.775-.554-.01-.93.264-1.148.866-.674 1.858-1.34 3.719-2.01 5.577-.05.138-.091.26-.124.374a1.842 1.842 0 0 0-.056.214c-.05.23-.05.412.004.581.075.327.278.591.593.742l.029.027h.03l.03.014c.308.119.607.109.866-.014h.008l.01-.009c.278-.14.51-.411.653-.802.695-1.889 1.382-3.78 2.061-5.674.064-.178.11-.335.138-.478a.988.988 0 0 0-.03-.644m5.316-.779c-.554-.01-.93.264-1.148.866-.674 1.858-1.339 3.719-2.01 5.577-.05.138-.091.26-.124.374a1.842 1.842 0 0 0-.055.214c-.05.23-.052.412.003.581.075.327.279.591.593.742l.029.027h.03l.03.014a1.07 1.07 0 0 0 .884-.023c.278-.14.51-.411.653-.802.695-1.889 1.382-3.78 2.061-5.674.064-.178.11-.335.138-.478a.988.988 0 0 0-.03-.644c-.19-.48-.523-.765-1.054-.774z" fill="#1A270F"/><path fill="#6EA541" d="M53.958 64.352H28.41l-7.096 5.686v5.028l39.74.971v-6z"/><path fill="#75AF44" d="M21.301 81.433h39.743V70.046H21.3z"/></g><circle fill="#1A270F" cx="35.5" cy="35.5" r="1.5"/><path d="M41.467 23.791c15.467 0 19.051 7.776 19.051 7.776.342.736.026 1.342-.698 1.342H23.113c-.724 0-1.04-.606-.698-1.342 0 0 3.584-7.776 19.052-7.776" fill="#1A270F"/><path fill="#373737" fill-rule="nonzero" d="M40.466 31.639h2v13.248h-4.06v-2h2.06z"/><path fill="#1A270F" fill-rule="nonzero" d="M40.466 31.639h2v13.248h-4.06v-2h2.06zM36 46a1 1 0 0 1 2 0 3 3 0 0 0 6 0 1 1 0 0 1 2 0 5 5 0 0 1-10 0z"/></g></svg>