<svg width="80" height="80" viewBox="0 0 80 80" xmlns="http://www.w3.org/2000/svg" xmlns:xlink="http://www.w3.org/1999/xlink"><title>Group 25</title><defs><circle id="a" cx="40" cy="40" r="40"/><path id="c" d="M65.074 31.09H0V.706h65.073z"/></defs><g fill="none" fill-rule="evenodd"><mask id="b" fill="#fff"><use xlink:href="#a"/></mask><use fill="#FFF" xlink:href="#a"/><g mask="url(#b)"><g transform="translate(8 49.975)"><mask id="d" fill="#fff"><use xlink:href="#c"/></mask><path d="M59.471 14.254c-3.523-.948-4.716-1.858-6.283-2.458-5.56-2.126-7.008-3.655-7.379-4.379-.013-.027-.08-5.56-.08-5.56l-13.192 7.85-13.19-7.85-.046 5.48c-.405.804-1.853 2.333-7.414 4.46-1.569.6-2.761 1.509-6.283 2.457l-.24.07A7.807 7.807 0 0 0 0 21.734v9.356h65.074v-9.355a7.807 7.807 0 0 0-5.363-7.41l-.24-.071z" fill="#4A4A4A" mask="url(#d)"/></g></g><path fill="#FCBD1B" mask="url(#b)" d="M27.389 51.138l-.124 6.254 9.694 8.333 5.401-6.503z"/><path fill="#FCBD1B" mask="url(#b)" d="M53.745 51.332l.03 5.978-9.657 8.414-5.404-6.503z"/><path d="M53.415 41.586l.924-14.881c0-1.335-4.963 2.103-12.122 2.103h-1.504c-7.174 0-12.43-3.634-12.43-2.046l.614 14.85c.278 6.706 5.566 12.248 12.105 13.026 6.573-.779 11.996-6.339 12.413-13.052zM39.424 56.404c-6.868-1.441-12.226-7.475-12.525-14.71l-.615-9.85c-.343-8.304 6.12-2.036 14.429-2.036h1.504c8.312 0 14.633-7.275 14.118 1.02l-.924 10.882c-.448 7.225-5.93 13.258-12.835 14.696l-3.152-.002z" fill="#4A4A4A" fill-rule="nonzero" mask="url(#b)"/><g mask="url(#b)"><path d="M42.795 8.23c0 .68-.554 1.23-1.235 1.23a1.23 1.23 0 1 1 0-2.46c.681 0 1.235.552 1.235 1.23z" fill="#434A54"/><path d="M41.467 9.959c-8.916 0-16.424 7.328-16.424 16.367l-.001 4.542H57.89l.002-4.542c0-9.039-7.51-16.367-16.425-16.367" stroke="#4A4A4A" stroke-width="2" fill="#FFF"/></g><path d="M37.467 9.424c-8.916 0-16.424 6.861-16.424 15.323L21.042 29H53.89l.002-4.253c0-8.462-7.51-15.323-16.425-15.323" fill="#FCBD1B" style="mix-blend-mode:multiply" mask="url(#b)"/><g mask="url(#b)" fill="#4A4A4A"><path d="M47.235 15.061c-.192-.48-.524-.765-1.055-.774-.554-.01-.93.264-1.148.866-.674 1.857-1.34 3.718-2.01 5.577a6.82 6.82 0 0 0-.125.373 1.842 1.842 0 0 0-.055.214c-.05.23-.051.413.004.582.075.327.278.59.592.742l.03.026h.03l.03.014c.308.12.606.11.866-.014h.008l.01-.008c.278-.14.51-.412.653-.803a738.94 738.94 0 0 0 2.061-5.674c.064-.178.11-.335.138-.477a.988.988 0 0 0-.03-.644l-3.427 5.836m-.585-3.527c-.192-.48-.524-.765-1.055-.774-.554-.01-.93.264-1.148.867-.674 1.857-1.34 3.718-2.01 5.576a7.13 7.13 0 0 0-.125.374 1.842 1.842 0 0 0-.055.214c-.05.23-.051.412.004.581.075.327.278.591.592.743l.03.026h.03l.03.014c.308.119.606.11.866-.014h.008l.01-.009c.278-.139.51-.411.653-.802.695-1.889 1.382-3.78 2.061-5.674.064-.178.11-.335.138-.477a.988.988 0 0 0-.03-.644m-2.354-2.29c-.192-.48-.524-.765-1.056-.774-.553-.01-.93.264-1.148.866-.673 1.858-1.338 3.718-2.01 5.576a7.05 7.05 0 0 0-.124.374 1.842 1.842 0 0 0-.055.214c-.05.23-.051.413.004.582.075.327.278.59.592.742l.03.026h.03l.03.014c.308.12.606.11.865-.014h.009l.01-.008c.278-.14.509-.412.653-.803.695-1.888 1.382-3.78 2.06-5.674.065-.178.11-.335.138-.477a.988.988 0 0 0-.028-.644"/></g><path fill="#E6E9ED" mask="url(#b)" d="M53.425 63.984H27.876L20.78 69.67v5.027l39.74.972v-6z"/><path fill="#F5F7FA" mask="url(#b)" d="M20.768 81.064H60.51V69.678H20.768z"/><circle fill="#4A4A4A" mask="url(#b)" cx="35.5" cy="35.5" r="1.5"/><g mask="url(#b)" fill="#4A4A4A"><path d="M41.467 23.791c15.467 0 19.051 7.776 19.051 7.776.342.736.026 1.342-.698 1.342H23.113c-.724 0-1.04-.606-.698-1.342 0 0 3.584-7.776 19.052-7.776"/><path fill-rule="nonzero" d="M38.406 42.887v2h4.06V31.64h-2v11.248z"/><path fill-rule="nonzero" d="M38.406 42.887v2h4.06V31.64h-2v11.248z"/></g><path d="M36 46a5 5 0 0 0 10 0 1 1 0 0 0-2 0 3 3 0 0 1-6 0 1 1 0 0 0-2 0z" fill="#4A4A4A" fill-rule="nonzero" mask="url(#b)"/><circle fill="#FFB002" style="mix-blend-mode:multiply" mask="url(#b)" cx="40" cy="40" r="40"/></g></svg>