<?xml version="1.0" encoding="UTF-8"?>
<svg width="80px" height="80px" viewBox="0 0 80 80" version="1.1" xmlns="http://www.w3.org/2000/svg" xmlns:xlink="http://www.w3.org/1999/xlink">
    <!-- Generator: Sketch 48.2 (47327) - http://www.bohemiancoding.com/sketch -->
    <title>received_green.svg</title>
    <desc>Created with Sketch.</desc>
    <defs>
        <circle id="path-1" cx="40" cy="40" r="40"></circle>
        <polygon id="path-3" points="65.073871 0.706997396 65.073871 31.0893429 0.000851612903 31.0893429 0.000851612903 0.706997396 65.073871 0.706997396"></polygon>
    </defs>
    <g id="Tracking-Elements" stroke="none" stroke-width="1" fill="none" fill-rule="evenodd" transform="translate(-976.000000, -5886.000000)">
        <g id="received_green.svg" transform="translate(976.000000, 5886.000000)">
            <g id="Group-6">
                <mask id="mask-2" fill="white">
                    <use xlink:href="#path-1"></use>
                </mask>
                <use id="Mask" fill="#7AB546" xlink:href="#path-1"></use>
                <g mask="url(#mask-2)">
                    <g transform="translate(8.533333, 7.368421)">
                        <g id="Group-5" stroke-width="1" fill="none" fill-rule="evenodd" transform="translate(-0.000000, 42.974760)">
                            <mask id="mask-4" fill="white">
                                <use xlink:href="#path-3"></use>
                            </mask>
                            <g id="Clip-4"></g>
                            <path d="M59.7116903,14.3241296 L59.4711097,14.2536741 C55.9475613,13.305727 54.7553032,12.3962101 53.1883355,11.7962706 C47.6273032,9.66979467 46.1795613,8.1411232 45.8091097,7.41735276 C45.7963355,7.38959756 45.7856903,7.36184235 45.7750452,7.33622216 L45.7282065,0.856448518 L32.5367226,0.706997396 L19.3473677,0.856448518 L19.300529,7.33622216 C19.2898839,7.36184235 19.2792387,7.38959756 19.2643355,7.41735276 C18.8960129,8.1411232 17.448271,9.66979467 11.8872387,11.7962706 C10.3181419,12.3962101 9.12588387,13.305727 5.60446452,14.2536741 L5.36388387,14.3241296 C2.15756129,15.3873676 0.000851612903,18.369985 0.000851612903,21.7347702 L0.000851612903,31.0904105 L32.5367226,31.0904105 L65.0747226,31.0904105 L65.0747226,21.7347702 C65.0747226,18.369985 62.9180129,15.3873676 59.7116903,14.3241296" id="Fill-3" fill="#1A270F" mask="url(#mask-4)"></path>
                        </g>
                        <path d="M34.5763418,47.7307692 L34.5763418,49.4056287 C34.0588802,49.5133463 33.5334233,49.595252 33.0014903,49.6499128 C32.4679752,49.5949311 31.941524,49.5123823 31.4236582,49.4037201 L31.4236582,47.7307692 C31.955609,47.7307692 32.482279,47.6991161 33.001765,47.6376004 C33.5194063,47.6991173 34.0448869,47.7307692 34.5763418,47.7307692 Z M34.5763418,49.7307692 L31.4236582,49.7307692 C31.9548492,49.7307692 32.4812669,49.7033703 33.0014903,49.6499128 C33.520229,49.7033716 34.0456457,49.7307692 34.5763418,49.7307692 Z M34.5763418,47.7307692 L31.4236582,47.7307692 L31.4236582,49.4037201 C24.5560237,47.9627055 19.198259,41.9292603 18.8988237,34.6939554 L18.2842749,19.8445061 C17.9405864,11.5399032 24.403407,4.80769231 32.71271,4.80769231 L34.2168675,4.80769231 C42.5291606,4.80769231 48.8501042,11.5331308 48.335121,19.828883 L47.4113579,34.7095786 C46.9628436,41.9345971 41.4814249,47.9682296 34.5763418,49.4056287 L34.5763418,47.7307692 Z" id="Rectangle-4" fill="#1A270F" fill-rule="nonzero"></path>
                        <path d="M45.4152005,34.5856612 L46.3389635,19.7049656 C46.782493,12.5602464 41.3757891,6.80769231 34.2168675,6.80769231 L32.71271,6.80769231 C25.5392913,6.80769231 19.9859381,12.5943757 20.2825643,19.7618063 L20.8971132,34.6112556 C21.1746586,41.3176335 26.4627243,46.8604961 33.001765,47.6376004 C39.5752519,46.8591919 44.9984369,41.2992144 45.4152005,34.5856612 Z" id="Path" fill="#7AB546" fill-rule="evenodd"></path>
                        <polygon id="Fill-6" fill="#3A8013" fill-rule="evenodd" points="19.3888839 44.1384369 19.2654 50.3918989 28.9588839 58.7248664 34.3602387 52.2216076"></polygon>
                        <polygon id="Fill-8" fill="#3A8013" fill-rule="evenodd" points="45.7450258 44.3322964 45.7748323 50.3103413 36.1175419 58.7244394 30.7140581 52.2211806"></polygon>
                        <g id="Group-4" stroke-width="1" fill="none" fill-rule="evenodd" transform="translate(12.873239, 0.000000)">
                            <path d="M21.9213796,1.2305945 C21.9213796,1.90954319 21.3678312,2.45934403 20.6865409,2.45934403 C20.0052506,2.45934403 19.4535535,1.90954319 19.4535535,1.2305945 C19.4535535,0.55164581 20.0052506,0 20.6865409,0 C21.3678312,0 21.9213796,0.55164581 21.9213796,1.2305945 Z" id="Fill-1" fill="#1A270F"></path>
                            <path d="M20.5934189,2.95888997 L20.5934189,3.95888997 C12.1744175,3.95888997 5.17024918,10.8941642 5.17024909,19.3260199 L5.1688055,22.8679267 L36.0169961,22.8679267 L36.0184399,19.3256123 C36.0184399,10.8945406 29.0128077,3.95888997 20.5934189,3.95888997 L20.5934189,2.95888997 Z" id="Path" fill="#7AB546"></path>
                            <path d="M16.5934189,2.42405569 C7.67740205,2.42405569 0.170249175,9.2850502 0.170249175,17.7472889 L0.168397843,22 L33.0165886,22 L33.0184399,17.7472889 C33.0184399,9.2850502 25.5094357,2.42405569 16.5934189,2.42405569" id="Fill-12" fill="#3A8013"></path>
                            <path d="M20.5934189,2.95888997 L20.5934189,1.95888997 C30.1129074,1.95888997 38.0184399,9.78545149 38.0184398,19.3260199 L38.0161811,24.8679267 L3.16799019,24.8679267 L3.16839793,23.8675191 L3.17024918,19.3256123 C3.17024918,9.78514506 11.0742492,1.95888997 20.5934189,1.95888997 L20.5934189,2.95888997 Z M20.5934189,2.95888997 L20.5934189,3.95888997 C12.1744175,3.95888997 5.17024918,10.8941642 5.17024909,19.3260199 L5.1688055,22.8679267 L36.0169961,22.8679267 L36.0184399,19.3256123 C36.0184399,10.8945406 29.0128077,3.95888997 20.5934189,3.95888997 L20.5934189,2.95888997 Z" id="Combined-Shape" fill="#1A270F" fill-rule="nonzero"></path>
                        </g>
                        <g id="Group-3" stroke-width="1" fill="none" fill-rule="evenodd" transform="translate(28.436620, 7.286566)">
                            <path d="M6.78511342,3.08403778 C6.593529,2.60332633 6.26144935,2.31881722 5.7299973,2.30980846 C5.17611586,2.30038069 4.80031965,2.57368123 4.58194457,3.17601091 C3.90843969,5.03359561 3.24313815,6.89421816 2.57212542,8.75253614 C2.52238616,8.89049582 2.48116176,9.01347583 2.44782919,9.12639955 C2.42488059,9.19867911 2.40598175,9.27001589 2.39269026,9.34020039 C2.34274332,9.5701332 2.3413934,9.75271765 2.39663617,9.92189373 C2.47119314,10.2488278 2.67471913,10.5128053 2.9888345,10.6640686 C2.99890696,10.6729726 3.0076295,10.6811434 3.01790964,10.6902569 L3.04771166,10.6902569 C3.05830332,10.6946565 3.06806426,10.6999989 3.07896744,10.704189 C3.38643706,10.8232932 3.68487262,10.8135511 3.9439529,10.6902569 L3.95246776,10.6902569 C3.95579063,10.6873238 3.95921735,10.6844955 3.96254022,10.6816671 C4.24062318,10.5424504 4.47156288,10.2703022 4.61548483,9.87925926 C5.31017303,7.99077242 5.99717708,6.099562 6.67639316,4.2054185 C6.74015079,4.02744318 6.78625566,3.87020895 6.81398088,3.72795439 C6.87202732,3.51226799 6.87140428,3.30024795 6.78511342,3.08403778" id="Fill-4" fill="#1A270F"></path>
                            <path d="M4.42990235,0.794409859 C4.23831794,0.313698404 3.90623829,0.0291892928 3.37478623,0.020180536 C2.82090479,0.0107527672 2.44510859,0.284053309 2.22673351,0.886382981 C1.55322862,2.74396769 0.887927081,4.60459023 0.216914352,6.46290821 C0.167175092,6.6008679 0.125950695,6.7238479 0.0926181217,6.83677162 C0.0696695279,6.90905118 0.050770686,6.98038797 0.0374791927,7.05057247 C-0.0124677467,7.28050527 -0.013817664,7.46308973 0.0414251048,7.6322658 C0.115982075,7.95919987 0.319508065,8.2231774 0.633623433,8.37444071 C0.643695892,8.38334471 0.652418435,8.39151545 0.662698574,8.40062896 L0.692500594,8.40062896 C0.703092253,8.40502858 0.712853193,8.41037098 0.723756371,8.4145611 C1.03122599,8.53366525 1.32966155,8.52392322 1.58874183,8.40062896 L1.59725669,8.40062896 C1.60057957,8.39769587 1.60400628,8.39486754 1.60732915,8.39203921 C1.88541211,8.25282249 2.11635181,7.98067423 2.26027376,7.58963133 C2.95496196,5.7011445 3.64196602,3.80993408 4.32118209,1.91579058 C4.38493972,1.73781525 4.43104459,1.58058102 4.45876981,1.43832647 C4.51681626,1.22264007 4.51619322,1.01062002 4.42990235,0.794409859" id="Fill-6" fill="#1A270F"></path>
                            <path d="M9.74486004,0.0151708426 C9.19097859,0.00574307385 8.81518239,0.279043615 8.59680731,0.881373287 C7.92330243,2.738958 7.25800088,4.59958054 6.58698816,6.45789852 C6.5372489,6.5958582 6.4960245,6.71883821 6.46269193,6.83176193 C6.43974333,6.90404149 6.42084449,6.97537827 6.407553,7.04556277 C6.35760606,7.27549558 6.35625614,7.45808003 6.41149891,7.62725611 C6.48605588,7.95419018 6.68958187,8.2181677 7.00369724,8.36943102 C7.0137697,8.37833502 7.02249224,8.38650575 7.03277238,8.39561926 L7.0625744,8.39561926 C7.07316606,8.40001889 7.082927,8.40536129 7.09383018,8.40955141 C7.4012998,8.52865555 7.69973536,8.51891353 7.95881563,8.39561926 C7.97065337,8.39268618 7.97408008,8.38985785 7.97740296,8.38702952 C8.25548592,8.2478128 8.48642561,7.97566454 8.63034756,7.58462164 C9.32503576,5.6961348 10.0120398,3.80492439 10.6912559,1.91078088 C10.7550135,1.73280556 10.8011184,1.57557133 10.8288436,1.43331677 C10.8868901,1.21763037 10.886267,1.00561033 10.7999762,0.789400165 C10.6083917,0.308688711 10.2763121,0.0241795995 9.74486004,0.0151708426 Z" id="Fill-6" fill="#1A270F"></path>
                        </g>
                        <polygon id="Fill-18" fill="#6EA541" fill-rule="evenodd" points="45.4248194 56.9839744 19.8764323 56.9839744 12.7803677 62.669522 12.7803677 67.6974848 52.5208839 68.6689171 52.5208839 62.669522"></polygon>
                        <polygon id="Fill-20" fill="#75AF44" fill-rule="evenodd" points="12.7678065 74.0641026 52.5104516 74.0641026 52.5104516 62.6780621 12.7678065 62.6780621"></polygon>
                    </g>
                </g>
            </g>
            <circle id="Oval-3" fill="#1A270F" cx="35.5" cy="35.5" r="1.5"></circle>
            <g id="Group-14" transform="translate(22.000000, 23.000000)">
                <path d="M19.4666583,0.790961344 C34.934373,0.790961344 38.5181387,8.56667509 38.5181387,8.56667509 C38.8601087,9.30298571 38.5438359,9.90935917 37.820362,9.90935917 L1.11295467,9.90935917 C0.389480734,9.90935917 0.0732079731,9.30298571 0.415177896,8.56667509 C0.415177896,8.56667509 3.99894362,0.790961344 19.4666583,0.790961344" id="Fill-14" fill="#1A270F"></path>
                <polygon id="Path-3" fill="#373737" fill-rule="nonzero" points="18.4655762 8.63891602 20.4655762 8.63891602 20.4655762 21.8871402 16.4060931 21.8871402 16.4060931 19.8871402 18.4655762 19.8871402"></polygon>
                <polygon id="Path-3" fill="#1A270F" fill-rule="nonzero" points="18.4655762 8.63891602 20.4655762 8.63891602 20.4655762 21.8871402 16.4060931 21.8871402 16.4060931 19.8871402 18.4655762 19.8871402"></polygon>
            </g>
            <path d="M36,46 C36,45.4477153 36.4477153,45 37,45 C37.5522847,45 38,45.4477153 38,46 C38,47.6568542 39.3431458,49 41,49 C42.6568542,49 44,47.6568542 44,46 C44,45.4477153 44.4477153,45 45,45 C45.5522847,45 46,45.4477153 46,46 C46,48.7614237 43.7614237,51 41,51 C38.2385763,51 36,48.7614237 36,46 Z" id="Oval-2" fill="#1A270F" fill-rule="nonzero"></path>
        </g>
    </g>
</svg>