<?xml version="1.0" encoding="UTF-8"?>
<svg width="80px" height="80px" viewBox="0 0 80 80" version="1.1" xmlns="http://www.w3.org/2000/svg" xmlns:xlink="http://www.w3.org/1999/xlink">
    <!-- Generator: Sketch 46.2 (44496) - http://www.bohemiancoding.com/sketch -->
    <title>Group 25</title>
    <desc>Created with Sketch.</desc>
    <defs>
        <circle id="path-1" cx="40" cy="40" r="40"></circle>
        <polygon id="path-3" points="65.073871 31.0893429 0.000851612903 31.0893429 0.000851612903 0.706997396 65.073871 0.706997396"></polygon>
    </defs>
    <g id="Biblioteca" stroke="none" stroke-width="1" fill="none" fill-rule="evenodd">
        <g id="Tracking-Elements" transform="translate(-1152.000000, -1291.000000)">
            <g id="Group-25" transform="translate(1152.000000, 1291.000000)">
                <mask id="mask-2" fill="white">
                    <use xlink:href="#path-1"></use>
                </mask>
                <use id="Mask" fill="#FFFFFF" xlink:href="#path-1"></use>
                <g id="Group-5" mask="url(#mask-2)">
                    <g transform="translate(8.000000, 49.974760)">
                        <mask id="mask-4" fill="white">
                            <use xlink:href="#path-3"></use>
                        </mask>
                        <g id="Clip-4" stroke="none" fill="none"></g>
                        <path d="M59.4711097,14.2536741 C55.9475613,13.305727 54.7553032,12.3962101 53.1883355,11.7962706 C47.6273032,9.66979467 46.1795613,8.1411232 45.8091097,7.41735276 C45.7963355,7.38959756 45.7282065,1.85644852 45.7282065,1.85644852 L32.5367226,9.7069974 L19.3473677,1.85644852 L19.300529,7.33622216 C18.8960129,8.1411232 17.448271,9.66979467 11.8872387,11.7962706 C10.3181419,12.3962101 9.12588387,13.305727 5.60446452,14.2536741 L5.36388387,14.3241296 C2.15756129,15.3873676 0.000851612903,18.369985 0.000851612903,21.7347702 L0.000851612903,31.0904105 L32.5367226,31.0904105 L65.0747226,31.0904105 L65.0747226,21.7347702 C65.0747226,18.369985 62.9180129,15.3873676 59.7116903,14.3241296 L59.4711097,14.2536741 Z" id="Fill-3" stroke="none" fill="#4A4A4A" fill-rule="evenodd" mask="url(#mask-4)"></path>
                    </g>
                </g>
                <polygon id="Fill-6" fill="#FCBD1B" mask="url(#mask-2)" points="27.3888839 51.1384369 27.2654 57.3918989 36.9588839 65.7248664 42.3602387 59.2216076"></polygon>
                <polygon id="Fill-8" fill="#FCBD1B" mask="url(#mask-2)" points="53.7450258 51.3322964 53.7748323 57.3103413 44.1175419 65.7244394 38.7140581 59.2211806"></polygon>
                <path d="M53.4152005,41.5856612 L54.3389635,26.7049656 C54.3389635,25.3696289 49.3757891,28.8076923 42.2168675,28.8076923 L40.71271,28.8076923 C33.5392913,28.8076923 28.2825643,25.1738281 28.2825643,26.7618063 L28.8971132,41.6112556 C29.1746586,48.3176335 34.4627243,53.8604961 41.001765,54.6376004 C47.5752519,53.8591919 52.9984369,48.2992144 53.4152005,41.5856612 Z M39.4236582,56.4037201 C32.5560237,54.9627055 27.198259,48.9292603 26.8988237,41.6939554 L26.2842749,31.8445061 C25.9405864,23.5399032 32.403407,29.8076923 40.71271,29.8076923 L42.2168675,29.8076923 C50.5291606,29.8076923 56.8501042,22.5331308 56.335121,30.828883 L55.4113579,41.7095786 C54.9628436,48.9345971 49.4814249,54.9682296 42.5763418,56.4056287 L39.4236582,56.4037201 Z" id="Rectangle-4" fill="#4A4A4A" fill-rule="nonzero" mask="url(#mask-2)"></path>
                <g id="Group-4" mask="url(#mask-2)">
                    <g transform="translate(24.873239, 7.000000)">
                        <path d="M17.9213796,1.2305945 C17.9213796,1.90954319 17.3678312,2.45934403 16.6865409,2.45934403 C16.0052506,2.45934403 15.4535535,1.90954319 15.4535535,1.2305945 C15.4535535,0.55164581 16.0052506,0 16.6865409,0 C17.3678312,0 17.9213796,0.55164581 17.9213796,1.2305945 Z" id="Fill-1" stroke="none" fill="#434A54"></path>
                        <path d="M16.5934189,2.95888997 C7.67740205,2.95888997 0.170249175,10.2871079 0.170249175,19.3256123 L0.168397843,23.8679267 L33.0165886,23.8679267 L33.0184399,19.3256123 C33.0184399,10.2871079 25.5094357,2.95888997 16.5934189,2.95888997" id="Fill-12" stroke="#4A4A4A" stroke-width="2" fill="#FFFFFF"></path>
                    </g>
                </g>
                <path d="M37.4666583,9.42405569 C28.5506415,9.42405569 21.0434886,16.2850502 21.0434886,24.7472889 L21.0416373,29 L53.889828,29 L53.8916794,24.7472889 C53.8916794,16.2850502 46.3826751,9.42405569 37.4666583,9.42405569" id="Fill-12" fill="#FCBD1B" style="mix-blend-mode: multiply;" mask="url(#mask-2)"></path>
                <g id="Group-3" mask="url(#mask-2)" fill="#4A4A4A">
                    <g transform="translate(36.436620, 14.286566)">
                        <path d="M10.7980541,0.77446489 C10.6064696,0.293753435 10.27439,0.00924432422 9.74293794,0.00023556739 C9.1890565,-0.00919220139 8.8132603,0.26410834 8.59488521,0.866438012 C7.92138033,2.72391797 7.25607879,4.58464526 6.58506606,6.44296324 C6.5353268,6.58092293 6.4941024,6.70390293 6.46076983,6.81682665 C6.43782124,6.88910621 6.4189224,6.960443 6.4056309,7.0306275 C6.35568396,7.2605603 6.35433405,7.44314476 6.40957681,7.61232083 C6.48413378,7.9392549 6.68765977,8.20323243 7.00177514,8.35449574 C7.0118476,8.36339974 7.02057014,8.37157048 7.03085028,8.38068399 L7.0606523,8.38068399 C7.07124396,8.38508361 7.0810049,8.39042601 7.09190808,8.39461613 C7.3993777,8.51372028 7.69781326,8.50397825 7.95689354,8.38068399 L7.9654084,8.38068399 C7.96873128,8.3777509 7.97215799,8.37492257 7.97548086,8.37209424 C8.25356382,8.23287752 8.48450352,7.96072926 8.62842547,7.56968637 C9.32311367,5.68119953 10.0101177,3.78988436 10.6893338,1.89584561 C10.7530914,1.71787029 10.7991963,1.56063605 10.8269215,1.4183815 C10.884968,1.2026951 10.8843449,0.990675054 10.7980541,0.77446489 L7.37042316,6.60994419" id="Fill-1"></path>
                        <path d="M6.78511342,3.08403778 C6.593529,2.60332633 6.26144935,2.31881722 5.7299973,2.30980846 C5.17611586,2.30038069 4.80031965,2.57368123 4.58194457,3.17601091 C3.90843969,5.03359561 3.24313815,6.89421816 2.57212542,8.75253614 C2.52238616,8.89049582 2.48116176,9.01347583 2.44782919,9.12639955 C2.42488059,9.19867911 2.40598175,9.27001589 2.39269026,9.34020039 C2.34274332,9.5701332 2.3413934,9.75271765 2.39663617,9.92189373 C2.47119314,10.2488278 2.67471913,10.5128053 2.9888345,10.6640686 C2.99890696,10.6729726 3.0076295,10.6811434 3.01790964,10.6902569 L3.04771166,10.6902569 C3.05830332,10.6946565 3.06806426,10.6999989 3.07896744,10.704189 C3.38643706,10.8232932 3.68487262,10.8135511 3.9439529,10.6902569 L3.95246776,10.6902569 C3.95579063,10.6873238 3.95921735,10.6844955 3.96254022,10.6816671 C4.24062318,10.5424504 4.47156288,10.2703022 4.61548483,9.87925926 C5.31017303,7.99077242 5.99717708,6.099562 6.67639316,4.2054185 C6.74015079,4.02744318 6.78625566,3.87020895 6.81398088,3.72795439 C6.87202732,3.51226799 6.87140428,3.30024795 6.78511342,3.08403778" id="Fill-4"></path>
                        <path d="M4.42990235,0.794409859 C4.23831794,0.313698404 3.90623829,0.0291892928 3.37478623,0.020180536 C2.82090479,0.0107527672 2.44510859,0.284053309 2.22673351,0.886382981 C1.55322862,2.74396769 0.887927081,4.60459023 0.216914352,6.46290821 C0.167175092,6.6008679 0.125950695,6.7238479 0.0926181217,6.83677162 C0.0696695279,6.90905118 0.050770686,6.98038797 0.0374791927,7.05057247 C-0.0124677467,7.28050527 -0.013817664,7.46308973 0.0414251048,7.6322658 C0.115982075,7.95919987 0.319508065,8.2231774 0.633623433,8.37444071 C0.643695892,8.38334471 0.652418435,8.39151545 0.662698574,8.40062896 L0.692500594,8.40062896 C0.703092253,8.40502858 0.712853193,8.41037098 0.723756371,8.4145611 C1.03122599,8.53366525 1.32966155,8.52392322 1.58874183,8.40062896 L1.59725669,8.40062896 C1.60057957,8.39769587 1.60400628,8.39486754 1.60732915,8.39203921 C1.88541211,8.25282249 2.11635181,7.98067423 2.26027376,7.58963133 C2.95496196,5.7011445 3.64196602,3.80993408 4.32118209,1.91579058 C4.38493972,1.73781525 4.43104459,1.58058102 4.45876981,1.43832647 C4.51681626,1.22264007 4.51619322,1.01062002 4.42990235,0.794409859" id="Fill-6"></path>
                    </g>
                </g>
                <polygon id="Fill-18" fill="#E6E9ED" mask="url(#mask-2)" points="53.4248194 63.9839744 27.8764323 63.9839744 20.7803677 69.669522 20.7803677 74.6974848 60.5208839 75.6689171 60.5208839 69.669522"></polygon>
                <polygon id="Fill-20" fill="#F5F7FA" mask="url(#mask-2)" points="20.7678065 81.0641026 60.5104516 81.0641026 60.5104516 69.6780621 20.7678065 69.6780621"></polygon>
                <circle id="Oval-3" fill="#4A4A4A" mask="url(#mask-2)" cx="35.5" cy="35.5" r="1.5"></circle>
                <g id="Group-14" mask="url(#mask-2)" fill="#4A4A4A">
                    <g transform="translate(22.000000, 23.000000)">
                        <path d="M19.4666583,0.790961344 C34.934373,0.790961344 38.5181387,8.56667509 38.5181387,8.56667509 C38.8601087,9.30298571 38.5438359,9.90935917 37.820362,9.90935917 L1.11295467,9.90935917 C0.389480734,9.90935917 0.0732079731,9.30298571 0.415177896,8.56667509 C0.415177896,8.56667509 3.99894362,0.790961344 19.4666583,0.790961344" id="Fill-14" fill-rule="evenodd"></path>
                        <polygon id="Path-3" fill-rule="nonzero" points="16.4060931 19.8871402 16.4060931 21.8871402 20.4655762 21.8871402 20.4655762 8.63891602 18.4655762 8.63891602 18.4655762 19.8871402"></polygon>
                        <polygon id="Path-3" fill-rule="nonzero" points="16.4060931 19.8871402 16.4060931 21.8871402 20.4655762 21.8871402 20.4655762 8.63891602 18.4655762 8.63891602 18.4655762 19.8871402"></polygon>
                    </g>
                </g>
                <path d="M36,46 C36,48.7614237 38.2385763,51 41,51 C43.7614237,51 46,48.7614237 46,46 C46,45.4477153 45.5522847,45 45,45 C44.4477153,45 44,45.4477153 44,46 C44,47.6568542 42.6568542,49 41,49 C39.3431458,49 38,47.6568542 38,46 C38,45.4477153 37.5522847,45 37,45 C36.4477153,45 36,45.4477153 36,46 Z" id="Oval-2" fill="#4A4A4A" fill-rule="nonzero" mask="url(#mask-2)"></path>
                <circle id="Oval" fill="#D8D8D8" style="mix-blend-mode: color;" mask="url(#mask-2)" cx="40" cy="40" r="40"></circle>
            </g>
        </g>
    </g>
</svg>