<?xml version="1.0" encoding="UTF-8"?>
<svg width="80px" height="80px" viewBox="0 0 80 80" version="1.1" xmlns="http://www.w3.org/2000/svg" xmlns:xlink="http://www.w3.org/1999/xlink">
    <!-- Generator: Sketch 48.2 (47327) - http://www.bohemiancoding.com/sketch -->
    <title>transit_gray</title>
    <desc>Created with Sketch.</desc>
    <defs></defs>
    <g id="Tracking-Elements" stroke="none" stroke-width="1" fill="none" fill-rule="evenodd" transform="translate(-1088.000000, -5390.000000)">
        <g id="transit_gray" transform="translate(1088.000000, 5390.000000)" fill-rule="nonzero">
            <circle id="Oval" fill="#FFFFFF" cx="40" cy="40" r="40"></circle>
            <path d="M49.2,36.7 L16.3,36.7 C15,36.7 14,37.2 14,37.9 L14,52.1 C14,52.8 15.1,53.3 16.3,53.3 L29.3,53.3 C30.3,49.9 31.3,46.6 32.3,43.2 C32.7,42 33.3,41.4 34.3,41.4 C35.2,41.4 35.8,42 36.1,43 C36.2,43.4 36.2,43.9 36.2,44.3 C36.1,44.6 36.1,45 36,45.3 C35.2,48 34.4,50.6 33.6,53.3 L34.8,53.3 C35.3,51.5 35.9,49.7 36.4,47.9 C36.8,46.7 37.4,46.1 38.4,46.1 C39.3,46.1 39.9,46.7 40.2,47.7 C40.3,48.1 40.3,48.6 40.2,49 C40.1,49.3 40.1,49.7 40,50 L39,53.2 L40.2,53.2 C41.2,49.8 42.2,46.4 43.2,43.1 C43.6,41.9 44.2,41.3 45.2,41.3 C46.1,41.3 46.7,41.9 47,42.9 C47.1,43.3 47.1,43.8 47,44.2 C46.9,44.5 46.9,44.9 46.8,45.2 C46,47.9 45.2,50.5 44.4,53.2 L49.2,53.2 C50.5,53.2 51.5,52.7 51.5,52 L51.5,37.9 C51.6,37.2 50.5,36.7 49.2,36.7 Z" id="Shape" fill="#B6B6B6"></path>
            <g id="Group" transform="translate(8.000000, 21.000000)" fill="#373737">
                <path d="M59.8,20.1 L55.1,12.5 L45.2,12.5 L45.2,3.8 C45.2,1.9 43.6,0.3 41.7,0.3 L6.5,0.3 C4.6,0.3 3,1.9 3,3.8 L3,28.7 C2.8,28.7 2.7,28.6 2.5,28.6 C1.5,28.6 0.7,29.4 0.7,30.4 L0.7,33.9 C0.7,34.9 1.6,35.6 2.5,35.6 C2.7,35.6 3,35.5 3.2,35.4 C3.7,36.7 5,37.6 6.5,37.6 L9.4,37.6 C10.3,40.1 12.6,41.8 15.3,41.8 C18,41.8 20.4,40 21.2,37.6 L41.7,37.6 C42.4,37.6 43.1,37.4 43.7,37 L43.7,37.7 L47.3,37.7 C48.2,40.1 50.5,41.8 53.2,41.8 C55.9,41.8 58.2,40.1 59.1,37.7 L64.4,37.7 L64.4,25 L59.8,20.1 Z M43.3,34.1 C43.3,34.9 42.6,35.6 41.8,35.6 L22.2,35.6 L22.2,35.5 C22.2,31.7 19.1,28.6 15.3,28.6 C11.5,28.6 8.4,31.7 8.4,35.5 L8.4,35.6 L6.4,35.6 C5.6,35.6 4.9,34.9 4.9,34.1 L4.9,3.8 C4.9,3.4 5.1,3 5.3,2.7 C5.6,2.4 6,2.3 6.4,2.3 L41.7,2.3 C42.5,2.3 43.2,3 43.2,3.8 L43.3,34.1 Z M15.3,38.9 C14.6,38.9 13.9,38.7 13.4,38.3 C13.1,38.1 12.9,37.9 12.7,37.7 C12.5,37.4 12.3,37.1 12.1,36.7 C12,36.4 11.9,36.1 11.9,35.7 L11.9,35.6 C11.9,33.8 13.4,32.2 15.2,32.2 C17,32.2 18.5,33.7 18.5,35.6 L18.5,35.7 C18.5,36.1 18.4,36.4 18.3,36.7 C18.2,37.1 18,37.4 17.7,37.7 C17.5,37.9 17.3,38.2 17,38.3 C16.7,38.7 16,38.9 15.3,38.9 Z M53.3,38.9 C52.6,38.9 51.9,38.7 51.4,38.3 C51.2,38.1 51,38 50.8,37.8 C50.3,37.2 49.9,36.4 50,35.6 C50,35.5 50,35.4 50,35.3 C50.2,33.6 51.6,32.3 53.3,32.3 C55,32.3 56.4,33.6 56.6,35.3 C56.6,35.4 56.6,35.5 56.6,35.6 C56.6,36.5 56.3,37.2 55.8,37.8 C55.6,38 55.4,38.2 55.2,38.3 C54.7,38.7 54,38.9 53.3,38.9 Z M62.2,35.2 L60.2,35.2 C60,31.5 57,28.6 53.4,28.6 C49.7,28.6 46.7,31.5 46.6,35.2 L46.3,35.2 L45.7,15 L54,15 L58,21.5 L58.1,21.7 L58.3,21.9 L62.3,26.2 L62.2,35.2 Z" id="Shape"></path>
                <polygon id="Shape" points="53.2 16.1 47.2 16.1 47.2 23.9 58.1 23.9 56.2 21.6"></polygon>
                <path d="M50.2,25.3 L47.5,25.3 C47.2,25.3 46.9,25.5 46.9,25.9 C46.9,26.2 47.1,26.5 47.5,26.5 L50.2,26.5 C50.5,26.5 50.8,26.3 50.8,25.9 C50.7,25.6 50.5,25.3 50.2,25.3 Z" id="Shape"></path>
            </g>
        </g>
    </g>
</svg>