<?xml version="1.0" encoding="UTF-8"?>
<svg width="80px" height="80px" viewBox="0 0 80 80" version="1.1" xmlns="http://www.w3.org/2000/svg" xmlns:xlink="http://www.w3.org/1999/xlink">
    <!-- Generator: Sketch 46.2 (44496) - http://www.bohemiancoding.com/sketch -->
    <title>Group 27</title>
    <desc>Created with Sketch.</desc>
    <defs></defs>
    <g id="Biblioteca" stroke="none" stroke-width="1" fill="none" fill-rule="evenodd">
        <g id="Tracking-Elements" transform="translate(-1247.000000, -1611.000000)">
            <g id="Group-27" transform="translate(1247.000000, 1611.000000)">
                <g id="Group-28" fill="#FFFFFF">
                    <circle id="Oval" cx="40" cy="40" r="40"></circle>
                </g>
                <g id="Group-26" transform="translate(8.000000, 22.000000)">
                    <g id="Group">
                        <g id="Group-4">
                            <g id="Group-6">
                                <path d="M41.7907437,0.2402746 C43.1832243,0.2402746 44.3127229,1.37348169 44.3127229,2.77053432 L44.3127229,33.1412437 C44.3127229,34.5382963 43.1832243,35.6715034 41.7907437,35.6715034 L6.47546754,35.6715034 C5.08298692,35.6715034 3.95348837,34.5382963 3.95348837,33.1412437 L3.95348837,2.77053432 C3.95348837,1.37348169 5.08487888,0.2402746 6.4773595,0.2402746 L41.7907437,0.2402746 Z" id="Fill-4" stroke="#4A4A4A" stroke-width="2" fill="#FFFFFF"></path>
                                <path d="M2.44465528,27.6315789 C1.46821514,27.6315789 0.679653731,28.4227295 0.679653731,29.3997208 L0.679653731,32.9413141 C0.679653731,33.9183054 1.46821514,34.7094559 2.44465528,34.7094559 C3.41844925,34.7094559 4.20701066,33.9183054 4.20701066,32.9413141 L4.20701066,29.3997208 C4.20701066,28.4227295 3.41844925,27.6315789 2.44465528,27.6315789" id="Fill-14" fill="#4A4A4A"></path>
                                <polygon id="Fill-3" fill="#4A4A4A" points="43.5812062 11.4832805 43.7774918 36.776387 64.471518 36.776387 64.4959348 24.1231902 59.8427914 19.0607725 55.191392 11.4699934"></polygon>
                                <polygon id="Path" fill="#FFFFFF" points="45.6845386 14.0116421 53.9496236 14.0021513 57.9103765 20.4654178 58.0376926 20.6723183 58.1998899 20.8507462 62.1693631 25.1690815 62.1501785 34.2461272 46.1919006 34.2461272"></polygon>
                                <rect id="Rectangle-6" fill="#4A4A4A" x="46.8837209" y="24.3157895" width="3.85271318" height="1.10526316" rx="0.552631579"></rect>
                                <polygon id="Path-4" fill="#4A4A4A" points="47.2306694 22.8991314 49.6872578 22.8991314 58.1236676 22.8991314 56.2489099 20.5812089 53.2005455 15.0837659 47.1766482 15.0837659"></polygon>
                                <path d="M36.4026841,31.2504508 L41.2328212,31.2504508 C42.5294539,31.2504508 43.5812062,30.7202016 43.5812062,30.066494 L43.5812062,15.8554602 C43.5812062,15.2017526 42.5294539,14.6715034 41.2328212,14.6715034 L8.35014668,14.6715034 C7.05351403,14.6715034 6,15.2017526 6,15.8554602 L6,30.066494 C6,30.7202016 7.0517523,31.2504508 8.34838495,31.2504508 L21.3946442,31.2504508 C22.3949737,27.8897356 23.3900464,24.5263996 24.3958726,21.1678846 C24.7674193,19.9272007 25.4068048,19.3642539 26.3491872,19.3836733 C27.2534079,19.4022296 27.8184133,19.9882639 28.144378,20.9784375 C28.2911946,21.4237891 28.2922547,21.8605098 28.1934936,22.3047825 C28.1463214,22.5977997 28.0678779,22.9216721 27.9593997,23.2882672 C27.1724621,25.9450845 26.3793802,28.5991003 25.5802097,31.2504508 L26.803533,31.2504508 C27.3352732,29.4610428 27.8676455,27.6718783 28.403065,25.8840799 C28.7746117,24.643396 29.4139972,24.0804492 30.3563796,24.0998686 C31.2606003,24.1184249 31.8256058,24.7044593 32.1515704,25.6946329 C32.2983871,26.1399844 32.2994471,26.5767051 32.200686,27.0209778 C32.1535139,27.313995 32.0750703,27.6378674 31.9665921,28.0044625 C31.6459728,29.0869206 31.3243336,30.1689136 31.0016782,31.2504508 L32.2172846,31.2504508 C33.2217343,27.8760231 34.2208186,24.4988146 35.2307441,21.1268017 C35.6022908,19.8861179 36.2416763,19.3231711 37.1840587,19.3425905 C38.0882794,19.3611468 38.6532849,19.9471811 38.9792495,20.9373547 L33.9755632,31.2504508 L33.9755632,31.2504508 L38.9792495,20.9373547 C39.1260661,21.3827063 39.1271262,21.819427 39.0283651,22.2636997 C38.981193,22.5567168 38.9027494,22.8805893 38.7942712,23.2471844 C38.0032647,25.9175913 37.2060502,28.5853698 36.4026841,31.2504508 Z" id="Combined-Shape" fill="#FCBD1B"></path>
                            </g>
                            <rect id="Rectangle-6" fill="#4A4A4A" x="46.8837209" y="24.3157895" width="3.85271318" height="1.10526316" rx="0.552631579"></rect>
                        </g>
                        <path d="M46.448169,34.5636466 C46.448169,38.3646658 60.16608,38.3646658 60.16608,34.5636466 C60.16608,30.7626273 57.0957045,27.6821707 53.3071245,27.6821707 C49.5185445,27.6821707 46.448169,30.7626273 46.448169,34.5636466 Z" id="Fill-8" fill="#4A4A4A"></path>
                        <path d="M8.448169,34.5636466 C8.448169,38.3646658 22.16608,38.3646658 22.16608,34.5636466 C22.16608,30.7626273 19.0957045,27.6821707 15.3071245,27.6821707 C11.5185445,27.6821707 8.448169,30.7626273 8.448169,34.5636466 Z" id="Fill-8" fill="#4A4A4A"></path>
                    </g>
                    <g id="Group-7" transform="translate(9.000000, 28.000000)">
                        <g id="Group" transform="translate(38.000000, 0.000000)" fill="#4A4A4A">
                            <path d="M6.30712452,0.237048169 C2.82403101,0.237048169 0.00123062016,3.06911682 0.00123062016,6.56364657 C0.00123062016,10.0581763 2.82403101,12.890245 6.30712452,12.890245 C9.79021802,12.890245 12.6130184,10.0581763 12.6130184,6.56364657 C12.6130184,3.06911682 9.79021802,0.237048169 6.30712452,0.237048169" id="Fill-8"></path>
                        </g>
                        <g id="Group-5">
                            <g id="Group-3">
                                <path d="M6.30712452,0.237048169 C2.82403101,0.237048169 0.00123062015,3.06911682 0.00123062015,6.56364657 C0.00123062015,10.0581763 2.82403101,12.890245 6.30712452,12.890245 C9.79021802,12.890245 12.6130184,10.0581763 12.6130184,6.56364657 C12.6130184,3.06911682 9.79021802,0.237048169 6.30712452,0.237048169" id="Fill-8" fill="#4A4A4A"></path>
                                <path d="M2.96592958,6.56521152 C2.96592958,8.41554544 4.46440585,9.91391367 6.30868435,9.91391367 C8.15296285,9.91391367 9.6464275,8.41554544 9.6464275,6.56521152 C9.6464275,4.7148776 8.15296285,3.21148129 6.30868435,3.21148129 C4.46440585,3.21148129 2.96592958,4.7148776 2.96592958,6.56521152" id="Fill-12" fill="#FFFFFF"></path>
                            </g>
                        </g>
                        <path d="M44.3086843,9.91391367 C46.1529628,9.91391367 47.6464275,8.41554544 47.6464275,6.56521152 C47.6464275,4.7148776 46.1529628,3.21148129 44.3086843,3.21148129 C42.4644059,3.21148129 40.9659296,4.7148776 40.9659296,6.56521152 C40.9659296,8.41554544 42.4644059,9.91391367 44.3086843,9.91391367 Z" id="Fill-12" fill="#FFFFFF"></path>
                    </g>
                </g>
                <circle id="Oval" fill="#FFB002" style="mix-blend-mode: multiply;" cx="40" cy="40" r="40"></circle>
            </g>
        </g>
    </g>
</svg>