<svg width="62" height="70" viewBox="0 0 62 70" xmlns="http://www.w3.org/2000/svg"><title>noun_936819_cc</title><g fill="#373737"><path d="M61.928 14.403v-.072c0-.144-.073-.216-.073-.36-.072-.072-.144-.216-.217-.288v-.072L50.57.504C50.28.144 49.92 0 49.484 0h-37.62c-.433 0-.868.216-1.157.576L.29 13.611c-.072.072-.144.216-.217.288-.072.072-.072.216-.072.288V68.56C0 69.352.651 70 1.447 70h59.106C61.35 70 62 69.352 62 68.56V14.547c-.072-.072-.072-.144-.072-.144zM32.41 13.107V2.881h16.422l8.61 10.226H32.41zm-2.894 0H4.413l8.103-10.226h17v10.226zM2.82 15.987h56.213v51.348H2.82V15.988z"/><path d="M42.24 20.29H19.76c-.806 0-1.465.624-1.465 1.387v5.341c0 .763.66 1.388 1.465 1.388h22.48c.806 0 1.465-.625 1.465-1.388v-5.34c0-.764-.66-1.388-1.465-1.388zm-1.464 5.341H21.224v-2.566h19.552v2.566z"/></g></svg>