<svg width="59" height="70" viewBox="0 0 59 70" xmlns="http://www.w3.org/2000/svg"><title>noun_70094_cc</title><g fill="#373737"><path d="M33 10.5h19v3H33zm0 6h7v3h-7zm8.5 0h8v3h-8zm-8.5 6h4.5v3H33zm5.5 0h7v3h-7zm8 0h7v3h-7zm-13.5 6h7v3h-7zm8 0h10v3H41zM9 39h19v3H9zm21 0h9v3h-9zm10 0h3.5v3H40zm5 0h8.5v3H45zM9 45h11.5v3H9zm33.5 0h10v3h-10zM22 45h9v3h-9zm10.5 0h9v3h-9zM9 51h4.5v3H9zm5.5 0h7v3h-7zM31 51h11.5v3H31zm12.5 0H53v3h-9.5zm-21 0h7v3h-7zM9 57h7v3H9zm8 0h10v3H17zm11 0h7.5v3H28zm8.5 0H44v3h-7.5z"/><path d="M0 0v70h59V0H0zm56 67H3V3h53v64z"/><path d="M8.5 10.5h18v18h-18z"/></g></svg>