<svg width="88" height="88" viewBox="0 0 88 88" xmlns="http://www.w3.org/2000/svg" xmlns:xlink="http://www.w3.org/1999/xlink"><title>Group 40</title><defs><filter x="-8.8%" y="-6.2%" width="117.5%" height="117.5%" filterUnits="objectBoundingBox" id="a"><feOffset dy="2" in="SourceAlpha" result="shadowOffsetOuter1"/><feGaussianBlur stdDeviation="2" in="shadowOffsetOuter1" result="shadowBlurOuter1"/><feColorMatrix values="0 0 0 0 0 0 0 0 0 0 0 0 0 0 0 0 0 0 0.2 0" in="shadowBlurOuter1" result="shadowMatrixOuter1"/><feMerge><feMergeNode in="shadowMatrixOuter1"/><feMergeNode in="SourceGraphic"/></feMerge></filter><path id="b" d="M39.916.061H.601v15.562h39.315V.06z"/></defs><g filter="url(#a)" transform="translate(4 2)" fill="none" fill-rule="evenodd"><circle fill="#FFF" cx="40" cy="40" r="40"/><path d="M59.006 57.1l-.123 1.496c-2.09-.172-5.96.284-12.412 1.436l-1.261.225-.42-1.21c-.092-.266-.662-.7-1.575-1.092a11.99 11.99 0 0 0-1.518-.524 12.065 12.065 0 0 0-.576-.145l-2.957-.163a429962.526 429962.526 0 0 1-11.862-.652c-3.529-.196-5.951.607-7.539 2.024-.477.425-.84.875-1.102 1.318a4.298 4.298 0 0 0-.16.294v4.738s.01.028.071.107c.118.155.329.338.627.533.628.41 1.549.81 2.674 1.175 1.562.508 3.598.946 4.144 1.01a84.79 84.79 0 0 0 3.426.6c2.636.407 5.467.73 8.3.979a145.983 145.983 0 0 0 3.441.26c.27-.106.289-.114.73-.29a2757.38 2757.38 0 0 0 11.047-4.428l.304-.123a842.588 842.588 0 0 0 7.931-3.242 156.196 156.196 0 0 0 2.997-1.28 1.518 1.518 0 0 0-.076-.098c-.583-.696-1.948-1.267-4.233-1.452l.122-1.495zm0 0l.12-1.494c3.019.244 5.126 1.126 6.29 2.514 1.111 1.325 1.27 3.158.187 4.116-.483.43-3.879 1.845-12.214 5.214l-.304.122a2421.294 2421.294 0 0 1-11.062 4.435l-.768.306-.272.108-.306.122-.33-.018a104.737 104.737 0 0 1-1.071-.068 148.97 148.97 0 0 1-2.795-.22 131.993 131.993 0 0 1-8.495-1.002 79.298 79.298 0 0 1-3.389-.593c-.794-.107-2.947-.575-4.65-1.128-3.388-1.1-5.444-2.443-5.446-4.667v-5.28l.075-.228c.277-.84.95-1.977 2.19-3.083 2.194-1.958 5.397-3.02 9.701-2.78a191224.428 191224.428 0 0 0 11.862.652l3.072.169.211.027c.189.037.496.109.883.216.644.177 1.29.395 1.903.658 1.082.464 1.956 1.01 2.55 1.703 6.12-1.068 9.862-1.485 12.18-1.295l-.122 1.495z" fill-rule="nonzero" fill="#4A4A4A"/><path d="M54.889 57.246c-2.279.234-5.168.68-8.68 1.31-.146-.412-.451-.776-.845-1.09l-.7.2c-6.769 1.904-11.514 2.924-13.721 2.949a1.264 1.264 0 0 0-1.242 1.272c0 .701.563 1.27 1.257 1.27h.015c5.439-.063 21.411-5.108 23.916-5.911" fill="#4A4A4A"/><g transform="translate(20.537 9.02)"><mask id="c" fill="#fff"><use xlink:href="#b"/></mask><path fill="#4A4A4A" mask="url(#c)" d="M31.724-.852H8.792L.601 7.592v.964l39.315-.846v-.118z"/></g><path d="M19.944 49.427V16.026h41.112v33.401H19.944zm3-3h35.112V19.026H22.944v27.401z" fill="#4A4A4A" fill-rule="nonzero"/><path fill="#FCBD1B" style="mix-blend-mode:multiply" d="M17 41.172h36.57V12H17z"/><path fill="#FFF" d="M43.755 9.08h-6.677l-1.67 8.445h10.017z"/><path fill="#4A4A4A" d="M45.425 25.125l-1.67.847-1.67-.847-1.67.847-1.669-.847-1.668.847-1.67-.847v-7.6h10.017z"/><path d="M32.903 39.483h-8.347a.84.84 0 0 0-.835.843c0 .467.375.846.835.846h8.347a.84.84 0 0 0 .834-.846.839.839 0 0 0-.834-.843M28.73 42.86h-4.174a.839.839 0 0 0-.835.845.84.84 0 0 0 .835.843h4.174a.84.84 0 0 0 .835-.843.839.839 0 0 0-.835-.845" fill="#434A54"/></g></svg>