<?xml version="1.0" encoding="UTF-8"?>
<svg width="62px" height="70px" viewBox="0 0 62 70" version="1.1" xmlns="http://www.w3.org/2000/svg" xmlns:xlink="http://www.w3.org/1999/xlink">
    <!-- Generator: Sketch 46.2 (44496) - http://www.bohemiancoding.com/sketch -->
    <title>noun_936819_cc</title>
    <desc>Created with Sketch.</desc>
    <defs></defs>
    <g id="TRACKING-CXP01-245" stroke="none" stroke-width="1" fill="none" fill-rule="evenodd">
        <g id="01-CXP-Desktop_TRACKING_ÉXITO" transform="translate(-248.000000, -1515.000000)" fill-rule="nonzero" fill="#373737">
            <g id="noun_936819_cc" transform="translate(248.000000, 1515.000000)">
                <path d="M61.9276546,14.4032922 L61.9276546,14.3312757 C61.9276546,14.1872428 61.8553092,14.1152263 61.8553092,13.9711934 L61.8553092,13.9711934 C61.7829638,13.899177 61.7106184,13.755144 61.638273,13.6831276 C61.638273,13.6831276 61.638273,13.6831276 61.638273,13.6111111 L50.5694282,0.504115226 C50.2800467,0.144032922 49.9183197,0 49.4842474,0 L11.8646441,0 C11.4305718,0 10.9964994,0.216049383 10.7071179,0.576131687 L0.289381564,13.6111111 L0.289381564,13.6111111 C0.217036173,13.6831276 0.144690782,13.8271605 0.0723453909,13.899177 L0.0723453909,13.899177 C0,13.9711934 0,14.1152263 0,14.1872428 L0,14.2592593 L0,14.3312757 L0,68.5596708 C0,69.3518519 0.651108518,70 1.44690782,70 L60.5530922,70 C61.3488915,70 62,69.3518519 62,68.5596708 L62,14.5473251 C61.9276546,14.4753086 61.9276546,14.4032922 61.9276546,14.4032922 Z M32.4107351,13.1069959 L32.4107351,2.88065844 L48.8331389,2.88065844 L57.4422404,13.1069959 L32.4107351,13.1069959 Z M29.5169195,13.1069959 L4.41306884,13.1069959 L12.5157526,2.88065844 L29.5169195,2.88065844 L29.5169195,13.1069959 Z M2.82147025,15.9876543 L59.033839,15.9876543 L59.033839,67.3353909 L2.82147025,67.3353909 L2.82147025,15.9876543 Z" id="Shape"></path>
                <path d="M42.2403742,20.2898551 L19.7596258,20.2898551 C18.9541267,20.2898551 18.295082,20.9141583 18.295082,21.6771956 L18.295082,27.0184566 C18.295082,27.7814939 18.9541267,28.4057971 19.7596258,28.4057971 L42.2403742,28.4057971 C43.0458733,28.4057971 43.704918,27.7814939 43.704918,27.0184566 L43.704918,21.6771956 C43.704918,20.9141583 43.0458733,20.2898551 42.2403742,20.2898551 Z M40.7758303,25.6311161 L21.2241697,25.6311161 L21.2241697,23.0645361 L40.7758303,23.0645361 C40.7758303,23.0645361 40.7758303,25.6311161 40.7758303,25.6311161 Z" id="Shape"></path>
            </g>
        </g>
    </g>
</svg>