<?xml version="1.0" encoding="UTF-8"?>
<svg width="59px" height="70px" viewBox="0 0 59 70" version="1.1" xmlns="http://www.w3.org/2000/svg" xmlns:xlink="http://www.w3.org/1999/xlink">
    <!-- Generator: Sketch 46.2 (44496) - http://www.bohemiancoding.com/sketch -->
    <title>noun_70094_cc</title>
    <desc>Created with Sketch.</desc>
    <defs></defs>
    <g id="TRACKING-CXP01-250" stroke="none" stroke-width="1" fill="none" fill-rule="evenodd">
        <g id="01_tracking_transito_-abierto" transform="translate(-239.000000, -1947.000000)" fill-rule="nonzero" fill="#373737">
            <g id="noun_70094_cc" transform="translate(239.000000, 1947.000000)">
                <g id="Group">
                    <rect id="Rectangle-path" x="33" y="10.5" width="19" height="3"></rect>
                    <rect id="Rectangle-path" x="33" y="16.5" width="7" height="3"></rect>
                    <rect id="Rectangle-path" x="41.5" y="16.5" width="8" height="3"></rect>
                    <rect id="Rectangle-path" x="33" y="22.5" width="4.5" height="3"></rect>
                    <rect id="Rectangle-path" x="38.5" y="22.5" width="7" height="3"></rect>
                    <rect id="Rectangle-path" x="46.5" y="22.5" width="7" height="3"></rect>
                    <rect id="Rectangle-path" x="33" y="28.5" width="7" height="3"></rect>
                    <rect id="Rectangle-path" x="41" y="28.5" width="10" height="3"></rect>
                    <rect id="Rectangle-path" x="9" y="39" width="19" height="3"></rect>
                    <rect id="Rectangle-path" x="30" y="39" width="9" height="3"></rect>
                    <rect id="Rectangle-path" x="40" y="39" width="3.5" height="3"></rect>
                    <rect id="Rectangle-path" x="45" y="39" width="8.5" height="3"></rect>
                    <rect id="Rectangle-path" x="9" y="45" width="11.5" height="3"></rect>
                    <rect id="Rectangle-path" x="42.5" y="45" width="10" height="3"></rect>
                    <rect id="Rectangle-path" x="22" y="45" width="9" height="3"></rect>
                    <rect id="Rectangle-path" x="32.5" y="45" width="9" height="3"></rect>
                    <rect id="Rectangle-path" x="9" y="51" width="4.5" height="3"></rect>
                    <rect id="Rectangle-path" x="14.5" y="51" width="7" height="3"></rect>
                    <rect id="Rectangle-path" x="31" y="51" width="11.5" height="3"></rect>
                    <rect id="Rectangle-path" x="43.5" y="51" width="9.5" height="3"></rect>
                    <rect id="Rectangle-path" x="22.5" y="51" width="7" height="3"></rect>
                    <rect id="Rectangle-path" x="9" y="57" width="7" height="3"></rect>
                    <rect id="Rectangle-path" x="17" y="57" width="10" height="3"></rect>
                    <rect id="Rectangle-path" x="28" y="57" width="7.5" height="3"></rect>
                    <rect id="Rectangle-path" x="36.5" y="57" width="7.5" height="3"></rect>
                    <path d="M0,0 L0,70 L59,70 L59,0 L0,0 Z M56,67 L3,67 L3,3 L56,3 L56,67 Z" id="Shape"></path>
                    <rect id="Rectangle-path" x="8.5" y="10.5" width="18" height="18"></rect>
                </g>
            </g>
        </g>
    </g>
</svg>